<svg width="646" height="200" viewBox="0 0 646 200" fill="none" xmlns="http://www.w3.org/2000/svg">
<path fill-rule="evenodd" clip-rule="evenodd" d="M115.362 59.4455C88.9716 33.0548 46.1837 33.0548 19.793 59.4455C-6.59767 85.8363 -6.59767 128.624 19.793 155.015L61.3313 196.553C64.7811 200.003 70.3743 200.003 73.824 196.553L115.362 155.015C141.753 128.624 141.753 85.8363 115.362 59.4455ZM67.7985 132.406C81.8248 132.406 93.1953 121.036 93.1953 107.009C93.1953 92.9831 81.8248 81.6125 67.7985 81.6125C53.7722 81.6125 42.4017 92.9831 42.4017 107.009C42.4017 121.036 53.7722 132.406 67.7985 132.406Z" fill="#090A0A"/>
<path fill-rule="evenodd" clip-rule="evenodd" d="M89.6227 0.00697489C83.575 -0.144952 77.7298 2.19065 73.452 6.46835L41.2679 38.6525C49.381 35.6064 58.1691 33.9404 67.3463 33.9404C108.327 33.9404 141.549 67.1622 141.549 108.143C141.549 117.321 139.883 126.109 136.837 134.222L169.021 102.038C173.299 97.7599 175.635 91.9147 175.483 85.867L173.906 23.1064C173.61 11.3444 164.145 1.87941 152.383 1.58391L89.6227 0.00697489ZM139.336 36.4664C142.699 39.8299 148.152 39.8299 151.516 36.4664C154.88 33.1028 154.88 27.6495 151.516 24.286C148.152 20.9225 142.699 20.9225 139.336 24.286C135.972 27.6495 135.972 33.1029 139.336 36.4664Z" fill="#090A0A"/>
<path d="M259.665 49.6099C251.842 34.7902 250.195 36.0252 245.665 36.0252H228.645C223.292 36.0252 226.998 37.123 231.527 41.7884C233.449 47.0028 234.684 56.8826 234.684 66.4879V101.204C234.684 131.118 224.664 131.942 232.213 131.942H242.371C254.45 131.942 238.527 131.53 238.527 101.204V66.4879C238.527 61.6852 238.802 57.7059 239.351 54.2754L279.431 131.942H281.353L315.393 46.8655V118.357C315.393 129.06 307.02 131.942 311.55 131.942H339.688C344.63 131.942 335.845 129.06 335.845 118.357V49.4727C335.845 38.9068 344.63 36.0252 339.688 36.0252H315.668L288.353 104.086L259.665 49.6099Z" fill="#090A0A"/>
<path d="M388.68 104.223C388.818 119.455 383.465 128.923 376.876 128.923C372.072 128.923 367.817 123.434 367.817 111.633C367.817 99.1461 372.484 92.9712 388.68 92.9712V104.223ZM398.838 131.804H411.74C420.25 131.804 409.132 126.041 409.132 122.199V91.0502C409.132 74.8583 394.857 66.7623 378.111 66.7623C363.974 66.7623 354.091 72.5256 354.091 81.1704C354.091 87.0708 358.483 91.1874 363.699 91.1874C375.778 91.1874 369.327 69.2323 378.249 69.2323C383.876 69.2323 388.131 77.8771 388.68 90.913C363.013 90.913 347.365 99.9694 347.365 114.789C347.365 126.316 356.699 132.902 368.229 132.902C377.013 132.902 384.425 129.06 388.68 122.473C388.818 128.099 390.602 131.804 398.838 131.804Z" fill="#090A0A"/>
<path d="M444.088 118.357V83.6403C444.088 76.9166 448.481 71.7022 456.03 71.7022C467.148 71.7022 473.462 83.3659 473.462 100.244C473.462 117.671 466.736 126.864 455.893 126.864C450.128 126.864 446.01 124.257 444.088 118.357ZM419.793 163.914H447.932C452.187 163.914 444.088 157.464 444.088 154.308V125.904C448.069 130.432 454.52 132.902 462.893 132.902C482.11 132.902 494.051 119.455 494.051 99.8322C494.051 79.7982 481.56 66.4879 462.344 66.4879C453.422 66.4879 447.245 69.3695 444.088 74.3094V71.2906C444.088 67.8601 439.559 68.1345 437.088 67.9973H422.127C410.734 67.9973 423.637 76.6421 423.637 80.8959V154.308C423.637 157.19 415.264 163.914 419.793 163.914Z" fill="#090A0A"/>
<path d="M521.587 72.3883C528.038 69.2323 540.117 78.2888 548.078 94.8923C555.902 111.496 554.529 124.806 547.941 127.688C540.666 130.981 529.685 120.552 522.41 105.458C514.175 88.1686 515.547 75.1327 521.587 72.3883ZM535.176 133.177C554.255 133.177 569.628 119.18 569.628 99.9694C569.628 80.7587 554.255 66.7623 535.176 66.7623C515.959 66.7623 500.586 80.7587 500.586 99.9694C500.586 119.18 515.959 133.177 535.176 133.177Z" fill="#090A0A"/>
<path d="M576.63 131.804H604.769C609.71 131.804 600.925 125.218 600.925 122.199V81.3076C600.925 75.6816 604.494 71.8395 609.298 71.8395C615.749 71.8395 620.142 78.2888 620.142 87.7569V122.199C620.142 125.218 611.906 131.804 616.298 131.804H644.437C649.515 131.804 640.594 125.218 640.594 122.199V90.913C640.594 76.6421 631.123 67.174 617.122 67.174C610.122 67.174 604.22 69.3695 600.925 73.4861V71.565C600.925 68.1345 596.396 68.1345 593.925 67.9973H578.964C567.571 67.9973 580.474 76.7794 580.474 81.0332V122.199C580.474 125.218 572.101 131.804 576.63 131.804Z" fill="#090A0A"/>
</svg>
