<svg width="190" height="46" viewBox="0 0 190 46" fill="none" xmlns="http://www.w3.org/2000/svg">
<path d="M0 0.917114H11.6069L19.5908 20.3828H19.9933L27.9772 0.917114H39.5841V35.2841H30.4596V15.4157H30.1913L22.5428 35.0156H17.0413L9.39283 15.2814H9.12447V35.2841H0V0.917114Z" fill="#202325"/>
<path d="M52.9269 35.2841H42.8632L54.2017 0.917114H66.9491L78.2876 35.2841H68.2238L60.7096 10.3814H60.4412L52.9269 35.2841ZM57.0183 21.7252H64.1325L66.2389 28.706H54.9118L57.0183 21.7252Z" fill="#202325"/>
<path d="M81.596 35.2841V0.917114H96.4233C98.9728 0.917114 101.204 1.42054 103.116 2.42738C105.028 3.43422 106.515 4.8494 107.577 6.67291C108.64 8.49641 109.171 10.6276 109.171 13.0664C109.171 15.5275 108.623 17.6587 107.527 19.4598C106.442 21.261 104.916 22.6482 102.948 23.6214C100.991 24.5947 98.7044 25.0814 96.0878 25.0814H90.9218V17.8321H94.2093C95.3051 17.8321 96.2388 17.6419 97.0103 17.2615C97.7931 16.87 98.3913 16.3162 98.8051 15.6003C99.23 14.8843 99.4424 14.0396 99.4424 13.0664C99.4424 12.0819 99.23 11.2429 98.8051 10.5493C98.3913 9.84446 97.7931 9.30748 97.0103 8.9383C96.2388 8.55794 95.3051 8.36776 94.2093 8.36776H90.9218V35.2841H81.596Z" fill="#202325"/>
<path d="M190 0.917114V35.2841H182.217L169.805 17.228H169.604V35.2841H160.278V0.917114H168.195L180.406 18.9061H180.674V0.917114H190Z" fill="#202325"/>
<path fill-rule="evenodd" clip-rule="evenodd" d="M131.282 1.18554C133.564 0.301822 136.006 -0.0953953 138.45 0.0193132C140.895 -0.0953953 143.336 0.301822 145.619 1.18554C147.901 2.06925 149.974 3.42 151.704 5.1513C153.435 6.88261 154.785 8.95633 155.668 11.2397C156.552 13.5231 156.949 15.9659 156.834 18.4116C156.834 24.2052 152.238 29.9068 149.94 32.2059C147.642 34.5049 138.45 46.0001 138.45 46.0001C138.45 46.0001 129.258 34.5049 126.96 32.2059C124.662 29.9068 120.066 24.2052 120.066 18.4116C119.952 15.9659 120.349 13.5231 121.232 11.2397C122.115 8.95633 123.466 6.88261 125.196 5.1513C126.927 3.42 128.999 2.06925 131.282 1.18554ZM138.465 26.6591C143.298 26.6591 147.216 22.739 147.216 17.9034C147.216 13.0678 143.298 9.14773 138.465 9.14773C133.631 9.14773 129.713 13.0678 129.713 17.9034C129.713 22.739 133.631 26.6591 138.465 26.6591Z" fill="#A92024"/>
</svg>
