<svg width="250" height="189" viewBox="0 0 250 189" fill="none" xmlns="http://www.w3.org/2000/svg">
<path d="M123.983 188.533C192.456 188.533 247.965 185.82 247.965 182.474C247.965 179.128 192.456 176.415 123.983 176.415C55.5089 176.415 0 179.128 0 182.474C0 185.82 55.5089 188.533 123.983 188.533Z" fill="#BA4D50"/>
<path d="M239.046 178.746H225.617V50.6766H222.339V178.746H208.91C208.224 178.746 207.551 178.932 206.961 179.283C206.371 179.634 205.887 180.137 205.56 180.74C205.468 180.932 205.426 181.144 205.438 181.356C205.45 181.568 205.516 181.774 205.63 181.954C205.744 182.133 205.901 182.281 206.088 182.383C206.274 182.485 206.484 182.538 206.696 182.537H241.278C241.491 182.539 241.701 182.486 241.888 182.385C242.075 182.283 242.233 182.135 242.348 181.956C242.462 181.776 242.528 181.57 242.541 181.357C242.553 181.145 242.511 180.932 242.419 180.74C242.089 180.134 241.602 179.629 241.008 179.278C240.414 178.926 239.736 178.743 239.046 178.746Z" fill="#999999" stroke="#263238" stroke-width="0.249266" stroke-linecap="round" stroke-linejoin="round"/>
<path d="M201.37 71.4886C200.817 71.3449 200.296 71.1967 199.748 71.0395C199.428 70.9452 199.129 70.7877 198.87 70.5763C198.611 70.3648 198.397 70.1036 198.24 69.8082C198.084 69.5127 197.988 69.1889 197.958 68.8558C197.929 68.5227 197.967 68.1871 198.069 67.8687L208.43 35.5818C209.948 36.0669 210.711 36.2825 212.256 36.6462L204.442 69.6472C204.364 69.9717 204.223 70.2773 204.025 70.5463C203.828 70.8153 203.579 71.0422 203.293 71.2137C203.007 71.3852 202.689 71.4979 202.359 71.5451C202.029 71.5923 201.692 71.5731 201.37 71.4886Z" fill="#BA4D50"/>
<path d="M207.985 72.9887C207.433 72.8899 206.912 72.7866 206.359 72.6698C206.033 72.6004 205.724 72.4664 205.45 72.2758C205.175 72.0852 204.942 71.8417 204.764 71.5597C204.585 71.2778 204.465 70.9629 204.409 70.6337C204.354 70.3046 204.365 69.9676 204.442 69.6428L212.27 36.6418C213.81 37.0056 214.587 37.1583 216.146 37.4008L210.922 70.9093C210.871 71.241 210.753 71.5589 210.577 71.8444C210.4 72.1298 210.168 72.3768 209.894 72.5707C209.62 72.7647 209.31 72.9016 208.982 72.9734C208.654 73.0452 208.315 73.0504 207.985 72.9887Z" fill="#BA4D50"/>
<path opacity="0.3" d="M207.985 72.9887C207.433 72.8899 206.912 72.7866 206.359 72.6698C206.033 72.6004 205.724 72.4664 205.45 72.2758C205.175 72.0852 204.942 71.8417 204.764 71.5597C204.585 71.2778 204.465 70.9629 204.409 70.6337C204.354 70.3046 204.365 69.9676 204.442 69.6428L212.27 36.6418C213.81 37.0056 214.587 37.1583 216.146 37.4008L210.922 70.9093C210.871 71.241 210.753 71.5589 210.577 71.8444C210.4 72.1298 210.168 72.3768 209.894 72.5707C209.62 72.7647 209.31 72.9016 208.982 72.9734C208.654 73.0452 208.315 73.0504 207.985 72.9887Z" fill="white"/>
<path d="M214.677 73.9677C214.125 73.9138 213.604 73.8509 213.051 73.7791C212.72 73.7352 212.401 73.6256 212.113 73.4568C211.825 73.2879 211.574 73.0632 211.374 72.7959C211.174 72.5285 211.029 72.2239 210.949 71.8999C210.868 71.576 210.853 71.2391 210.904 70.9092L216.132 37.4008C217.695 37.6478 218.476 37.7376 220.048 37.8499C219.171 49.1197 218.297 60.3895 217.426 71.6593C217.401 71.9931 217.311 72.3187 217.158 72.6168C217.006 72.9148 216.796 73.1793 216.539 73.3946C216.283 73.6099 215.986 73.7715 215.666 73.8699C215.346 73.9684 215.01 74.0016 214.677 73.9677Z" fill="#BA4D50"/>
<path opacity="0.5" d="M214.677 73.9677C214.125 73.9138 213.604 73.8509 213.051 73.7791C212.72 73.7352 212.401 73.6256 212.113 73.4568C211.825 73.2879 211.574 73.0632 211.374 72.7959C211.174 72.5285 211.029 72.2239 210.949 71.8999C210.868 71.576 210.853 71.2391 210.904 70.9092L216.132 37.4008C217.695 37.6478 218.476 37.7376 220.048 37.8499C219.171 49.1197 218.297 60.3895 217.426 71.6593C217.401 71.9931 217.311 72.3187 217.158 72.6168C217.006 72.9148 216.796 73.1793 216.539 73.3946C216.283 73.6099 215.986 73.7715 215.666 73.8699C215.346 73.9684 215.01 74.0016 214.677 73.9677Z" fill="white"/>
<path d="M221.414 74.4258C220.866 74.4258 220.34 74.3944 219.792 74.363C219.459 74.3454 219.132 74.2612 218.831 74.1155C218.53 73.9697 218.262 73.7653 218.041 73.5142C217.821 73.2631 217.653 72.9704 217.547 72.6534C217.441 72.3364 217.4 72.0015 217.426 71.6683C218.3 60.4015 219.174 49.1317 220.048 37.8589C221.616 37.9801 222.406 38.0116 223.978 38.0116V71.9198C223.979 72.254 223.913 72.585 223.783 72.8932C223.654 73.2014 223.464 73.4806 223.225 73.7142C222.986 73.9478 222.703 74.1311 222.391 74.2534C222.08 74.3756 221.748 74.4342 221.414 74.4258Z" fill="#BA4D50"/>
<path d="M228.168 74.363C227.62 74.3944 227.095 74.4124 226.543 74.4258C226.208 74.4342 225.876 74.3756 225.565 74.2534C225.254 74.1311 224.97 73.9478 224.731 73.7142C224.492 73.4806 224.302 73.2014 224.173 72.8932C224.044 72.585 223.977 72.254 223.978 71.9198V38.0116C225.555 38.0116 226.341 37.9801 227.912 37.8589C228.784 49.1287 229.656 60.3985 230.531 71.6683C230.557 72.0012 230.516 72.3361 230.411 72.6531C230.306 72.9701 230.138 73.2628 229.918 73.5139C229.698 73.7651 229.43 73.9696 229.129 74.1154C228.829 74.2612 228.502 74.3454 228.168 74.363Z" fill="#BA4D50"/>
<path opacity="0.3" d="M228.168 74.363C227.62 74.3944 227.095 74.4124 226.543 74.4258C226.208 74.4342 225.876 74.3756 225.565 74.2534C225.254 74.1311 224.97 73.9478 224.731 73.7142C224.492 73.4806 224.302 73.2014 224.173 72.8932C224.044 72.585 223.977 72.254 223.978 71.9198V38.0116C225.555 38.0116 226.341 37.9801 227.912 37.8589C228.784 49.1287 229.656 60.3985 230.531 71.6683C230.557 72.0012 230.516 72.3361 230.411 72.6531C230.306 72.9701 230.138 73.2628 229.918 73.5139C229.698 73.7651 229.43 73.9696 229.129 74.1154C228.829 74.2612 228.502 74.3454 228.168 74.363Z" fill="white"/>
<path d="M234.905 73.7791C234.357 73.851 233.832 73.9139 233.284 73.9678C232.951 74.0017 232.615 73.9688 232.296 73.8709C231.976 73.7731 231.679 73.6123 231.423 73.3981C231.166 73.1838 230.955 72.9204 230.802 72.6233C230.649 72.3262 230.557 72.0015 230.531 71.6683C229.66 60.4015 228.787 49.1317 227.912 37.8589C229.48 37.7376 230.266 37.6478 231.824 37.4098L237.052 70.9183C237.103 71.2476 237.087 71.5837 237.006 71.9069C236.925 72.23 236.78 72.5338 236.58 72.8003C236.38 73.0668 236.129 73.2906 235.842 73.4587C235.554 73.6268 235.236 73.7358 234.905 73.7791Z" fill="#BA4D50"/>
<path opacity="0.7" d="M234.905 73.7791C234.357 73.851 233.832 73.9139 233.284 73.9678C232.951 74.0017 232.615 73.9688 232.296 73.8709C231.976 73.7731 231.679 73.6123 231.423 73.3981C231.166 73.1838 230.955 72.9204 230.802 72.6233C230.649 72.3262 230.557 72.0015 230.531 71.6683C229.66 60.4015 228.787 49.1317 227.912 37.8589C229.48 37.7376 230.266 37.6478 231.824 37.4098L237.052 70.9183C237.103 71.2476 237.087 71.5837 237.006 71.9069C236.925 72.23 236.78 72.5338 236.58 72.8003C236.38 73.0668 236.129 73.2906 235.842 73.4587C235.554 73.6268 235.236 73.7358 234.905 73.7791Z" fill="white"/>
<path d="M241.597 72.6698C241.049 72.7866 240.524 72.8899 239.976 72.9887C239.647 73.0478 239.309 73.0406 238.983 72.9676C238.657 72.8946 238.349 72.7572 238.077 72.5636C237.804 72.3699 237.573 72.1238 237.398 71.8397C237.222 71.5557 237.104 71.2393 237.052 70.9093L231.824 37.4008C233.387 37.1583 234.164 37.0056 235.705 36.6418C238.309 47.6421 240.913 58.6424 243.515 69.6428C243.593 69.9677 243.605 70.305 243.55 70.6346C243.495 70.9642 243.375 71.2795 243.196 71.5618C243.017 71.8441 242.783 72.0876 242.509 72.2779C242.234 72.4682 241.924 72.6015 241.597 72.6698Z" fill="#BA4D50"/>
<path d="M248.199 71.035C247.651 71.1967 247.13 71.3449 246.578 71.4841C246.254 71.5686 245.918 71.5877 245.587 71.5402C245.256 71.4928 244.938 71.3798 244.651 71.2079C244.365 71.0359 244.116 70.8086 243.918 70.539C243.721 70.2695 243.579 69.9633 243.501 69.6383C240.899 58.6349 238.296 47.6346 235.691 36.6373C237.232 36.2735 238 36.0579 239.518 35.5729L249.879 67.8598C249.982 68.1784 250.02 68.5145 249.991 68.848C249.961 69.1816 249.866 69.506 249.709 69.802C249.553 70.098 249.338 70.3596 249.079 70.5714C248.82 70.7832 248.52 70.9408 248.199 71.035Z" fill="#BA4D50"/>
<path opacity="0.3" d="M248.199 71.035C247.651 71.1967 247.13 71.3449 246.578 71.4841C246.254 71.5686 245.918 71.5877 245.587 71.5402C245.256 71.4928 244.938 71.3798 244.651 71.2079C244.365 71.0359 244.116 70.8086 243.918 70.539C243.721 70.2695 243.579 69.9633 243.501 69.6383C240.899 58.6349 238.296 47.6346 235.691 36.6373C237.232 36.2735 238 36.0579 239.518 35.5729L249.879 67.8598C249.982 68.1784 250.02 68.5145 249.991 68.848C249.961 69.1816 249.866 69.506 249.709 69.802C249.553 70.098 249.338 70.3596 249.079 70.5714C248.82 70.7832 248.52 70.9408 248.199 71.035Z" fill="white"/>
<path d="M239.531 35.5504C238.013 36.0355 237.245 36.2466 235.705 36.6148C234.164 36.9831 233.387 37.1313 231.824 37.3738C230.261 37.6164 229.484 37.7107 227.912 37.823C226.341 37.9352 225.555 37.9757 223.978 37.9757C222.402 37.9757 221.616 37.9442 220.048 37.823C218.481 37.7017 217.695 37.6074 216.132 37.3738C214.569 37.1403 213.797 36.9786 212.256 36.6148C210.716 36.2511 209.948 36.0355 208.43 35.5504C209.948 35.0609 210.711 34.8498 212.256 34.486C213.801 34.1223 214.574 33.9651 216.132 33.7225C217.691 33.48 218.477 33.3902 220.048 33.2734C221.62 33.1567 222.406 33.1207 223.978 33.1207C225.55 33.1207 226.341 33.1522 227.912 33.2734C229.484 33.3947 230.266 33.4845 231.824 33.7225C233.383 33.9606 234.164 34.1178 235.705 34.486C237.245 34.8543 238.013 35.0609 239.531 35.5504Z" fill="#BA4D50"/>
<path d="M44.377 131.392C47.8621 133.57 56.3325 141.838 59.2921 124.489C62.2518 107.139 53.0629 106.353 45.1001 111.271C35.6911 117.083 32.9785 124.26 44.377 131.392Z" fill="#BA4D50"/>
<path opacity="0.2" d="M44.377 131.392C47.8621 133.57 56.3325 141.838 59.2921 124.489C62.2518 107.139 53.0629 106.353 45.1001 111.271C35.6911 117.083 32.9785 124.26 44.377 131.392Z" fill="black"/>
<path d="M38.3275 148.265C38.3275 148.265 44.9923 126.352 53.9432 113.202" stroke="#263238" stroke-width="0.295809" stroke-linecap="round" stroke-linejoin="round"/>
<path d="M45.7557 128.499C48.7671 128.378 51.7088 129.425 53.9656 131.423" stroke="#263238" stroke-width="0.295809" stroke-linecap="round" stroke-linejoin="round"/>
<path d="M41.817 117.783C46.2633 120.424 47.7408 124.201 47.7408 124.201" stroke="#263238" stroke-width="0.295809" stroke-linecap="round" stroke-linejoin="round"/>
<path d="M49.9281 119.903C49.9281 119.903 53.4043 118.776 56.4897 120.653" stroke="#263238" stroke-width="0.295809" stroke-linecap="round" stroke-linejoin="round"/>
<path d="M51.783 116.616C51.783 116.616 51.2934 113.602 49.0613 112.646" stroke="#263238" stroke-width="0.295809" stroke-linecap="round" stroke-linejoin="round"/>
<path d="M35.3857 121.039C43.6315 122.926 65.683 133.291 59.7278 97.5552C53.7725 61.8192 35.3857 66.49 23.2147 81.432C8.82058 99.0733 8.40289 114.869 35.3857 121.039Z" fill="#BA4D50"/>
<path d="M35.0085 157.934C35.0085 157.934 33.1806 110.827 41.7183 79.2448" stroke="#263238" stroke-width="0.295809" stroke-linecap="round" stroke-linejoin="round"/>
<path d="M36.1133 114.487C36.1133 114.487 44.0133 110.723 54.0465 114.635" stroke="#263238" stroke-width="0.295809" stroke-linecap="round" stroke-linejoin="round"/>
<path d="M37.0744 104.795C37.0744 104.795 31.6536 98.4445 21.2252 96.3112" stroke="#263238" stroke-width="0.295809" stroke-linecap="round" stroke-linejoin="round"/>
<path d="M38.4263 94.9638C38.4263 94.9638 44.422 90.4278 51.6932 91.9952" stroke="#263238" stroke-width="0.295809" stroke-linecap="round" stroke-linejoin="round"/>
<path d="M39.8095 87.3289C39.8095 87.3289 36.8273 81.8048 31.8422 81.4455" stroke="#263238" stroke-width="0.295809" stroke-linecap="round" stroke-linejoin="round"/>
<path d="M23.7313 119.926C17.5469 122.872 1.94469 134.967 0.332363 105.657C-1.27996 76.348 14.0843 76.7927 26.3496 86.4531C40.8336 97.8607 43.9729 110.27 23.7313 119.926Z" fill="#BA4D50"/>
<path opacity="0.5" d="M23.7313 119.926C17.5469 122.872 1.94469 134.967 0.332363 105.657C-1.27996 76.348 14.0843 76.7927 26.3496 86.4531C40.8336 97.8607 43.9729 110.27 23.7313 119.926Z" fill="white"/>
<path d="M30.5533 149.028C30.5533 149.028 23.6684 111.46 11.3312 87.9801" stroke="#263238" stroke-width="0.295809" stroke-linecap="round" stroke-linejoin="round"/>
<path d="M21.993 114.869C21.993 114.869 15.0857 113.292 7.84143 118.156" stroke="#263238" stroke-width="0.295809" stroke-linecap="round" stroke-linejoin="round"/>
<path d="M19.523 107.377C19.523 107.377 22.6668 101.4 30.5533 97.8607" stroke="#263238" stroke-width="0.295809" stroke-linecap="round" stroke-linejoin="round"/>
<path d="M16.7161 99.8368C16.7161 99.8368 11.1695 97.3127 5.69928 99.8368" stroke="#263238" stroke-width="0.295809" stroke-linecap="round" stroke-linejoin="round"/>
<path d="M14.2683 94.0387C14.2683 94.0387 15.6471 89.1433 19.523 87.9801" stroke="#263238" stroke-width="0.295809" stroke-linecap="round" stroke-linejoin="round"/>
<path d="M42.2257 182.541H27.616C25.8288 182.542 24.1106 181.851 22.8208 180.614C21.5309 179.377 20.7693 177.689 20.6951 175.903L19.3478 144.016H50.4625L49.1151 175.903C49.0412 177.684 48.2839 179.367 47.0008 180.603C45.7177 181.839 44.0075 182.534 42.2257 182.541Z" fill="white" stroke="#263238" stroke-width="0.295809" stroke-linecap="round" stroke-linejoin="round"/>
<path d="M51.3383 146.248H18.3643C17.7773 146.241 17.2164 146.005 16.8017 145.589C16.387 145.174 16.1515 144.612 16.1457 144.025C16.1457 143.437 16.3794 142.872 16.7955 142.456C17.2116 142.04 17.7759 141.807 18.3643 141.807H51.3383C51.632 141.803 51.9234 141.858 52.1957 141.968C52.468 142.078 52.7157 142.24 52.9246 142.447C53.1335 142.653 53.2993 142.899 53.4125 143.17C53.5257 143.441 53.5839 143.732 53.5839 144.025C53.578 144.617 53.3388 145.182 52.9183 145.599C52.4978 146.015 51.93 146.248 51.3383 146.248Z" fill="#999999" stroke="#263238" stroke-width="0.221857" stroke-linecap="round" stroke-linejoin="round"/>
<path d="M190.407 1H182.875V156.493H190.407C191.601 156.493 192.747 156.02 193.594 155.179C194.441 154.338 194.921 153.195 194.93 152.001V5.52259C194.93 4.32312 194.453 3.17279 193.605 2.32464C192.757 1.47649 191.606 1 190.407 1Z" fill="#999999" stroke="#263238" stroke-width="0.249266" stroke-linecap="round" stroke-linejoin="round"/>
<path d="M184.982 1H116.577C114.079 1 112.054 3.02483 112.054 5.52259V151.979C112.054 154.477 114.079 156.502 116.577 156.502H184.982C187.479 156.502 189.504 154.477 189.504 151.979V5.52259C189.504 3.02483 187.479 1 184.982 1Z" fill="#263238" stroke="#263238" stroke-width="0.332354" stroke-linecap="round" stroke-linejoin="round"/>
<path d="M163.074 10.0811C162.966 10.9257 162.554 11.7021 161.915 12.265C161.276 12.8279 160.454 13.1388 159.602 13.1395H141.355C140.503 13.1388 139.681 12.8279 139.042 12.265C138.403 11.7021 137.991 10.9257 137.883 10.0811C137.777 9.23639 137.366 8.45954 136.727 7.89638C136.089 7.33322 135.267 7.02251 134.416 7.02258H121.58C121.12 7.02258 120.664 7.11337 120.239 7.28976C119.814 7.46614 119.428 7.72465 119.103 8.05047C118.778 8.3763 118.52 8.76305 118.345 9.18855C118.17 9.61406 118.08 10.07 118.081 10.5302V146.976C118.081 147.904 118.45 148.794 119.106 149.45C119.762 150.106 120.652 150.474 121.58 150.474H179.965C180.893 150.474 181.783 150.106 182.439 149.45C183.095 148.794 183.464 147.904 183.464 146.976V10.5302C183.464 10.0707 183.373 9.61578 183.197 9.19131C183.021 8.76684 182.764 8.38116 182.439 8.05628C182.114 7.73141 181.728 7.4737 181.304 7.29788C180.879 7.12206 180.424 7.03156 179.965 7.03156H166.541C165.691 7.03121 164.87 7.34066 164.232 7.90199C163.594 8.46332 163.182 9.23802 163.074 10.0811Z" fill="#BA4D50" stroke="#263238" stroke-width="0.332354" stroke-linecap="round" stroke-linejoin="round"/>
<path d="M144.503 8.63499C144.503 8.95299 144.408 9.26385 144.232 9.52826C144.055 9.79267 143.804 9.99874 143.51 10.1204C143.216 10.2421 142.893 10.274 142.581 10.2119C142.269 10.1499 141.983 9.99676 141.758 9.7719C141.533 9.54704 141.38 9.26056 141.318 8.94867C141.256 8.63678 141.288 8.3135 141.409 8.0197C141.531 7.72591 141.737 7.4748 142.002 7.29813C142.266 7.12146 142.577 7.02716 142.895 7.02716C143.321 7.02716 143.73 7.19656 144.032 7.49809C144.333 7.79961 144.503 8.20857 144.503 8.63499Z" fill="#BA4D50" stroke="#263238" stroke-width="0.332354" stroke-linecap="round" stroke-linejoin="round"/>
<path d="M157.963 7.02716H150.777C150.35 7.02716 149.942 7.19656 149.64 7.49809C149.338 7.79961 149.169 8.20857 149.169 8.63499C149.169 9.06142 149.338 9.47037 149.64 9.7719C149.942 10.0734 150.35 10.2428 150.777 10.2428H157.963C158.389 10.2428 158.798 10.0734 159.1 9.7719C159.401 9.47037 159.571 9.06142 159.571 8.63499C159.571 8.20857 159.401 7.79961 159.1 7.49809C158.798 7.19656 158.389 7.02716 157.963 7.02716Z" fill="#999999" stroke="#263238" stroke-width="0.249266" stroke-linecap="round" stroke-linejoin="round"/>
<path d="M155.776 143.042H142.567C142.141 143.042 141.732 143.211 141.43 143.513C141.129 143.814 140.959 144.223 140.959 144.649C140.959 145.076 141.129 145.485 141.43 145.786C141.732 146.088 142.141 146.257 142.567 146.257H155.776C156.202 146.257 156.611 146.088 156.913 145.786C157.214 145.485 157.383 145.076 157.383 144.649C157.383 144.223 157.214 143.814 156.913 143.513C156.611 143.211 156.202 143.042 155.776 143.042Z" fill="#999999" stroke="#263238" stroke-width="0.249266" stroke-linecap="round" stroke-linejoin="round"/>
<path d="M193.34 37.6568V26.878C193.34 26.6398 193.245 26.4113 193.077 26.2429C192.908 26.0744 192.68 25.9798 192.441 25.9798C192.203 25.9798 191.975 26.0744 191.806 26.2429C191.638 26.4113 191.543 26.6398 191.543 26.878V37.6568C191.543 37.895 191.638 38.1235 191.806 38.2919C191.975 38.4604 192.203 38.555 192.441 38.555C192.68 38.555 192.908 38.4604 193.077 38.2919C193.245 38.1235 193.34 37.895 193.34 37.6568Z" fill="#263238"/>
<path d="M193.34 45.66V42.0671C193.34 41.8289 193.245 41.6004 193.077 41.432C192.908 41.2635 192.68 41.1689 192.441 41.1689C192.203 41.1689 191.975 41.2635 191.806 41.432C191.638 41.6004 191.543 41.8289 191.543 42.0671V45.66C191.543 45.8983 191.638 46.1267 191.806 46.2952C191.975 46.4636 192.203 46.5583 192.441 46.5583C192.68 46.5583 192.908 46.4636 193.077 46.2952C193.245 46.1267 193.34 45.8983 193.34 45.66Z" fill="#263238"/>
<path d="M125.757 37.8364V35.7435H129.709V38.1373C129.709 40.0416 130.544 40.7242 131.878 40.7242C133.212 40.7242 134.043 40.0416 134.043 38.1373V32.1731C134.043 30.2688 133.208 29.5457 131.878 29.5457C130.549 29.5457 129.709 30.2688 129.709 32.1731V32.3976H125.757L126.516 17.5319H137.541V21.3359H130.243L129.898 27.6819H129.974C130.34 27.058 130.872 26.5473 131.509 26.2058C132.147 25.8643 132.867 25.7053 133.589 25.7462C136.666 25.7462 138.224 27.911 138.224 31.8273V37.8364C138.224 42.094 136.095 44.5282 131.99 44.5282C127.886 44.5282 125.757 42.094 125.757 37.8364Z" fill="white"/>
<path d="M140.78 37.8364V23.8465C140.78 19.5889 143.025 17.1547 147.13 17.1547C151.235 17.1547 153.476 19.5889 153.476 23.8465V37.8364C153.476 42.094 151.23 44.5282 147.13 44.5282C143.03 44.5282 140.78 42.094 140.78 37.8364ZM149.313 38.1014V23.577C149.313 21.6773 148.477 20.9542 147.148 20.9542C145.819 20.9542 144.979 21.6773 144.979 23.577V38.1014C144.979 40.0012 145.814 40.7242 147.148 40.7242C148.482 40.7242 149.295 40.0012 149.295 38.1014H149.313Z" fill="white"/>
<path d="M156.072 28.0457V21.4123C156.072 18.6727 157.478 17.1547 160.114 17.1547C162.75 17.1547 164.156 18.6727 164.156 21.4123V28.0457C164.156 30.7853 162.75 32.3033 160.114 32.3033C157.478 32.3033 156.072 30.8033 156.072 28.0457ZM161.461 28.2388V21.2236C161.461 20.0425 160.927 19.5484 160.092 19.5484C159.256 19.5484 158.744 20.0425 158.744 21.2236V28.2568C158.744 29.4335 159.234 29.9275 160.092 29.9275C160.949 29.9275 161.47 29.4335 161.47 28.2568L161.461 28.2388ZM169.748 17.514H172.411L162.108 44.1285H159.454L169.748 17.514ZM167.731 40.2527V33.6147C167.731 30.8796 169.141 29.3571 171.773 29.3571C174.405 29.3571 175.815 30.8796 175.815 33.6147V40.2706C175.815 43.0057 174.409 44.5282 171.773 44.5282C169.137 44.5282 167.74 43.0057 167.74 40.2706L167.731 40.2527ZM173.12 40.4413V33.4351C173.12 32.2539 172.586 31.7599 171.751 31.7599C170.915 31.7599 170.381 32.2539 170.381 33.4351V40.4682C170.381 41.6449 170.879 42.1389 171.751 42.1389C172.622 42.1389 173.143 41.6359 173.143 40.4592L173.12 40.4413Z" fill="white"/>
<path d="M138.22 32.8962V34.4007M126.516 17.5319H137.541V21.3359H130.243L129.898 27.6819H129.974C130.34 27.058 130.872 26.5473 131.509 26.2058C132.147 25.8643 132.867 25.7053 133.589 25.7462C136.095 25.7462 137.595 27.1834 138.08 29.8377L126.516 17.5319ZM134.038 38.1373V32.1731C134.038 30.2688 133.203 29.5457 131.874 29.5457C130.544 29.5457 129.704 30.2688 129.704 32.1731V32.3976H125.752L126.336 20.9677L134.038 38.1373ZM127.171 35.7435H129.704V38.1373C129.704 40.0416 130.54 40.7242 131.874 40.7242L127.171 35.7435ZM138.22 35.8738V37.8364C138.22 42.094 136.091 44.5282 131.986 44.5282C127.881 44.5282 125.752 42.094 125.752 37.8364L138.22 35.8738Z" stroke="#263238" stroke-width="0.249266" stroke-linecap="round" stroke-linejoin="round"/>
<path d="M144.979 38.1014C144.979 40.0012 145.814 40.7243 147.148 40.7243C148.482 40.7243 149.313 40.0012 149.313 38.1014V25.9753M142.006 19.3958C143.066 17.9362 144.799 17.1502 147.13 17.1502C151.235 17.1502 153.476 19.5844 153.476 23.842V34.513L142.006 19.3958ZM140.78 23.842C140.775 23.1712 140.838 22.5016 140.968 21.8435L140.78 23.842ZM153.476 37.832C153.476 42.0896 151.231 44.5238 147.13 44.5238C143.03 44.5238 140.78 42.0896 140.78 37.832V26.7837L153.476 37.832ZM149.313 23.577C149.313 21.6773 148.477 20.9542 147.148 20.9542C145.819 20.9542 144.979 21.6773 144.979 23.577V34.4187L149.313 23.577Z" stroke="#263238" stroke-width="0.249266" stroke-linecap="round" stroke-linejoin="round"/>
<path d="M170.385 34.8318V40.4682C170.385 41.6449 170.884 42.1389 171.755 42.1389M156.072 28.0457V21.4123C156.072 18.6727 157.478 17.1547 160.114 17.1547C162.75 17.1547 164.156 18.6727 164.156 21.4123L156.072 28.0457ZM164.156 23.7701V28.0457C164.156 30.7853 162.75 32.3033 160.114 32.3033C158.237 32.3033 156.97 31.5263 156.422 30.0847L164.156 23.7701ZM161.484 25.9663V21.2236C161.484 20.0425 160.949 19.5484 160.114 19.5484C159.279 19.5484 158.767 20.0425 158.767 21.2236L161.484 25.9663ZM158.767 23.4692V28.2568C158.767 29.4335 159.256 29.9275 160.114 29.9275C160.972 29.9275 161.484 29.4335 161.484 28.2568L158.767 23.4692ZM163.536 40.5176L162.131 44.1465H159.454L168.23 21.4752L163.536 40.5176ZM168.598 27.399L164.623 37.6747L168.598 27.399ZM169.779 24.3585L169.128 26.0337L169.779 24.3585ZM168.975 19.5574L169.756 17.5319H172.42L170.43 22.6563L168.975 19.5574ZM167.735 40.2571V33.6147C167.735 30.8796 169.146 29.3571 171.778 29.3571C173.574 29.3571 174.778 30.0577 175.37 31.3647L167.735 40.2571ZM175.797 33.6102V40.2661C175.797 43.0012 174.391 44.5237 171.755 44.5237C169.689 44.5237 168.378 43.5806 167.915 41.829L175.797 33.6102ZM173.125 40.4413V33.4351C173.125 32.2539 172.59 31.7599 171.755 31.7599C170.92 31.7599 170.385 32.2539 170.385 33.4351L173.125 40.4413Z" stroke="#263238" stroke-width="0.249266" stroke-linecap="round" stroke-linejoin="round"/>
<path d="M177.787 64.1187H123.772V118.134H177.787V64.1187Z" fill="white" stroke="#263238" stroke-width="0.332354" stroke-linecap="round" stroke-linejoin="round"/>
<path d="M171.436 111.092C171.436 112.187 162.068 113.072 150.508 113.072C138.947 113.072 129.583 112.174 129.583 111.092C129.583 110.009 138.952 109.107 150.508 109.107C162.063 109.107 171.436 109.996 171.436 111.092Z" fill="#999999"/>
<path d="M167.268 110.755H134.29C133.728 110.754 133.172 110.632 132.661 110.397C132.15 110.162 131.696 109.82 131.329 109.394C130.962 108.968 130.691 108.467 130.535 107.927C130.379 107.387 130.34 106.82 130.423 106.264L133.8 84.486C133.906 83.8008 134.254 83.1762 134.78 82.7249C135.307 82.2735 135.977 82.0252 136.67 82.0248H164.888C165.582 82.0251 166.253 82.2732 166.78 82.7245C167.307 83.1758 167.655 83.8005 167.762 84.486L171.135 106.264C171.218 106.82 171.18 107.387 171.023 107.927C170.867 108.467 170.596 108.968 170.229 109.394C169.862 109.82 169.408 110.162 168.897 110.397C168.386 110.632 167.831 110.754 167.268 110.755Z" fill="#BA4D50" stroke="#263238" stroke-width="0.332354" stroke-linecap="round" stroke-linejoin="round"/>
<path d="M163.949 91.5641H137.609C136.954 91.5637 136.319 91.3382 135.81 90.9252C135.301 90.5123 134.95 89.9371 134.815 89.2961L133.728 84.1851C133.647 83.8064 133.651 83.4142 133.74 83.0373C133.83 82.6604 134.003 82.3083 134.246 82.0068C134.489 81.7053 134.797 81.4621 135.146 81.2951C135.496 81.128 135.879 81.0413 136.266 81.0413H165.292C165.68 81.0413 166.062 81.128 166.412 81.2951C166.761 81.4621 167.069 81.7053 167.312 82.0068C167.556 82.3083 167.728 82.6604 167.818 83.0373C167.908 83.4142 167.912 83.8064 167.83 84.1851L166.743 89.3095C166.605 89.9481 166.253 90.5202 165.745 90.9305C165.236 91.3407 164.603 91.5644 163.949 91.5641Z" fill="#BA4D50" stroke="#263238" stroke-width="0.332354" stroke-linecap="round" stroke-linejoin="round"/>
<path d="M154.523 92.8171H147.04C146.817 92.8171 146.636 92.998 146.636 93.2213V96.2483C146.636 96.4715 146.817 96.6525 147.04 96.6525H154.523C154.746 96.6525 154.927 96.4715 154.927 96.2483V93.2213C154.927 92.998 154.746 92.8171 154.523 92.8171Z" fill="white" stroke="#263238" stroke-width="0.332354" stroke-linecap="round" stroke-linejoin="round"/>
<path d="M139.513 82.0069C139.314 82.0057 139.123 81.9257 138.983 81.7843C138.842 81.6429 138.763 81.4517 138.763 81.2524V78.9349C138.763 78.7356 138.842 78.5444 138.983 78.403C139.123 78.2616 139.314 78.1816 139.513 78.1804C139.713 78.1804 139.905 78.2599 140.047 78.4014C140.188 78.5429 140.268 78.7348 140.268 78.9349V81.2524C140.268 81.4525 140.188 81.6444 140.047 81.7859C139.905 81.9274 139.713 82.0069 139.513 82.0069Z" fill="white" stroke="#263238" stroke-width="0.332354" stroke-linecap="round" stroke-linejoin="round"/>
<path d="M162.054 82.0069C161.854 82.0069 161.662 81.9274 161.521 81.7859C161.379 81.6444 161.3 81.4525 161.3 81.2524V78.9349C161.3 78.7348 161.379 78.5429 161.521 78.4014C161.662 78.2599 161.854 78.1804 162.054 78.1804C162.254 78.1804 162.446 78.2599 162.588 78.4014C162.729 78.5429 162.809 78.7348 162.809 78.9349V81.2524C162.809 81.4525 162.729 81.6444 162.588 81.7859C162.446 81.9274 162.254 82.0069 162.054 82.0069Z" fill="white" stroke="#263238" stroke-width="0.332354" stroke-linecap="round" stroke-linejoin="round"/>
<path d="M152.973 89.3364H148.581C148.395 89.3364 148.244 89.4872 148.244 89.6733V94.0656C148.244 94.2516 148.395 94.4024 148.581 94.4024H152.973C153.159 94.4024 153.31 94.2516 153.31 94.0656V89.6733C153.31 89.4872 153.159 89.3364 152.973 89.3364Z" fill="white" stroke="#263238" stroke-width="0.332354" stroke-linecap="round" stroke-linejoin="round"/>
<path d="M141.31 78.1804C141.965 66.0184 159.566 65.9914 160.222 78.1804C160.339 80.3182 163.68 80.3317 163.563 78.1804C163.19 71.264 157.999 65.3492 150.768 65.3851C143.537 65.421 138.345 71.2236 137.968 78.1804C137.856 80.3272 141.193 80.3227 141.31 78.1804Z" fill="#263238" stroke="#263238" stroke-width="0.332354" stroke-linecap="round" stroke-linejoin="round"/>
<path d="M128.811 93.7333C128.684 93.7335 128.558 93.7086 128.441 93.6601C128.324 93.6115 128.218 93.5402 128.128 93.4504L126.489 91.8201C126.313 91.6398 126.215 91.3981 126.215 91.1464C126.215 90.8947 126.313 90.653 126.489 90.4727L128.133 88.829C128.319 88.6957 128.546 88.6327 128.774 88.6514C129.002 88.6701 129.216 88.7692 129.378 88.931C129.54 89.0928 129.639 89.3069 129.658 89.5349C129.676 89.763 129.613 89.9903 129.48 90.1763L128.523 91.1374L129.48 92.094C129.656 92.2743 129.754 92.516 129.754 92.7677C129.754 93.0194 129.656 93.2611 129.48 93.4414C129.393 93.5321 129.29 93.6046 129.175 93.6547C129.06 93.7048 128.936 93.7316 128.811 93.7333Z" fill="#BA4D50" stroke="#263238" stroke-width="0.249266" stroke-linecap="round" stroke-linejoin="round"/>
<path d="M172.59 88.519C172.717 88.5188 172.843 88.5437 172.96 88.5923C173.077 88.6408 173.184 88.7121 173.273 88.802L174.917 90.4458C175.098 90.6271 175.199 90.8724 175.2 91.1284C175.2 91.2545 175.175 91.3794 175.126 91.4957C175.078 91.6121 175.006 91.7178 174.917 91.8066L173.273 93.4503C173.192 93.5642 173.086 93.659 172.964 93.728C172.842 93.797 172.707 93.8387 172.567 93.8502C172.428 93.8616 172.287 93.8425 172.156 93.7943C172.024 93.746 171.905 93.6697 171.806 93.5706C171.706 93.4715 171.63 93.3521 171.582 93.2206C171.534 93.089 171.514 92.9486 171.526 92.809C171.537 92.6693 171.579 92.5338 171.648 92.4119C171.717 92.29 171.812 92.1846 171.926 92.103L172.887 91.1464L171.926 90.1853C171.752 90.0039 171.655 89.7626 171.655 89.5116C171.655 89.2606 171.752 89.0193 171.926 88.8379C172.01 88.7436 172.112 88.6669 172.226 88.6122C172.34 88.5575 172.464 88.5258 172.59 88.519Z" fill="#BA4D50" stroke="#263238" stroke-width="0.249266" stroke-linecap="round" stroke-linejoin="round"/>
<path d="M171.899 124.125H134.326C132.158 124.125 130.401 125.882 130.401 128.05V131.652C130.401 133.82 132.158 135.577 134.326 135.577H171.899C174.067 135.577 175.824 133.82 175.824 131.652V128.05C175.824 125.882 174.067 124.125 171.899 124.125Z" fill="#999999" stroke="#263238" stroke-width="0.249266" stroke-linecap="round" stroke-linejoin="round"/>
<path d="M169.487 124.125H131.914C129.746 124.125 127.989 125.882 127.989 128.05V131.652C127.989 133.82 129.746 135.577 131.914 135.577H169.487C171.655 135.577 173.412 133.82 173.412 131.652V128.05C173.412 125.882 171.655 124.125 169.487 124.125Z" fill="#263238" stroke="#263238" stroke-width="0.332354" stroke-linecap="round" stroke-linejoin="round"/>
<path d="M138.363 126.734H139.805C140.793 126.734 141.22 127.183 141.22 128.131V128.374C141.22 128.998 141.027 129.389 140.604 129.564C141.116 129.734 141.314 130.188 141.314 130.83V131.351C141.338 131.547 141.317 131.746 141.253 131.933C141.188 132.119 141.082 132.288 140.942 132.428C140.802 132.567 140.632 132.672 140.445 132.735C140.258 132.799 140.059 132.818 139.863 132.793H138.363V126.734ZM139.711 129.209C140.065 129.209 140.281 129.052 140.281 128.567V128.225C140.281 127.776 140.133 127.601 139.796 127.601H139.347V129.209H139.711ZM139.881 131.944C140.205 131.944 140.375 131.796 140.375 131.342V130.812C140.375 130.251 140.196 130.076 139.76 130.076H139.333V131.944H139.881Z" fill="white"/>
<path d="M141.835 131.369V126.734H142.787V131.436C142.787 131.886 142.971 132.029 143.277 132.029C143.582 132.029 143.762 131.872 143.762 131.436V126.734H144.682V131.369C144.682 132.339 144.197 132.896 143.259 132.896C142.32 132.896 141.835 132.339 141.835 131.369Z" fill="white"/>
<path d="M146.25 130.224L145.096 126.734H146.111L146.762 128.98L147.413 126.734H148.338L147.184 130.224V132.811H146.25V130.224Z" fill="white"/>
<path d="M150.166 126.734H151.365L152.295 130.372V126.734H153.148V132.811H152.178L151.033 128.374V132.811H150.184L150.166 126.734Z" fill="white"/>
<path d="M153.804 131.369V128.198C153.804 127.224 154.316 126.667 155.25 126.667C156.184 126.667 156.701 127.224 156.701 128.198V131.392C156.701 132.362 156.189 132.919 155.25 132.919C154.311 132.919 153.804 132.339 153.804 131.369ZM155.749 131.427V128.113C155.749 127.664 155.556 127.516 155.25 127.516C154.945 127.516 154.756 127.677 154.756 128.113V131.427C154.756 131.877 154.949 132.029 155.25 132.029C155.551 132.029 155.749 131.863 155.749 131.427Z" fill="white"/>
<path d="M157.118 126.734H158.039L158.461 131.405L158.91 126.734H159.952L160.401 131.405L160.828 126.734H161.654L161.071 132.811H159.88L159.431 128.71L158.982 132.811H157.716L157.118 126.734Z" fill="white"/>
<path d="M141.31 56.7037V50.4431C141.31 48.5388 142.311 47.452 144.148 47.452C145.985 47.452 146.991 48.5388 146.991 50.4431V56.7037C146.991 58.608 145.985 59.6948 144.148 59.6948C142.311 59.6948 141.31 58.608 141.31 56.7037ZM145.118 56.8205V50.3263C145.118 49.4775 144.745 49.1541 144.148 49.1541C143.551 49.1541 143.178 49.4775 143.178 50.3263V56.8205C143.178 57.6738 143.555 57.9972 144.148 57.9972C144.741 57.9972 145.118 57.6873 145.118 56.8205Z" fill="black"/>
<path d="M148.163 47.6226H153.103V49.3248H150.022V52.6392H152.439V54.3414H150.022V59.5242H148.154L148.163 47.6226Z" fill="black"/>
<path d="M154.073 47.6226H159.014V49.3248H155.937V52.6392H158.376V54.3414H155.964V59.5242H154.091L154.073 47.6226Z" fill="black"/>
<path d="M138.772 106.668L124.805 140.392" stroke="white" stroke-width="0.249266" stroke-linecap="round" stroke-linejoin="round"/>
<path d="M168.081 35.9097L146.65 87.6523" stroke="white" stroke-width="0.249266" stroke-linecap="round" stroke-linejoin="round"/>
<path d="M175.236 18.6368L170.116 30.9919" stroke="white" stroke-width="0.249266" stroke-linecap="round" stroke-linejoin="round"/>
<path d="M123.924 86.1252L120.816 93.63" stroke="white" stroke-width="0.249266" stroke-linecap="round" stroke-linejoin="round"/>
<path d="M144.368 36.7675L126.372 80.2149" stroke="white" stroke-width="0.249266" stroke-linecap="round" stroke-linejoin="round"/>
<path d="M151.819 18.785L147.386 29.4919" stroke="white" stroke-width="0.249266" stroke-linecap="round" stroke-linejoin="round"/>
<path d="M172.519 106.515L158.488 140.392" stroke="white" stroke-width="0.249266" stroke-linecap="round" stroke-linejoin="round"/>
<path d="M177.526 94.4204L174.531 101.656" stroke="white" stroke-width="0.249266" stroke-linecap="round" stroke-linejoin="round"/>
<path d="M92.5087 38.8514C92.5087 39.2467 92.6749 39.5655 92.8815 39.5655C93.0881 39.5655 93.2498 39.2467 93.2498 38.8514C93.2498 38.4562 93.0836 38.1418 92.8815 38.1418C92.6794 38.1418 92.5087 38.4607 92.5087 38.8514Z" fill="#263238"/>
<path d="M94.3861 43.2797C94.1108 43.334 93.8258 43.3111 93.5627 43.2136C93.2996 43.1161 93.0685 42.9478 92.895 42.7273" stroke="#263238" stroke-width="0.249266" stroke-linecap="round" stroke-linejoin="round"/>
<path d="M92.8816 36.543C92.8816 36.543 92.3202 35.6447 91.1749 36.543" stroke="#263238" stroke-width="0.332354" stroke-linecap="round" stroke-linejoin="round"/>
<path d="M85.8304 53.259C88.6419 52.9492 84.6268 44.2363 84.6268 44.2363L85.1478 42.2467C85.1478 42.2467 87.6538 39.323 88.4308 37.0595C89.2078 34.7959 91.4084 31.8722 91.7947 32.9186C92.1809 33.9651 90.0297 35.4606 90.5282 35.9501C90.7438 36.1612 92.3651 35.6178 94.0133 34.5175C94.2693 35.8648 94.3097 37.2122 94.3861 37.6613C94.5478 38.6179 97.4266 39.0984 97.5299 39.9832C97.6332 40.868 96.0254 41.6764 96.0254 41.6764C96.0254 41.6764 96.0613 46.6166 95.1271 47.6002C94.193 48.5838 89.1 48.1301 89.1 48.1301C87.3395 49.8323 87.1598 54.6693 87.1598 54.6693C87.1598 54.6693 85.9158 54.6199 84.3528 54.4043C84.4525 54.0852 84.6476 53.8044 84.9118 53.5996C85.176 53.3948 85.4966 53.276 85.8304 53.259V53.259Z" stroke="#263238" stroke-width="0.332354" stroke-linecap="round" stroke-linejoin="round"/>
<path d="M92.5627 90.7511L76.3452 88.2002C77.2703 86.4396 77.6341 84.1581 76.9739 78.3196C75.8916 68.758 72.2492 56.1378 75.8961 53.9192C79.5429 51.7006 84.2765 53.021 84.2765 53.021C84.2765 53.021 88.6824 53.1917 91.1749 56.569C93.6675 59.9463 96.7664 62.9419 96.7664 66.8986C96.7664 70.8553 92.2079 77.9603 92.2079 85.9815C92.1994 87.5783 92.3181 89.1732 92.5627 90.7511Z" fill="#BA4D50" stroke="#263238" stroke-width="0.332354" stroke-linecap="round" stroke-linejoin="round"/>
<path d="M108.794 67.5679C108.794 67.5679 101.442 81.0413 98.3069 81.2973C95.1721 81.5533 89.877 72.5081 87.865 69.1577C85.853 65.8073 84.7975 61.4419 85.4398 57.7547C86.082 54.0674 89.7153 57.3056 92.0867 62.0662C94.458 66.8268 98.2261 74.3495 98.2261 74.3495L106.813 64.5767C106.813 64.5767 106.97 61.6171 108.794 60.0137C110.617 58.4104 113.797 56.5286 114.762 57.4628C115.728 58.3969 112.436 58.1185 111.291 59.9643C111.291 59.9643 111.798 58.8999 112.584 60.6784C113.37 62.4569 114.74 63.2384 113.59 64.5992C112.441 65.96 112.818 64.3567 112.059 65.0483C111.3 65.74 112.292 66.454 108.794 67.5679Z" fill="white" stroke="#263238" stroke-width="0.332354" stroke-linecap="round" stroke-linejoin="round"/>
<path d="M98.1946 131.207C98.1946 131.207 99.241 138.393 97.503 153.151C95.7649 167.909 94.3861 175.885 94.3861 175.885C94.3861 175.885 98.8773 179.874 100.849 180.552C102.82 181.23 104.94 181.306 104.406 182.64C103.957 183.808 95.3247 182.64 92.9534 182.64C90.5821 182.64 87.3979 181.993 87.8021 180.224C88.2063 178.454 89.5985 175.674 89.5985 175.674C89.5985 175.674 89.3425 166.854 89.2842 157.71C89.2482 151.593 88.6958 145.328 88.9698 141.434C89.6569 131.71 91.8037 128.616 91.8037 128.616L98.1946 131.207Z" fill="white" stroke="#263238" stroke-width="0.332354" stroke-linecap="round" stroke-linejoin="round"/>
<path d="M83.2615 131.369C83.76 135.622 82.242 138.555 76.4125 152.226C70.583 165.897 66.9452 172.769 66.9452 172.769C66.9452 172.769 70.6144 178.378 72.3345 179.582C74.0546 180.785 75.8152 181.517 74.7373 182.465C73.2103 183.812 66.029 179.896 63.7475 179.236C61.466 178.576 58.6051 177.049 59.4898 175.463C60.4155 173.99 61.434 172.577 62.5393 171.233C62.5393 171.233 65.1128 161.496 67.8524 152.132C69.3569 146.994 70.309 141.968 71.5172 138.73C74.917 129.591 77.8721 127.053 77.8721 127.053C77.8721 127.053 83.0594 129.649 83.2615 131.369Z" fill="white" stroke="#263238" stroke-width="0.332354" stroke-linecap="round" stroke-linejoin="round"/>
<path d="M69.6758 110.454C69.3793 104.566 70.053 98.1616 74.0232 91.7258C75.8197 88.793 77.2164 88.0969 77.3017 83.7405C84.9008 82.73 89.9848 84.1222 92.2348 84.98C92.2348 85.3124 92.2079 85.6402 92.2079 85.9771C92.2079 93.9893 94.6555 97.0792 99.1422 113.346C103.629 129.613 106.297 135.11 101.478 134.176C96.6586 133.242 91.9519 132.519 87.1778 134.176C82.4037 135.833 83.0819 132.456 76.7493 132.937C70.4168 133.417 68.27 131.383 68.3194 128.122C68.3688 124.861 69.9722 116.342 69.6758 110.454Z" fill="#263238" stroke="#263238" stroke-width="0.332354" stroke-linecap="round" stroke-linejoin="round"/>
<path d="M83.6568 84.2345C86.1526 84.4173 88.6259 84.8323 91.0447 85.4741V87.9083C88.53 87.0006 85.9016 86.4459 83.2346 86.26L83.6568 84.2345Z" fill="#BA4D50" stroke="#263238" stroke-width="0.332354" stroke-linecap="round" stroke-linejoin="round"/>
<path d="M81.7705 86.1657C80.3648 86.1028 79.0758 86.1118 77.953 86.1657C78.0793 85.5733 78.1663 84.9731 78.2135 84.3692C79.3048 84.2839 80.6657 84.221 82.2241 84.2255L81.7705 86.1657Z" fill="#BA4D50" stroke="#263238" stroke-width="0.332354" stroke-linecap="round" stroke-linejoin="round"/>
<path d="M85.4398 57.7547C86.0865 54.0674 89.7153 57.3056 92.0867 62.0662C92.4011 62.7039 92.7424 63.3866 93.0972 64.1007C91.9012 64.4964 90.8098 65.1566 89.9039 66.0321C88.9981 66.9076 88.3012 67.9759 87.865 69.1577C85.853 65.8298 84.7975 61.4419 85.4398 57.7547Z" fill="#BA4D50" stroke="#263238" stroke-width="0.249266" stroke-linecap="round" stroke-linejoin="round"/>
<path d="M87.8066 180.224C88.2063 178.454 89.603 175.674 89.603 175.674C91.3995 176.411 93.6136 178.104 93.3936 177.224C93.1735 176.344 94.4041 175.876 94.4041 175.876C94.4041 175.876 98.8952 179.865 100.867 180.543C102.838 181.221 104.958 181.297 104.424 182.631C103.975 183.799 95.3427 182.631 92.9714 182.631C90.6001 182.631 87.4159 181.993 87.8066 180.224Z" fill="#BA4D50" stroke="#263238" stroke-width="0.249266" stroke-linecap="round" stroke-linejoin="round"/>
<path d="M92.9579 182.64C90.5821 182.64 87.4024 181.993 87.8066 180.224C87.8515 180.017 87.9144 179.797 87.9862 179.568C88.0356 181.436 92.4774 181.49 93.5642 181.558C94.6511 181.625 96.3981 181.715 101.037 182.079C102.798 182.222 103.804 182.079 104.379 181.886C104.448 181.998 104.488 182.127 104.493 182.259C104.499 182.391 104.47 182.522 104.41 182.64C103.943 183.808 95.3292 182.631 92.9579 182.64Z" fill="white" stroke="#263238" stroke-width="0.249266" stroke-linecap="round" stroke-linejoin="round"/>
<path d="M64.1562 173.074C64.7086 173.932 65.8673 174.421 65.8673 173.433C65.8673 172.445 66.9452 172.769 66.9452 172.769C66.9452 172.769 70.6144 178.378 72.3345 179.582C74.0546 180.785 75.8152 181.517 74.7373 182.465C73.2103 183.812 66.029 179.896 63.7475 179.236C61.466 178.576 58.6051 177.049 59.4898 175.463C60.4155 173.99 61.434 172.577 62.5393 171.233C63.141 171.788 63.6829 172.405 64.1562 173.074Z" fill="#BA4D50" stroke="#263238" stroke-width="0.249266" stroke-linecap="round" stroke-linejoin="round"/>
<path d="M86.4233 27.8571C86.4233 27.8571 96.1062 22.7911 97.5389 27.8571C98.9716 32.9231 91.0222 36.4397 90.5282 35.9412C90.0342 35.4426 92.1854 33.9606 91.7947 32.9096C91.404 31.8587 89.2033 34.7869 88.4309 37.0505C87.6584 39.314 85.1703 42.2467 85.1703 42.2467L84.6493 44.2363C84.6493 44.2363 88.6644 52.9492 85.8529 53.259C83.0415 53.5689 84.3843 57.9837 84.6493 65.9915C84.9143 73.9992 81.7211 80.3631 71.3959 77.5202C61.0708 74.6773 71.5037 67.3163 70.6189 59.9194C69.7342 52.5225 65.8718 37.6478 75.9185 30.2149C84.272 24.0037 86.4233 27.8571 86.4233 27.8571Z" fill="#263238" stroke="#263238" stroke-width="0.332354" stroke-linecap="round" stroke-linejoin="round"/>
<path d="M73.5651 75.0725C71.2072 74.3629 69.7206 72.2162 70.6324 70.8509C72.2537 68.4211 77.1086 68.9376 77.1086 68.9376" stroke="#7F7F7F" stroke-width="0.332354" stroke-linecap="round" stroke-linejoin="round"/>
<path d="M75.0786 41.2946C74.4094 49.3787 84.5998 68.2056 79.9066 73.065C79.2097 73.8128 78.3697 74.413 77.4365 74.83" stroke="#7F7F7F" stroke-width="0.332354" stroke-linecap="round" stroke-linejoin="round"/>
<path d="M84.052 32.0204C81.2809 32.6177 77.4589 34.1941 75.6849 38.8514" stroke="#7F7F7F" stroke-width="0.332354" stroke-linecap="round" stroke-linejoin="round"/>
<path d="M93.2812 33.6731C93.2812 33.6731 94.8801 30.2239 93.2812 28.2837C91.9025 26.6175 90.3665 30.0083 87.1957 31.3108" stroke="#7F7F7F" stroke-width="0.332354" stroke-linecap="round" stroke-linejoin="round"/>
<path d="M72.5232 46.41C73.2463 51.4985 75.6176 62.8117 73.8705 64.3746" stroke="#7F7F7F" stroke-width="0.332354" stroke-linecap="round" stroke-linejoin="round"/>
<path d="M83.293 29.8422C80.473 30.2994 77.8707 31.6391 75.8601 33.6686C72.9589 36.507 72.4873 40.0416 72.375 42.7228" stroke="#7F7F7F" stroke-width="0.332354" stroke-linecap="round" stroke-linejoin="round"/>
<path d="M80.2928 43.8635C79.7225 41.1958 80.9081 37.8499 84.6268 35.9501" stroke="#7F7F7F" stroke-width="0.332354" stroke-linecap="round" stroke-linejoin="round"/>
<path d="M84.6268 51.7545C84.6268 51.7545 84.3708 49.7604 81.4156 46.2259" stroke="#7F7F7F" stroke-width="0.332354" stroke-linecap="round" stroke-linejoin="round"/>
<path d="M86.4233 41.847C86.4233 41.847 85.1702 39.5655 83.6253 40.2616C82.0803 40.9578 82.8348 45.157 85.5834 45.3052" fill="white"/>
<path d="M86.4233 41.847C86.4233 41.847 85.1702 39.5655 83.6253 40.2616C82.0803 40.9578 82.8348 45.157 85.5834 45.3052" stroke="#263238" stroke-width="0.332354" stroke-linecap="round" stroke-linejoin="round"/>
<path d="M98.5674 120.298C99.5914 124.085 100.211 127.686 100.076 130.606" stroke="#7F7F7F" stroke-width="0.332354" stroke-linecap="round" stroke-linejoin="round"/>
<path d="M88.1613 94.5866C88.1613 94.5866 94.3726 106.488 97.8353 117.756" stroke="#7F7F7F" stroke-width="0.332354" stroke-linecap="round" stroke-linejoin="round"/>
<path d="M76.3811 114.235C78.3688 117.834 80.6426 121.268 83.1807 124.502C85.8979 128.095 84.1777 127.938 80.7555 127.938C77.3332 127.938 77.221 126.613 77.6611 124.623" stroke="#7F7F7F" stroke-width="0.332354" stroke-linecap="round" stroke-linejoin="round"/>
<path d="M72.348 102.343C72.766 105.487 73.6594 108.549 74.9978 111.424" stroke="#7F7F7F" stroke-width="0.332354" stroke-linecap="round" stroke-linejoin="round"/>
<path d="M59.4719 175.463C59.5527 175.315 59.6516 175.153 59.7548 174.987C59.2788 176.6 62.6651 177.574 64.5963 178.18C66.5275 178.787 70.5022 180.664 72.7118 181.603C74.9215 182.541 74.8137 181.428 74.8092 181.369C74.8908 181.439 74.9546 181.527 74.9955 181.626C75.0364 181.725 75.0532 181.833 75.0444 181.94C75.0356 182.047 75.0016 182.15 74.9451 182.242C74.8886 182.333 74.8112 182.409 74.7194 182.465C73.1924 183.812 66.011 179.896 63.7295 179.236C61.448 178.576 58.5871 177.049 59.4719 175.463Z" fill="white" stroke="#263238" stroke-width="0.249266" stroke-linecap="round" stroke-linejoin="round"/>
</svg>
