<svg width="250" height="187" viewBox="0 0 250 187" fill="none" xmlns="http://www.w3.org/2000/svg">
<path d="M250 163.7H0V163.825H250V163.7Z" fill="#EBEBEB"/>
<path d="M224.95 171.745H208.39V171.87H224.95V171.745Z" fill="#EBEBEB"/>
<path d="M165.61 173.105H161.265V173.23H165.61V173.105Z" fill="#EBEBEB"/>
<path d="M207.89 167.105H198.295V167.23H207.89V167.105Z" fill="#EBEBEB"/>
<path d="M47.825 167.945H26.23V168.07H47.825V167.945Z" fill="#EBEBEB"/>
<path d="M55.445 167.945H52.28V168.07H55.445V167.945Z" fill="#EBEBEB"/>
<path d="M112.575 170.055H65.735V170.18H112.575V170.055Z" fill="#EBEBEB"/>
<path d="M118.5 141.4H21.955C21.1987 141.399 20.4738 141.097 19.9394 140.562C19.4051 140.027 19.105 139.301 19.105 138.545V2.83C19.1116 2.07801 19.4146 1.35899 19.9482 0.829109C20.4818 0.299229 21.203 0.00128819 21.955 0H118.5C119.257 0 119.983 0.300794 120.519 0.83621C121.054 1.37163 121.355 2.09781 121.355 2.855V138.545C121.355 139.302 121.054 140.028 120.519 140.564C119.983 141.099 119.257 141.4 118.5 141.4ZM21.955 0.1C21.2318 0.101325 20.5387 0.389533 20.0278 0.901363C19.5169 1.41319 19.23 2.10682 19.23 2.83V138.545C19.23 139.268 19.5169 139.962 20.0278 140.474C20.5387 140.985 21.2318 141.274 21.955 141.275H118.5C119.224 141.274 119.917 140.986 120.429 140.474C120.941 139.962 121.229 139.269 121.23 138.545V2.83C121.229 2.10636 120.941 1.41275 120.429 0.901058C119.917 0.38937 119.224 0.101322 118.5 0.1H21.955Z" fill="#EBEBEB"/>
<path d="M226.655 141.4H130.105C129.348 141.399 128.623 141.097 128.088 140.562C127.553 140.027 127.251 139.302 127.25 138.545V2.83C127.258 2.07756 127.562 1.35854 128.096 0.828796C128.631 0.299054 129.353 0.00127414 130.105 0H226.655C227.406 0.00260225 228.126 0.301125 228.659 0.830864C229.191 1.3606 229.493 2.07888 229.5 2.83V138.545C229.5 139.3 229.201 140.025 228.667 140.56C228.134 141.095 227.41 141.397 226.655 141.4ZM130.105 0.1C129.381 0.101322 128.688 0.38937 128.176 0.901058C127.664 1.41275 127.376 2.10636 127.375 2.83V138.545C127.376 139.269 127.664 139.962 128.176 140.474C128.688 140.986 129.381 141.274 130.105 141.275H226.655C227.379 141.274 228.072 140.986 228.584 140.474C229.096 139.962 229.384 139.269 229.385 138.545V2.83C229.384 2.10636 229.096 1.41275 228.584 0.901058C228.072 0.38937 227.379 0.101322 226.655 0.1H130.105Z" fill="#EBEBEB"/>
<path d="M83.41 19.935H49.15V116.135H83.41V19.935Z" fill="#FAFAFA"/>
<path d="M78.31 19.935H76.305L64.36 116.135H66.36L78.31 19.935Z" fill="#F5F5F5"/>
<path d="M82.805 20.38H48.935V21.405H82.805V20.38Z" fill="#E0E0E0"/>
<path d="M82.805 115.115H48.935V117.305H82.805V115.115Z" fill="#EBEBEB"/>
<path d="M82.24 117.21H50.235V117.305H82.24V117.21Z" fill="#EBEBEB"/>
<path d="M50.235 20.385H82.24V117.21H84.155V18.945H48.32V117.21H50.235V20.385Z" fill="#EBEBEB"/>
<path d="M121.535 19.935H87.275V116.135H121.535V19.935Z" fill="#FAFAFA"/>
<path d="M112.03 19.935H101.105L89.16 116.135H100.08L112.03 19.935Z" fill="#F5F5F5"/>
<path d="M121.885 20.38H87.055V21.405H121.885V20.38Z" fill="#E0E0E0"/>
<path d="M121.885 115.115H87.055V117.305H121.885V115.115Z" fill="#EBEBEB"/>
<path d="M120.36 117.21H88.355V117.305H120.36V117.21Z" fill="#EBEBEB"/>
<path d="M88.355 20.385H120.36V117.21H122.28V18.945H86.44V117.21H88.355V20.385Z" fill="#EBEBEB"/>
<path d="M158.69 19.935H125.395V116.135H158.69V19.935Z" fill="#FAFAFA"/>
<path d="M144.26 19.935H142.255L130.31 116.135H132.31L144.26 19.935Z" fill="#F5F5F5"/>
<path d="M159.045 20.38H125.175V21.405H159.045V20.38Z" fill="#E0E0E0"/>
<path d="M159.045 115.115H125.175V117.305H159.045V115.115Z" fill="#EBEBEB"/>
<path d="M158.48 117.21H126.475V117.305H158.48V117.21Z" fill="#EBEBEB"/>
<path d="M126.475 20.385H158.48V117.21H160.4V18.945H124.56V117.21H126.475V20.385Z" fill="#EBEBEB"/>
<path d="M197.775 19.935H163.515V116.135H197.775V19.935Z" fill="#FAFAFA"/>
<path d="M194.42 19.935H183.5L171.55 116.135H182.47L194.42 19.935Z" fill="#F5F5F5"/>
<path d="M197.165 20.38H163.295V21.405H197.165V20.38Z" fill="#E0E0E0"/>
<path d="M197.165 115.115H163.295V117.305H197.165V115.115Z" fill="#EBEBEB"/>
<path d="M164.6 20.385H196.605V117.21H198.52V18.945H162.68V117.21H164.6V20.385Z" fill="#EBEBEB"/>
<path d="M196.605 117.21H164.6V117.305H196.605V117.21Z" fill="#EBEBEB"/>
<path d="M75.215 89.405H60.34V115.12H75.215V89.405Z" fill="#EBEBEB"/>
<path d="M72.36 85.81V92.26H71.1849H64.37H63.2V85.81H72.36Z" fill="#EBEBEB"/>
<path d="M72.355 92.26H74.26V90.355H72.355V92.26Z" fill="#FAFAFA"/>
<path d="M68.67 92.26H70.575V90.355H68.67V92.26Z" fill="#FAFAFA"/>
<path d="M64.985 92.26H66.89V90.355H64.985V92.26Z" fill="#FAFAFA"/>
<path d="M61.29 92.26H63.195V90.355H61.29V92.26Z" fill="#F0F0F0"/>
<path d="M72.355 95.72H74.26V93.815H72.355V95.72Z" fill="#F0F0F0"/>
<path d="M68.67 95.72H70.575V93.815H68.67V95.72Z" fill="#F0F0F0"/>
<path d="M64.985 95.72H66.89V93.815H64.985V95.72Z" fill="#FAFAFA"/>
<path d="M61.29 95.72H63.195V93.815H61.29V95.72Z" fill="#FAFAFA"/>
<path d="M72.355 99.175H74.26V97.27H72.355V99.175Z" fill="#F0F0F0"/>
<path d="M68.67 99.175H70.575V97.27H68.67V99.175Z" fill="#FAFAFA"/>
<path d="M64.985 99.175H66.89V97.27H64.985V99.175Z" fill="#FAFAFA"/>
<path d="M68.67 89.27H70.575V87.365H68.67V89.27Z" fill="#FAFAFA"/>
<path d="M64.985 89.27H66.89V87.365H64.985V89.27Z" fill="#F0F0F0"/>
<path d="M61.29 99.175H63.195V97.27H61.29V99.175Z" fill="#F0F0F0"/>
<path d="M72.355 102.635H74.26V100.73H72.355V102.635Z" fill="#FAFAFA"/>
<path d="M68.67 102.635H70.575V100.73H68.67V102.635Z" fill="#F0F0F0"/>
<path d="M64.985 102.635H66.89V100.73H64.985V102.635Z" fill="#F0F0F0"/>
<path d="M61.29 102.635H63.195V100.73H61.29V102.635Z" fill="#FAFAFA"/>
<path d="M72.355 106.095H74.26V104.19H72.355V106.095Z" fill="#F0F0F0"/>
<path d="M68.67 106.095H70.575V104.19H68.67V106.095Z" fill="#FAFAFA"/>
<path d="M64.985 106.095H66.89V104.19H64.985V106.095Z" fill="#FAFAFA"/>
<path d="M61.29 106.095H63.195V104.19H61.29V106.095Z" fill="#F0F0F0"/>
<path d="M72.355 109.555H74.26V107.65H72.355V109.555Z" fill="#F0F0F0"/>
<path d="M68.67 109.555H70.575V107.65H68.67V109.555Z" fill="#FAFAFA"/>
<path d="M64.985 109.555H66.89V107.65H64.985V109.555Z" fill="#F0F0F0"/>
<path d="M61.29 109.555H63.195V107.65H61.29V109.555Z" fill="#FAFAFA"/>
<path d="M72.355 113.015H74.26V111.11H72.355V113.015Z" fill="#FAFAFA"/>
<path d="M68.67 113.015H70.575V111.11H68.67V113.015Z" fill="#FAFAFA"/>
<path d="M64.985 113.015H66.89V111.11H64.985V113.015Z" fill="#F0F0F0"/>
<path d="M61.29 113.015H63.195V111.11H61.29V113.015Z" fill="#F0F0F0"/>
<path d="M179.975 98.77H166.65V115.12H179.975V98.77Z" fill="#F0F0F0"/>
<path d="M167.81 100.585H170.91H171.765H172.615V102.29H171.765H170.91H167.81V100.585Z" fill="#E6E6E6"/>
<path d="M167.81 103.89H170.91H171.765H172.615V105.595H171.765H170.91H167.81V103.89Z" fill="#FAFAFA"/>
<path d="M167.81 107.19H170.91H171.765H172.615V108.9H171.765H170.91H167.81V107.19Z" fill="#E6E6E6"/>
<path d="M167.81 110.495H170.91H172.23H172.615V112.2H172.23H170.91H167.81V110.495Z" fill="#FAFAFA"/>
<path d="M174.01 100.585H177.11H177.96H178.815V102.29H177.96H177.11H174.01V100.585Z" fill="#FAFAFA"/>
<path d="M174.01 103.89H177.11H178.31H178.815V105.595H178.31H177.11H174.01V103.89Z" fill="#FAFAFA"/>
<path d="M174.01 107.19H177.11H177.96H178.815V108.9H177.96H177.11H174.01V107.19Z" fill="#E6E6E6"/>
<path d="M174.01 110.495H177.11H177.96H178.815V112.2H177.96H177.11H174.01V110.495Z" fill="#FAFAFA"/>
<path d="M115.775 104.96H103.67V115.12H115.775V104.96Z" fill="#F0F0F0"/>
<path d="M113.455 107.78H115.005V106.23H113.455V107.78Z" fill="#FAFAFA"/>
<path d="M110.45 107.78H112V106.23H110.45V107.78Z" fill="#FAFAFA"/>
<path d="M107.445 107.78H108.995V106.23H107.445V107.78Z" fill="#FAFAFA"/>
<path d="M104.445 107.78H105.995V106.23H104.445V107.78Z" fill="#FAFAFA"/>
<path d="M113.455 110.59H115.005V109.04H113.455V110.59Z" fill="#FAFAFA"/>
<path d="M110.45 110.59H112V109.04H110.45V110.59Z" fill="#FAFAFA"/>
<path d="M107.445 110.59H108.995V109.04H107.445V110.59Z" fill="#FAFAFA"/>
<path d="M104.445 110.59H105.995V109.04H104.445V110.59Z" fill="#E6E6E6"/>
<path d="M113.455 113.41H115.005V111.86H113.455V113.41Z" fill="#E6E6E6"/>
<path d="M110.45 113.41H112V111.86H110.45V113.41Z" fill="#E6E6E6"/>
<path d="M107.445 113.41H108.995V111.86H107.445V113.41Z" fill="#FAFAFA"/>
<path d="M104.445 113.41H105.995V111.86H104.445V113.41Z" fill="#E6E6E6"/>
<path d="M102.03 97.45H89.925V115.12H102.03V97.45Z" fill="#F0F0F0"/>
<path d="M101.255 98.225H96.705V102.59H101.255V98.225Z" fill="#FAFAFA"/>
<path d="M95.25 98.225H90.7V102.59H95.25V98.225Z" fill="#FAFAFA"/>
<path d="M101.255 103.855H96.705V108.22H101.255V103.855Z" fill="#FAFAFA"/>
<path d="M95.25 103.855H90.7V108.22H95.25V103.855Z" fill="#FAFAFA"/>
<path d="M101.255 109.49H96.705V113.855H101.255V109.49Z" fill="#FAFAFA"/>
<path d="M95.25 109.49H90.7V113.855H95.25V109.49Z" fill="#FAFAFA"/>
<path d="M162.695 160.46H152L157.63 114.6C157.769 113.645 158.241 112.77 158.963 112.129C159.685 111.489 160.61 111.124 161.575 111.1H208.3L201.445 160.475L162.695 160.46Z" fill="#F5F5F5"/>
<path d="M196.665 160.46H207.38L213 114.6C213.066 114.16 213.035 113.712 212.909 113.286C212.783 112.859 212.565 112.466 212.272 112.132C211.978 111.799 211.615 111.534 211.207 111.356C210.8 111.177 210.359 111.09 209.915 111.1H206.235C205.27 111.123 204.344 111.487 203.622 112.128C202.9 112.769 202.428 113.645 202.29 114.6L196.665 160.46Z" fill="#F0F0F0"/>
<path d="M192.72 160.405L194.66 138.225C194.703 137.744 194.908 137.292 195.243 136.944C195.578 136.595 196.021 136.372 196.5 136.31L197.3 136.21C197.942 136.127 198.536 135.828 198.984 135.361C199.432 134.895 199.708 134.289 199.765 133.645L200.12 129.6C200.154 129.208 200.106 128.814 199.98 128.441C199.853 128.069 199.651 127.727 199.385 127.437C199.12 127.147 198.797 126.915 198.437 126.757C198.077 126.598 197.688 126.516 197.295 126.515H215.195C215.587 126.518 215.973 126.603 216.331 126.763C216.688 126.923 217.008 127.155 217.272 127.444C217.535 127.734 217.736 128.075 217.861 128.446C217.987 128.817 218.034 129.21 218 129.6L217.645 133.645C217.588 134.289 217.312 134.895 216.864 135.361C216.416 135.828 215.822 136.127 215.18 136.21L214.38 136.31C213.901 136.372 213.458 136.595 213.123 136.944C212.788 137.292 212.583 137.744 212.54 138.225L210.6 160.405C210.532 161.186 210.174 161.913 209.597 162.442C209.019 162.972 208.264 163.265 207.48 163.265H189.6C190.384 163.265 191.139 162.972 191.717 162.442C192.294 161.913 192.652 161.186 192.72 160.405Z" fill="#E6E6E6"/>
<path d="M143.46 132.67C143.315 130.987 142.544 129.42 141.3 128.278C140.056 127.136 138.429 126.501 136.74 126.5H152.325C154.012 126.501 155.637 127.133 156.88 128.272C158.124 129.412 158.896 130.975 159.045 132.655L160.58 150.24H145L143.46 132.67Z" fill="#E6E6E6"/>
<path d="M129.82 126.5H136.74C138.427 126.501 140.052 127.133 141.295 128.272C142.539 129.412 143.311 130.975 143.46 132.655L145 150.255H182.12L183.655 132.67C183.8 130.988 184.57 129.422 185.813 128.28C187.056 127.137 188.682 126.503 190.37 126.5H197.295C197.688 126.501 198.077 126.583 198.437 126.742C198.797 126.9 199.119 127.132 199.385 127.422C199.651 127.712 199.853 128.054 199.98 128.426C200.106 128.799 200.154 129.193 200.12 129.585L199.765 133.63C199.708 134.274 199.432 134.88 198.984 135.346C198.536 135.813 197.942 136.112 197.3 136.195L196.5 136.295C196.021 136.357 195.578 136.58 195.243 136.929C194.908 137.277 194.703 137.729 194.66 138.21L192.72 160.39C192.652 161.171 192.294 161.898 191.717 162.427C191.139 162.957 190.384 163.25 189.6 163.25H137.5C136.716 163.25 135.961 162.957 135.383 162.427C134.806 161.898 134.448 161.171 134.38 160.39L132.44 138.21C132.398 137.729 132.193 137.276 131.858 136.928C131.523 136.579 131.079 136.356 130.6 136.295L129.805 136.195C129.162 136.113 128.567 135.814 128.118 135.348C127.669 134.881 127.392 134.275 127.335 133.63L127 129.6C126.964 129.207 127.01 128.812 127.135 128.438C127.26 128.064 127.462 127.721 127.727 127.429C127.992 127.137 128.316 126.904 128.676 126.744C129.036 126.584 129.426 126.501 129.82 126.5Z" fill="#F0F0F0"/>
<path d="M77.62 123.61H28.925C28.9255 124.47 29.258 125.297 29.8532 125.919C30.4484 126.54 31.2604 126.908 32.12 126.945C37.355 127.185 45.405 128.01 47.955 130.905C52.715 136.305 52.255 155.265 46.555 159.655C44.765 161.03 39.555 163.765 39.555 163.765H67C67 163.765 62.13 160.975 60.435 159.655C54.77 155.23 54.605 136.28 59.385 130.905C61.84 128.15 69.385 127.26 74.445 126.98C75.3046 126.93 76.1124 126.553 76.7029 125.927C77.2933 125.3 77.6214 124.471 77.62 123.61Z" fill="#F5F5F5"/>
<path d="M34.96 127.125C39.905 127.52 45.835 128.5 47.96 130.905C48.6505 131.737 49.1949 132.681 49.57 133.695H57.75C58.1373 132.681 58.6897 131.738 59.385 130.905C61.515 128.51 67.495 127.525 72.345 127.125H34.96Z" fill="#E6E6E6"/>
<path d="M56.88 123.635L56.215 116.065H65.815L66.48 123.635H56.88Z" fill="#EBEBEB"/>
<path d="M56.88 123.635L56.215 116.065H55.7L56.36 123.635H56.88Z" fill="#E0E0E0"/>
<path d="M57.79 122.865L57.265 116.84H64.905L65.43 122.865H57.79Z" fill="#F0F0F0"/>
<path d="M58.375 122.365L57.935 117.335H64.32L64.76 122.365H58.375Z" fill="#FAFAFA"/>
<path d="M53.765 123.61H44.125L45.195 111.385H54.835L53.765 123.61Z" fill="#E6E6E6"/>
<path d="M53.765 123.61H54.225L55.295 111.385H54.835L53.765 123.61Z" fill="#E0E0E0"/>
<path d="M52.89 122.365H45.215L46.07 112.63H53.745L52.89 122.365Z" fill="#F0F0F0"/>
<path d="M52.33 121.565H45.915L46.63 113.43H53.04L52.33 121.565Z" fill="#FAFAFA"/>
<path d="M49.09 117.09C49.2999 117.299 49.5839 117.416 49.88 117.416C50.1761 117.416 50.4601 117.299 50.67 117.09C50.8788 116.88 50.9961 116.596 50.9961 116.3C50.9961 116.004 50.8788 115.72 50.67 115.51C50.4601 115.301 50.1761 115.184 49.88 115.184C49.5839 115.184 49.2999 115.301 49.09 115.51C48.8812 115.72 48.7639 116.004 48.7639 116.3C48.7639 116.596 48.8812 116.88 49.09 117.09Z" fill="#EBEBEB"/>
<path d="M49.565 118.455C49.4893 118.379 49.3993 118.319 49.3002 118.277C49.2011 118.236 49.0948 118.215 48.9875 118.215C48.8802 118.215 48.7739 118.236 48.6748 118.277C48.5757 118.319 48.4857 118.379 48.41 118.455C48.2938 118.57 48.2147 118.716 48.183 118.876C48.1512 119.036 48.1682 119.202 48.2317 119.353C48.2953 119.503 48.4025 119.631 48.5395 119.719C48.6764 119.808 48.8369 119.854 49 119.85C49.161 119.849 49.3179 119.799 49.451 119.709C49.5841 119.618 49.6874 119.49 49.7479 119.341C49.8083 119.192 49.8232 119.028 49.7906 118.87C49.7581 118.713 49.6796 118.568 49.565 118.455Z" fill="#F0F0F0"/>
<path d="M125 186.28C178.541 186.28 221.945 183.746 221.945 180.62C221.945 177.494 178.541 174.96 125 174.96C71.4587 174.96 28.055 177.494 28.055 180.62C28.055 183.746 71.4587 186.28 125 186.28Z" fill="#F5F5F5"/>
<path d="M203.11 146.405C203.2 147.05 201.45 147.475 200.02 147.715C200.14 148.885 200.92 150.07 201.995 151.18C203.35 150.415 205.285 149.405 205.64 149.65C205.995 149.895 204.05 151.205 202.81 151.955C203.694 152.728 204.632 153.438 205.615 154.08C206.225 153.515 206.935 153.015 207.36 153.285C207.785 153.555 207.68 154.445 207.465 155.225C208.935 156.085 210.04 156.61 210.04 156.61C210.474 155.241 210.809 153.842 211.04 152.425C210.965 152.275 210.895 152.13 210.825 151.97C210.585 151.42 210.825 151.19 211.21 151.11C211.32 150.113 211.328 149.108 211.235 148.11C209.565 147.76 207.54 147.11 208.3 146.11C208.755 145.51 209.595 145.44 210.47 145.61C210.349 145.411 210.21 145.224 210.055 145.05C207.02 141.705 204.9 145.05 204.9 145.05C203.135 143.58 200.655 143.975 200.12 146.275C201.1 146 203 145.61 203.11 146.405Z" fill="#BA4D50"/>
<path opacity="0.3" d="M203.11 146.405C203.2 147.05 201.45 147.475 200.02 147.715C200.14 148.885 200.92 150.07 201.995 151.18C203.35 150.415 205.285 149.405 205.64 149.65C205.995 149.895 204.05 151.205 202.81 151.955C203.694 152.728 204.632 153.438 205.615 154.08C206.225 153.515 206.935 153.015 207.36 153.285C207.785 153.555 207.68 154.445 207.465 155.225C208.935 156.085 210.04 156.61 210.04 156.61C210.474 155.241 210.809 153.842 211.04 152.425C210.965 152.275 210.895 152.13 210.825 151.97C210.585 151.42 210.825 151.19 211.21 151.11C211.32 150.113 211.328 149.108 211.235 148.11C209.565 147.76 207.54 147.11 208.3 146.11C208.755 145.51 209.595 145.44 210.47 145.61C210.349 145.411 210.21 145.224 210.055 145.05C207.02 141.705 204.9 145.05 204.9 145.05C203.135 143.58 200.655 143.975 200.12 146.275C201.1 146 203 145.61 203.11 146.405Z" fill="white"/>
<path d="M206.895 171L206.46 170.965C206.46 170.74 208.255 148.335 203.23 146.22C202.993 146.113 202.735 146.06 202.475 146.067C202.216 146.074 201.961 146.14 201.73 146.26C199.915 147.205 199.045 151.13 199.035 151.17L198.605 151.075C198.64 150.905 199.53 146.91 201.525 145.87C201.817 145.717 202.139 145.632 202.469 145.623C202.798 145.613 203.125 145.679 203.425 145.815C208.72 148.045 207 170.06 206.895 171Z" fill="#BA4D50"/>
<path d="M207.53 170.5C207.44 169.5 205.39 145.785 209.225 143.27C210.145 142.67 210.965 142.54 211.665 142.89C213.48 143.805 213.715 147.685 213.725 147.85H213.285C213.285 147.815 213.055 144.065 211.465 143.265C210.92 142.99 210.245 143.105 209.465 143.62C205.845 145.99 207.94 170.195 207.965 170.44L207.53 170.5Z" fill="#BA4D50"/>
<path d="M208.11 172.425C208.08 171.655 207.445 153.51 210.94 151.925C211.265 151.772 211.62 151.692 211.98 151.692C212.34 151.692 212.695 151.772 213.02 151.925C215.42 152.98 216.9 157.45 216.96 157.64L216.545 157.775C216.545 157.73 215.045 153.3 212.845 152.325C212.576 152.197 212.283 152.131 211.985 152.131C211.687 152.131 211.394 152.197 211.125 152.325C208.445 153.545 208.355 167.24 208.545 172.415L208.11 172.425Z" fill="#BA4D50"/>
<path d="M207.22 171.595L206.78 171.545C207.4 166.145 208.575 151.755 206.65 150.045C206.556 149.933 206.433 149.851 206.294 149.807C206.154 149.764 206.006 149.761 205.865 149.8C204.575 150.3 203.79 154.975 203.595 156.74L203.16 156.69C203.235 156.015 203.94 150.07 205.705 149.39C205.921 149.318 206.153 149.31 206.374 149.368C206.594 149.425 206.792 149.546 206.945 149.715C209.43 151.93 207.31 170.795 207.22 171.595Z" fill="#BA4D50"/>
<path d="M199.89 161.36H215.67L214.35 179.035H201.205L199.89 161.36Z" fill="#BA4D50"/>
<path opacity="0.2" d="M204.68 161.36L205.12 179.035H214.35L215.67 161.36H204.68Z" fill="white"/>
<path d="M202.04 154.87C201.875 155.3 200.65 154.965 199.685 154.62C199.387 155.536 199.397 156.525 199.715 157.435C200.815 157.435 202.35 157.47 202.49 157.745C202.63 158.02 200.99 158.155 199.955 158.195C200.235 158.974 200.569 159.733 200.955 160.465C201.525 160.325 202.135 160.26 202.3 160.57C202.465 160.88 202.105 161.395 201.7 161.805C202.315 162.84 202.815 163.54 202.815 163.54C203.549 162.843 204.232 162.094 204.86 161.3C204.86 161.18 204.86 161.065 204.86 160.945C204.9 160.525 205.125 160.445 205.395 160.545C205.807 159.967 206.157 159.346 206.44 158.695C205.535 157.905 204.505 156.81 205.315 156.455C205.815 156.24 206.345 156.485 206.815 156.88C206.809 156.712 206.787 156.544 206.75 156.38C206.025 153.275 203.57 154.615 203.57 154.615C202.99 153.115 201.325 152.495 200.205 153.73C200.945 153.925 202.24 154.34 202.04 154.87Z" fill="#BA4D50"/>
<path opacity="0.3" d="M202.04 154.87C201.875 155.3 200.65 154.965 199.685 154.62C199.387 155.536 199.397 156.525 199.715 157.435C200.815 157.435 202.35 157.47 202.49 157.745C202.63 158.02 200.99 158.155 199.955 158.195C200.235 158.974 200.569 159.733 200.955 160.465C201.525 160.325 202.135 160.26 202.3 160.57C202.465 160.88 202.105 161.395 201.7 161.805C202.315 162.84 202.815 163.54 202.815 163.54C203.549 162.843 204.232 162.094 204.86 161.3C204.86 161.18 204.86 161.065 204.86 160.945C204.9 160.525 205.125 160.445 205.395 160.545C205.807 159.967 206.157 159.346 206.44 158.695C205.535 157.905 204.505 156.81 205.315 156.455C205.815 156.24 206.345 156.485 206.815 156.88C206.809 156.712 206.787 156.544 206.75 156.38C206.025 153.275 203.57 154.615 203.57 154.615C202.99 153.115 201.325 152.495 200.205 153.73C200.945 153.925 202.24 154.34 202.04 154.87Z" fill="white"/>
<path d="M213.755 156.97C213.264 157.013 212.781 157.115 212.315 157.275C212.186 156.941 212.113 156.588 212.1 156.23C212 153.05 214.28 154.39 215.48 153.455C215.752 153.217 216.07 153.038 216.414 152.93C216.758 152.821 217.121 152.786 217.48 152.825C217.377 153 217.287 153.182 217.21 153.37C217.182 153.44 217.17 153.515 217.175 153.59C217.18 153.665 217.202 153.737 217.239 153.803C217.276 153.868 217.327 153.924 217.389 153.967C217.45 154.01 217.521 154.038 217.595 154.05C217.897 154.111 218.21 154.074 218.49 153.945C218.568 153.896 218.643 153.843 218.715 153.785C218.909 154.119 219.057 154.477 219.155 154.85C219.273 155.294 219.342 155.75 219.36 156.21C219.18 156.248 219.003 156.298 218.83 156.36C218.761 156.39 218.7 156.436 218.652 156.493C218.603 156.55 218.568 156.617 218.548 156.689C218.529 156.762 218.527 156.838 218.541 156.912C218.555 156.985 218.585 157.055 218.63 157.115C218.819 157.306 219.041 157.462 219.285 157.575C219.204 158.087 219.069 158.59 218.885 159.075L218.725 159.1C218.608 159.121 218.493 159.149 218.38 159.185C218.314 159.201 218.25 159.224 218.19 159.255C218.111 159.288 218.042 159.341 217.99 159.408C217.937 159.476 217.903 159.556 217.89 159.64C217.879 159.727 217.89 159.815 217.924 159.895C217.957 159.976 218.011 160.047 218.08 160.1C218.155 160.153 218.234 160.201 218.315 160.245C218.014 160.772 217.58 161.21 217.055 161.515C216.595 161.304 216.148 161.067 215.715 160.805C215.81 160.68 215.905 160.55 215.995 160.42C216.096 160.274 216.144 160.097 216.13 159.92C216.106 159.742 216.012 159.58 215.87 159.47C215.8 159.416 215.719 159.376 215.633 159.352C215.547 159.329 215.457 159.323 215.369 159.335C215.281 159.346 215.196 159.375 215.118 159.42C215.041 159.465 214.974 159.524 214.92 159.595C214.815 159.75 214.7 159.9 214.585 160.05C213.989 159.607 213.456 159.085 213 158.5H213.045C213.34 158.424 213.641 158.376 213.945 158.355C214.113 158.32 214.262 158.223 214.362 158.084C214.461 157.944 214.504 157.771 214.482 157.601C214.46 157.431 214.374 157.275 214.242 157.166C214.11 157.056 213.941 157 213.77 157.01L213.755 156.97Z" fill="#BA4D50"/>
<path opacity="0.5" d="M213.755 156.97C213.264 157.013 212.781 157.115 212.315 157.275C212.186 156.941 212.113 156.588 212.1 156.23C212 153.05 214.28 154.39 215.48 153.455C215.752 153.217 216.07 153.038 216.414 152.93C216.758 152.821 217.121 152.786 217.48 152.825C217.377 153 217.287 153.182 217.21 153.37C217.182 153.44 217.17 153.515 217.175 153.59C217.18 153.665 217.202 153.737 217.239 153.803C217.276 153.868 217.327 153.924 217.389 153.967C217.45 154.01 217.521 154.038 217.595 154.05C217.897 154.111 218.21 154.074 218.49 153.945C218.568 153.896 218.643 153.843 218.715 153.785C218.909 154.119 219.057 154.477 219.155 154.85C219.273 155.294 219.342 155.75 219.36 156.21C219.18 156.248 219.003 156.298 218.83 156.36C218.761 156.39 218.7 156.436 218.652 156.493C218.603 156.55 218.568 156.617 218.548 156.689C218.529 156.762 218.527 156.838 218.541 156.912C218.555 156.985 218.585 157.055 218.63 157.115C218.819 157.306 219.041 157.462 219.285 157.575C219.204 158.087 219.069 158.59 218.885 159.075L218.725 159.1C218.608 159.121 218.493 159.149 218.38 159.185C218.314 159.201 218.25 159.224 218.19 159.255C218.111 159.288 218.042 159.341 217.99 159.408C217.937 159.476 217.903 159.556 217.89 159.64C217.879 159.727 217.89 159.815 217.924 159.895C217.957 159.976 218.011 160.047 218.08 160.1C218.155 160.153 218.234 160.201 218.315 160.245C218.014 160.772 217.58 161.21 217.055 161.515C216.595 161.304 216.148 161.067 215.715 160.805C215.81 160.68 215.905 160.55 215.995 160.42C216.096 160.274 216.144 160.097 216.13 159.92C216.106 159.742 216.012 159.58 215.87 159.47C215.8 159.416 215.719 159.376 215.633 159.352C215.547 159.329 215.457 159.323 215.369 159.335C215.281 159.346 215.196 159.375 215.118 159.42C215.041 159.465 214.974 159.524 214.92 159.595C214.815 159.75 214.7 159.9 214.585 160.05C213.989 159.607 213.456 159.085 213 158.5H213.045C213.34 158.424 213.641 158.376 213.945 158.355C214.113 158.32 214.262 158.223 214.362 158.084C214.461 157.944 214.504 157.771 214.482 157.601C214.46 157.431 214.374 157.275 214.242 157.166C214.11 157.056 213.941 157 213.77 157.01L213.755 156.97Z" fill="white"/>
<path d="M214.665 146C214.942 145.807 215.24 145.647 215.555 145.525C215.477 145.294 215.36 145.077 215.21 144.885C213.865 143.17 213.26 144.885 212.21 144.91C211.961 144.904 211.714 144.95 211.485 145.044C211.255 145.139 211.047 145.281 210.875 145.46C211.005 145.509 211.132 145.565 211.255 145.63C211.3 145.654 211.339 145.688 211.369 145.73C211.399 145.771 211.42 145.819 211.43 145.869C211.439 145.919 211.437 145.971 211.424 146.02C211.412 146.07 211.388 146.116 211.355 146.155C211.229 146.318 211.053 146.435 210.855 146.49C210.792 146.495 210.728 146.495 210.665 146.49C210.712 146.749 210.793 147.001 210.905 147.24C211.039 147.527 211.207 147.797 211.405 148.045C211.517 147.987 211.632 147.936 211.75 147.89C211.799 147.875 211.852 147.871 211.903 147.879C211.954 147.887 212.002 147.907 212.045 147.937C212.087 147.967 212.121 148.006 212.146 148.052C212.17 148.098 212.183 148.148 212.185 148.2C212.17 148.384 212.122 148.563 212.045 148.73C212.311 148.963 212.601 149.168 212.91 149.34L213.005 149.28C213.075 149.241 213.146 149.206 213.22 149.175L213.35 149.125C213.407 149.109 213.467 149.108 213.524 149.121C213.582 149.134 213.636 149.161 213.68 149.2C213.724 149.241 213.756 149.292 213.774 149.349C213.791 149.406 213.793 149.467 213.78 149.525C213.765 149.586 213.744 149.647 213.72 149.705C214.11 149.845 214.53 149.885 214.94 149.82C215.09 149.508 215.222 149.187 215.335 148.86L215.02 148.775C214.902 148.746 214.799 148.675 214.73 148.575C214.696 148.524 214.673 148.467 214.662 148.407C214.651 148.347 214.652 148.285 214.665 148.225C214.693 148.105 214.766 148.001 214.87 147.935C214.921 147.902 214.979 147.88 215.039 147.869C215.099 147.859 215.161 147.861 215.22 147.875L215.595 147.965C215.719 147.463 215.773 146.947 215.755 146.43H215.725C215.537 146.518 215.358 146.624 215.19 146.745C215.087 146.799 214.967 146.813 214.855 146.783C214.742 146.753 214.645 146.682 214.582 146.584C214.52 146.486 214.496 146.368 214.516 146.254C214.536 146.139 214.598 146.036 214.69 145.965L214.665 146Z" fill="#BA4D50"/>
<path opacity="0.3" d="M214.665 146C214.942 145.807 215.24 145.647 215.555 145.525C215.477 145.294 215.36 145.077 215.21 144.885C213.865 143.17 213.26 144.885 212.21 144.91C211.961 144.904 211.714 144.95 211.485 145.044C211.255 145.139 211.047 145.281 210.875 145.46C211.005 145.509 211.132 145.565 211.255 145.63C211.3 145.654 211.339 145.688 211.369 145.73C211.399 145.771 211.42 145.819 211.43 145.869C211.439 145.919 211.437 145.971 211.424 146.02C211.412 146.07 211.388 146.116 211.355 146.155C211.229 146.318 211.053 146.435 210.855 146.49C210.792 146.495 210.728 146.495 210.665 146.49C210.712 146.749 210.793 147.001 210.905 147.24C211.039 147.527 211.207 147.797 211.405 148.045C211.517 147.987 211.632 147.936 211.75 147.89C211.799 147.875 211.852 147.871 211.903 147.879C211.954 147.887 212.002 147.907 212.045 147.937C212.087 147.967 212.121 148.006 212.146 148.052C212.17 148.098 212.183 148.148 212.185 148.2C212.17 148.384 212.122 148.563 212.045 148.73C212.311 148.963 212.601 149.168 212.91 149.34L213.005 149.28C213.075 149.241 213.146 149.206 213.22 149.175L213.35 149.125C213.407 149.109 213.467 149.108 213.524 149.121C213.582 149.134 213.636 149.161 213.68 149.2C213.724 149.241 213.756 149.292 213.774 149.349C213.791 149.406 213.793 149.467 213.78 149.525C213.765 149.586 213.744 149.647 213.72 149.705C214.11 149.845 214.53 149.885 214.94 149.82C215.09 149.508 215.222 149.187 215.335 148.86L215.02 148.775C214.902 148.746 214.799 148.675 214.73 148.575C214.696 148.524 214.673 148.467 214.662 148.407C214.651 148.347 214.652 148.285 214.665 148.225C214.693 148.105 214.766 148.001 214.87 147.935C214.921 147.902 214.979 147.88 215.039 147.869C215.099 147.859 215.161 147.861 215.22 147.875L215.595 147.965C215.719 147.463 215.773 146.947 215.755 146.43H215.725C215.537 146.518 215.358 146.624 215.19 146.745C215.087 146.799 214.967 146.813 214.855 146.783C214.742 146.753 214.645 146.682 214.582 146.584C214.52 146.486 214.496 146.368 214.516 146.254C214.536 146.139 214.598 146.036 214.69 145.965L214.665 146Z" fill="white"/>
<path d="M201.81 149.185C201.715 149.83 203.465 150.255 204.895 150.495C204.78 151.665 204 152.85 202.895 153.955C201.54 153.195 199.605 152.185 199.25 152.43C198.895 152.675 200.84 153.98 202.08 154.735C201.194 155.506 200.257 156.216 199.275 156.86C198.67 156.29 197.955 155.795 197.535 156.065C197.115 156.335 197.21 157.22 197.43 158.005C195.93 158.865 194.85 159.385 194.85 159.385C194.416 158.016 194.081 156.617 193.85 155.2C193.925 155.055 194 154.905 194.065 154.75C194.305 154.2 194.065 153.965 193.68 153.89C193.57 152.893 193.562 151.888 193.655 150.89C195.325 150.54 197.355 149.89 196.595 148.89C196.135 148.285 195.295 148.22 194.425 148.39C194.543 148.19 194.68 148.003 194.835 147.83C197.875 144.48 199.99 147.83 199.99 147.83C201.755 146.355 204.235 146.755 204.77 149.055C203.82 148.765 201.925 148.385 201.81 149.185Z" fill="#BA4D50"/>
<path opacity="0.5" d="M201.81 149.185C201.715 149.83 203.465 150.255 204.895 150.495C204.78 151.665 204 152.85 202.895 153.955C201.54 153.195 199.605 152.185 199.25 152.43C198.895 152.675 200.84 153.98 202.08 154.735C201.194 155.506 200.257 156.216 199.275 156.86C198.67 156.29 197.955 155.795 197.535 156.065C197.115 156.335 197.21 157.22 197.43 158.005C195.93 158.865 194.85 159.385 194.85 159.385C194.416 158.016 194.081 156.617 193.85 155.2C193.925 155.055 194 154.905 194.065 154.75C194.305 154.2 194.065 153.965 193.68 153.89C193.57 152.893 193.562 151.888 193.655 150.89C195.325 150.54 197.355 149.89 196.595 148.89C196.135 148.285 195.295 148.22 194.425 148.39C194.543 148.19 194.68 148.003 194.835 147.83C197.875 144.48 199.99 147.83 199.99 147.83C201.755 146.355 204.235 146.755 204.77 149.055C203.82 148.765 201.925 148.385 201.81 149.185Z" fill="white"/>
<path d="M46.555 169.66C46.555 169.66 44.225 164.575 46.885 159.56C49.545 154.545 50.32 153.365 48.625 152.34C46.93 151.315 46.125 156.34 46.125 156.34C45.284 154.063 45.1981 151.575 45.88 149.245C47.06 145.62 47.8 139.71 46.185 139.075C44.57 138.44 45.88 146.445 44.48 149.175C43.7642 147.26 43.3036 145.26 43.11 143.225C42.915 140.31 43.215 135.66 41.945 134.465C40.675 133.27 39.85 134.095 41.105 140.525C41.8564 144.368 42.273 148.27 42.35 152.185C42.35 152.185 39.6 143.76 37.745 143.5C35.89 143.24 35.89 146 37.48 148.35C39.07 150.7 42.135 154.965 42.635 157.15C42.635 157.15 39.6 150.8 36.87 152.75C34.14 154.7 39.245 158.525 41.525 159.91C43.805 161.295 45.38 170 45.38 170L46.555 169.66Z" fill="#BA4D50"/>
<path opacity="0.2" d="M46.555 169.66C46.555 169.66 44.225 164.575 46.885 159.56C49.545 154.545 50.32 153.365 48.625 152.34C46.93 151.315 46.125 156.34 46.125 156.34C45.284 154.063 45.1981 151.575 45.88 149.245C47.06 145.62 47.8 139.71 46.185 139.075C44.57 138.44 45.88 146.445 44.48 149.175C43.7642 147.26 43.3036 145.26 43.11 143.225C42.915 140.31 43.215 135.66 41.945 134.465C40.675 133.27 39.85 134.095 41.105 140.525C41.8564 144.368 42.273 148.27 42.35 152.185C42.35 152.185 39.6 143.76 37.745 143.5C35.89 143.24 35.89 146 37.48 148.35C39.07 150.7 42.135 154.965 42.635 157.15C42.635 157.15 39.6 150.8 36.87 152.75C34.14 154.7 39.245 158.525 41.525 159.91C43.805 161.295 45.38 170 45.38 170L46.555 169.66Z" fill="black"/>
<path d="M44.715 171.745C44.715 171.745 46.985 166.625 44.26 161.65C41.535 156.675 40.76 155.51 42.435 154.455C44.11 153.4 44.935 158.43 44.935 158.43C45.7491 156.144 45.807 153.657 45.1 151.335C43.875 147.725 43.065 141.835 44.67 141.17C46.275 140.505 45.065 148.535 46.5 151.24C47.1903 149.315 47.6256 147.308 47.795 145.27C47.955 142.355 47.6 137.71 48.86 136.495C50.12 135.28 50.945 136.095 49.77 142.545C49.0634 146.397 48.6937 150.304 48.665 154.22C48.665 154.22 51.33 145.745 53.165 145.47C55 145.195 55.05 147.925 53.485 150.32C51.92 152.715 48.96 157 48.5 159.195C48.5 159.195 51.46 152.8 54.215 154.695C56.97 156.59 51.91 160.51 49.65 161.93C47.39 163.35 45.91 172.055 45.91 172.055L44.715 171.745Z" fill="#BA4D50"/>
<path d="M52.345 169.345H38.805L39.905 179.035H51.25L52.345 169.345Z" fill="#263238"/>
<path d="M156.395 53C156.395 53 157.25 57.685 163.445 59.8C163.445 59.8 159.92 56.4 159.92 53H156.395Z" fill="#BA4D50"/>
<path opacity="0.8" d="M156.395 53C156.395 53 157.25 57.685 163.445 59.8C163.445 59.8 159.92 56.4 159.92 53H156.395Z" fill="white"/>
<path d="M165.235 42.43H151.38C150.61 42.43 149.985 43.0546 149.985 43.825V53.07C149.985 53.8404 150.61 54.465 151.38 54.465H165.235C166.005 54.465 166.63 53.8404 166.63 53.07V43.825C166.63 43.0546 166.005 42.43 165.235 42.43Z" fill="#BA4D50"/>
<path opacity="0.8" d="M165.235 42.43H151.38C150.61 42.43 149.985 43.0546 149.985 43.825V53.07C149.985 53.8404 150.61 54.465 151.38 54.465H165.235C166.005 54.465 166.63 53.8404 166.63 53.07V43.825C166.63 43.0546 166.005 42.43 165.235 42.43Z" fill="white"/>
<path d="M154.95 48.445C154.95 48.6279 154.896 48.8067 154.794 48.9589C154.692 49.111 154.548 49.2295 154.379 49.2996C154.21 49.3696 154.024 49.3879 153.845 49.3522C153.665 49.3165 153.5 49.2284 153.371 49.099C153.242 48.9697 153.153 48.8049 153.118 48.6254C153.082 48.446 153.1 48.26 153.17 48.091C153.24 47.922 153.359 47.7775 153.511 47.6758C153.663 47.5742 153.842 47.52 154.025 47.52C154.146 47.52 154.267 47.5439 154.379 47.5904C154.491 47.6369 154.593 47.705 154.679 47.7909C154.765 47.8768 154.833 47.9788 154.88 48.091C154.926 48.2032 154.95 48.3235 154.95 48.445Z" fill="#BA4D50"/>
<path d="M158.305 49.37C158.816 49.37 159.23 48.9558 159.23 48.445C159.23 47.9341 158.816 47.52 158.305 47.52C157.794 47.52 157.38 47.9341 157.38 48.445C157.38 48.9558 157.794 49.37 158.305 49.37Z" fill="#BA4D50"/>
<path d="M162.585 49.37C163.096 49.37 163.51 48.9558 163.51 48.445C163.51 47.9341 163.096 47.52 162.585 47.52C162.074 47.52 161.66 47.9341 161.66 48.445C161.66 48.9558 162.074 49.37 162.585 49.37Z" fill="#BA4D50"/>
<path d="M137.345 65.615C137.345 65.615 136.495 70.305 130.3 72.42C130.3 72.42 133.8 69.015 133.8 65.615H137.345Z" fill="#BA4D50"/>
<path opacity="0.8" d="M137.345 65.615C137.345 65.615 136.495 70.305 130.3 72.42C130.3 72.42 133.8 69.015 133.8 65.615H137.345Z" fill="white"/>
<path d="M128.51 67.095H142.365C143.135 67.095 143.76 66.4705 143.76 65.7V56.455C143.76 55.6846 143.135 55.06 142.365 55.06H128.51C127.74 55.06 127.115 55.6846 127.115 56.455V65.7C127.115 66.4705 127.74 67.095 128.51 67.095Z" fill="#BA4D50"/>
<path opacity="0.8" d="M128.51 67.095H142.365C143.135 67.095 143.76 66.4705 143.76 65.7V56.455C143.76 55.6846 143.135 55.06 142.365 55.06H128.51C127.74 55.06 127.115 55.6846 127.115 56.455V65.7C127.115 66.4705 127.74 67.095 128.51 67.095Z" fill="white"/>
<path d="M138.795 61.075C138.794 61.2582 138.847 61.4375 138.948 61.5903C139.049 61.7431 139.194 61.8624 139.363 61.9332C139.531 62.004 139.718 62.023 139.897 61.9879C140.077 61.9527 140.242 61.865 140.372 61.7359C140.502 61.6067 140.591 61.4419 140.627 61.2623C140.663 61.0828 140.645 60.8965 140.575 60.7272C140.505 60.5579 140.387 60.4131 140.234 60.3113C140.082 60.2094 139.903 60.155 139.72 60.155C139.476 60.155 139.241 60.2518 139.068 60.4242C138.894 60.5966 138.796 60.8306 138.795 61.075Z" fill="#BA4D50"/>
<path d="M134.5 61.075C134.499 61.2583 134.553 61.4379 134.654 61.5908C134.755 61.7436 134.899 61.863 135.069 61.9336C135.238 62.0042 135.424 62.023 135.604 61.9874C135.784 61.9519 135.949 61.8637 136.079 61.734C136.209 61.6044 136.297 61.4391 136.332 61.2592C136.368 61.0793 136.349 60.8929 136.279 60.7237C136.208 60.5545 136.089 60.41 135.936 60.3088C135.783 60.2075 135.603 60.154 135.42 60.155C135.176 60.155 134.942 60.2519 134.769 60.4244C134.597 60.597 134.5 60.831 134.5 61.075Z" fill="#BA4D50"/>
<path d="M130.23 61.075C130.229 61.2582 130.282 61.4375 130.383 61.5903C130.484 61.7431 130.629 61.8624 130.798 61.9332C130.966 62.004 131.153 62.023 131.332 61.9879C131.512 61.9527 131.677 61.865 131.807 61.7359C131.937 61.6067 132.026 61.4419 132.062 61.2623C132.098 61.0828 132.08 60.8965 132.01 60.7272C131.94 60.5579 131.822 60.4131 131.669 60.3113C131.517 60.2094 131.338 60.155 131.155 60.155C130.911 60.155 130.676 60.2518 130.503 60.4242C130.329 60.5966 130.231 60.8306 130.23 61.075Z" fill="#BA4D50"/>
<path d="M102.12 50.18C102.12 50.18 101.27 54.865 95.075 56.98C95.075 56.98 98.575 53.58 98.575 50.18H102.12Z" fill="#BA4D50"/>
<path opacity="0.8" d="M102.12 50.18C102.12 50.18 101.27 54.865 95.075 56.98C95.075 56.98 98.575 53.58 98.575 50.18H102.12Z" fill="white"/>
<path d="M105.295 39.62H95.59C94.8196 39.62 94.195 40.2446 94.195 41.015V50.26C94.195 51.0304 94.8196 51.655 95.59 51.655H105.295C106.065 51.655 106.69 51.0304 106.69 50.26V41.015C106.69 40.2446 106.065 39.62 105.295 39.62Z" fill="#BA4D50"/>
<path opacity="0.8" d="M105.295 39.62H95.59C94.8196 39.62 94.195 40.2446 94.195 41.015V50.26C94.195 51.0304 94.8196 51.655 95.59 51.655H105.295C106.065 51.655 106.69 51.0304 106.69 50.26V41.015C106.69 40.2446 106.065 39.62 105.295 39.62Z" fill="white"/>
<path d="M101.837 52.409C101.837 51.9784 101.906 51.6002 102.042 51.2746C102.189 50.949 102.368 50.6707 102.578 50.4396C102.788 50.2085 103.061 49.946 103.397 49.6519C103.849 49.2527 104.18 48.9061 104.39 48.612C104.61 48.3075 104.721 47.9398 104.721 47.5092C104.721 46.9315 104.495 46.4694 104.043 46.1228C103.591 45.7657 102.972 45.5871 102.184 45.5871C100.882 45.5871 99.8785 46.0125 99.1748 46.8632L98.3398 46.233C99.2325 45.1407 100.54 44.5945 102.263 44.5945C103.366 44.5945 104.243 44.8414 104.894 45.335C105.556 45.8287 105.886 46.4956 105.886 47.3359C105.886 47.7665 105.813 48.1499 105.666 48.486C105.529 48.8116 105.356 49.0899 105.146 49.321C104.946 49.5521 104.679 49.8199 104.342 50.1245C103.891 50.5342 103.555 50.9018 103.334 51.2274C103.114 51.5425 103.003 51.9363 103.003 52.409H101.837ZM102.42 55.7963C102.189 55.7963 101.995 55.7175 101.837 55.56C101.68 55.3919 101.601 55.1976 101.601 54.977C101.601 54.746 101.68 54.5569 101.837 54.4099C101.995 54.2523 102.189 54.1735 102.42 54.1735C102.662 54.1735 102.861 54.2523 103.019 54.4099C103.177 54.5569 103.255 54.746 103.255 54.977C103.255 55.1976 103.171 55.3919 103.003 55.56C102.846 55.7175 102.651 55.7963 102.42 55.7963Z" fill="#BA4D50"/>
<path d="M169.265 73.155C168.569 72.8896 167.796 72.9111 167.115 73.2148C166.435 73.5184 165.902 74.0795 165.635 74.775V74.805C165.135 76.085 164.635 77.43 164.135 78.735C163.635 80.04 163.095 81.35 162.555 82.635C162.015 83.92 161.44 85.18 160.845 86.385C160.55 86.985 160.23 87.57 159.92 88.12C159.775 88.365 159.625 88.62 159.48 88.82C159.355 88.65 159.23 88.465 159.105 88.275C158.68 87.62 158.27 86.9 157.865 86.16C157.46 85.42 157.06 84.66 156.67 83.92L156.64 83.865C156.484 83.5785 156.233 83.3551 155.931 83.2327C155.628 83.1104 155.293 83.0967 154.981 83.194C154.67 83.2913 154.402 83.4936 154.223 83.7664C154.044 84.0392 153.965 84.3656 154 84.69C154.113 85.6157 154.28 86.5339 154.5 87.44C154.72 88.3631 154.997 89.2715 155.33 90.16C155.516 90.6378 155.728 91.1051 155.965 91.56C156.242 92.1027 156.588 92.6069 156.995 93.06C157.284 93.3878 157.621 93.6694 157.995 93.895C158.575 94.2601 159.25 94.4446 159.935 94.425C160.329 94.4104 160.718 94.3292 161.085 94.185C161.391 94.0532 161.679 93.8853 161.945 93.685C162.232 93.4661 162.493 93.2162 162.725 92.94C163.314 92.3034 163.854 91.6231 164.34 90.905L164.45 90.74C164.865 90.125 165.23 89.515 165.58 88.9C166.35 87.565 167.02 86.225 167.65 84.9C167.88 84.4 168.105 83.9 168.32 83.4C168.705 82.54 169.065 81.675 169.415 80.805C169.955 79.425 170.485 78.08 170.96 76.645C171.18 75.9569 171.127 75.2104 170.812 74.5605C170.496 73.9106 169.942 73.4073 169.265 73.155Z" fill="#263238"/>
<path opacity="0.2" d="M168.285 83.42C168.07 83.92 167.845 84.42 167.615 84.92C166.985 86.27 166.315 87.61 165.545 88.92C165.195 89.535 164.83 90.145 164.415 90.76C163.68 86.675 166.24 81.8 166.24 81.8C166.94 81.93 167.64 82.53 168.285 83.42Z" fill="black"/>
<path d="M187.765 88.76C187.765 89.49 187.705 90.26 187.665 91.015C187.54 93.305 187.325 95.81 187 98.515C186.897 99.415 186.778 100.34 186.645 101.29L165.395 101.655C164.36 98.825 163.43 92.72 166.34 87.41C166.34 84.015 165.505 80.255 165.4 76.62C165.335 74.345 167.31 72.255 170.005 71.78C174.135 71.0972 178.332 70.9142 182.505 71.235C184.795 71.39 186.6 72.765 186.955 74.67C187.303 76.6385 187.54 78.625 187.665 80.62C187.805 82.895 187.87 85.605 187.765 88.76Z" fill="#263238"/>
<path d="M172.18 71.065C171.682 71.2952 171.288 71.7037 171.076 72.2099C170.864 72.7162 170.849 73.2835 171.035 73.8C171.236 74.5484 171.623 75.2337 172.161 75.7916C172.699 76.3495 173.369 76.7618 174.11 76.99C174.965 77.17 180.035 74.49 180.67 72.115C181.305 69.74 172.18 71.065 172.18 71.065Z" fill="#BA4D50"/>
<path opacity="0.5" d="M172.18 71.065C171.682 71.2952 171.288 71.7037 171.076 72.2099C170.864 72.7162 170.849 73.2835 171.035 73.8C171.236 74.5484 171.623 75.2337 172.161 75.7916C172.699 76.3495 173.369 76.7618 174.11 76.99C174.965 77.17 180.035 74.49 180.67 72.115C181.305 69.74 172.18 71.065 172.18 71.065Z" fill="white"/>
<path opacity="0.2" d="M187.665 91C187.54 93.29 187.325 95.795 187 98.5C184.5 98.45 180.78 98.145 179.885 96.805C178.515 94.75 179.605 93.53 179.605 93.53C179.605 93.53 185.46 92.24 187.665 91Z" fill="black"/>
<path opacity="0.2" d="M187.765 88.76C185.075 86.05 184.385 77.76 184.385 77.76C184.385 77.76 185.94 78.97 187.655 80.625C187.805 82.895 187.87 85.605 187.765 88.76Z" fill="black"/>
<path d="M155.145 86.395L151.145 85.245L154.04 81.805C154.04 81.805 157.415 82.805 156.875 84.9L155.145 86.395Z" fill="#FF8B7B"/>
<path d="M149.855 82.715L150.855 81.13C150.937 80.9949 151.046 80.8779 151.175 80.786C151.304 80.694 151.45 80.629 151.605 80.595C151.759 80.5609 151.919 80.5584 152.075 80.5876C152.23 80.6168 152.378 80.6772 152.51 80.765L154.065 81.805L151.17 85.245L150.065 84.175C149.868 83.9927 149.739 83.7481 149.701 83.4823C149.663 83.2164 149.717 82.9455 149.855 82.715Z" fill="#FF8B7B"/>
<path d="M165.27 176.755L169.31 176.82C169.383 176.819 169.454 176.845 169.509 176.893C169.564 176.941 169.6 177.008 169.61 177.08L170.11 180.385C170.122 180.467 170.115 180.55 170.092 180.629C170.068 180.708 170.027 180.781 169.973 180.843C169.918 180.905 169.85 180.954 169.775 180.987C169.699 181.02 169.618 181.037 169.535 181.035C168.075 180.985 165.975 180.87 164.14 180.84C161.995 180.805 162.21 180.895 159.695 180.84C158.195 180.84 157.855 179.27 158.5 179.14C161.435 178.555 161.735 178.52 164.335 177.015C164.618 176.846 164.941 176.756 165.27 176.755Z" fill="#263238"/>
<path d="M171.35 138C175.85 119.08 180.16 110.87 178.455 101.5L165.39 101.655C165.39 101.655 160.24 127.39 161.335 138.485C162.475 150.025 164.14 176.88 164.14 176.88L170.105 176.965C170.105 176.965 173.58 150.905 171.35 138Z" fill="#BA4D50"/>
<path opacity="0.3" d="M171.35 138C175.85 119.08 180.16 110.87 178.455 101.5L165.39 101.655C165.39 101.655 160.24 127.39 161.335 138.485C162.475 150.025 164.14 176.88 164.14 176.88L170.105 176.965C170.105 176.965 173.58 150.905 171.35 138Z" fill="black"/>
<path opacity="0.2" d="M172 135.32C174.415 125.675 176.68 118.97 177.895 113.35C169.41 116.4 170.135 126.97 172 135.32Z" fill="black"/>
<path d="M185.635 176.755L189.675 176.82C189.746 176.821 189.815 176.848 189.867 176.896C189.92 176.944 189.953 177.009 189.96 177.08L190.315 180.385C190.321 180.469 190.31 180.553 190.282 180.632C190.254 180.711 190.21 180.783 190.153 180.844C190.096 180.905 190.026 180.954 189.949 180.987C189.872 181.019 189.789 181.036 189.705 181.035C188.25 180.985 187.795 180.87 185.96 180.84C183.82 180.805 184.805 180.895 182.295 180.84C180.795 180.84 180.535 179.28 181.185 179.14C183.24 178.71 183.78 177.89 184.71 177.015C184.975 176.816 185.305 176.723 185.635 176.755Z" fill="#263238"/>
<path d="M185.165 138C187.195 119.08 189.585 110.66 186.665 101.28L173.045 101.645C173.045 101.645 172.675 127.38 175.23 138.475C177.89 150.015 184.095 176.87 184.095 176.87L190.095 176.955C190.095 176.955 189.09 150.905 185.165 138Z" fill="#BA4D50"/>
<path opacity="0.3" d="M185.165 138C187.195 119.08 189.585 110.66 186.665 101.28L173.045 101.645C173.045 101.645 172.675 127.38 175.23 138.475C177.89 150.015 184.095 176.87 184.095 176.87L190.095 176.955C190.095 176.955 189.09 150.905 185.165 138Z" fill="black"/>
<path d="M178.025 66.03C178.025 68.205 178.155 70.75 179.935 72.28C178.935 73.615 177.02 75.66 174.245 75.305C171.19 74.915 171.78 72.14 172.455 71.27C173.955 70.405 173.54 69.105 173.37 68.2L178.025 66.03Z" fill="#FF8B7B"/>
<path opacity="0.2" d="M177 66.92C177 66.785 177 66.645 177 66.51L173.375 68.2C173.553 68.8089 173.587 69.4507 173.475 70.075C175.215 69.545 176.96 68.235 177 66.92Z" fill="black"/>
<path d="M179.84 60C179.375 63.645 179.29 65.8 177.315 67.545C174.35 70.165 169.935 68.15 169.315 64.43C168.745 61.085 169.6 55.685 173.28 54.495C174.094 54.2335 174.962 54.1827 175.801 54.3474C176.641 54.5121 177.424 54.8869 178.08 55.4367C178.735 55.9865 179.24 56.6935 179.548 57.4915C179.856 58.2895 179.956 59.1526 179.84 60Z" fill="#FF8B7B"/>
<path d="M174 60.75C174 61.05 173.805 61.28 173.61 61.25C173.415 61.22 173.275 60.98 173.295 60.685C173.315 60.39 173.485 60.155 173.68 60.185C173.875 60.215 174.025 60.455 174 60.75Z" fill="#263238"/>
<path d="M170.275 60.59C170.275 60.89 170.085 61.12 169.89 61.09C169.695 61.06 169.55 60.82 169.57 60.525C169.59 60.23 169.765 59.995 169.96 60.025C170.155 60.055 170.295 60.29 170.275 60.59Z" fill="#263238"/>
<path d="M171.36 60.97C170.891 61.8266 170.305 62.6141 169.62 63.31C169.803 63.482 170.021 63.6122 170.259 63.6916C170.498 63.7711 170.75 63.7978 171 63.77L171.36 60.97Z" fill="#FF5652"/>
<path d="M174.68 58.77C174.71 58.7645 174.738 58.7544 174.765 58.74C174.803 58.7136 174.83 58.6733 174.84 58.6276C174.849 58.5819 174.84 58.5344 174.815 58.495C174.667 58.2575 174.465 58.0587 174.225 57.9152C173.985 57.7717 173.714 57.6876 173.435 57.67C173.412 57.6693 173.389 57.6734 173.367 57.6819C173.346 57.6905 173.326 57.7033 173.31 57.7197C173.293 57.7361 173.28 57.7557 173.272 57.7772C173.263 57.7988 173.259 57.8218 173.26 57.845C173.26 57.868 173.265 57.8907 173.273 57.912C173.282 57.9332 173.295 57.9525 173.311 57.9687C173.328 57.985 173.347 57.9979 173.368 58.0067C173.389 58.0155 173.412 58.02 173.435 58.02C173.656 58.0374 173.87 58.1072 174.059 58.2238C174.247 58.3403 174.405 58.5001 174.52 58.69C174.538 58.7154 174.562 58.7361 174.59 58.75C174.618 58.764 174.649 58.7708 174.68 58.77Z" fill="#263238"/>
<path d="M169.145 59.07C169.173 59.0758 169.202 59.0742 169.229 59.0655C169.256 59.0567 169.281 59.041 169.3 59.02C169.448 58.8576 169.633 58.7329 169.839 58.6564C170.045 58.5798 170.267 58.5536 170.485 58.58C170.508 58.5844 170.531 58.5842 170.554 58.5795C170.576 58.5748 170.598 58.5657 170.617 58.5527C170.636 58.5396 170.652 58.523 170.665 58.5037C170.677 58.4843 170.686 58.4627 170.69 58.44C170.694 58.4174 170.694 58.3941 170.689 58.3715C170.685 58.3489 170.676 58.3274 170.663 58.3084C170.65 58.2893 170.633 58.273 170.614 58.2605C170.594 58.2479 170.573 58.2392 170.55 58.235C170.275 58.1977 169.995 58.2273 169.734 58.3213C169.473 58.4153 169.238 58.571 169.05 58.775C169.033 58.7913 169.02 58.8108 169.011 58.8322C169.002 58.8537 168.997 58.8767 168.997 58.9C168.997 58.9233 169.002 58.9463 169.011 58.9678C169.02 58.9893 169.033 59.0087 169.05 59.025C169.075 59.0506 169.109 59.0665 169.145 59.07Z" fill="#263238"/>
<path d="M171.27 64.5C171.627 64.9616 171.951 65.4478 172.24 65.955L172.53 65.845C173.835 65.345 174.275 64.685 174.37 64.1C174.422 63.6498 174.316 63.1956 174.07 62.815C173.535 63.49 172.355 64.05 171.71 64.315C171.445 64.45 171.27 64.5 171.27 64.5Z" fill="#263238"/>
<path d="M171.71 64.335L172.01 64.755C173.235 64.28 174.04 63.78 174.28 63.255C174.229 63.1015 174.159 62.9553 174.07 62.82C173.535 63.5 172.355 64.06 171.71 64.335Z" fill="white"/>
<path d="M172.53 65.855C173.835 65.355 174.275 64.695 174.37 64.11C173.877 64.3102 173.423 64.5963 173.03 64.955C172.772 65.1944 172.597 65.5096 172.53 65.855Z" fill="#DE5753"/>
<path d="M171.12 55.97C171.12 55.97 170.035 55.34 170.695 53.75C171.355 52.16 177.64 53.32 180.39 55.75C183.14 58.18 179.5 62.825 179.5 62.825L177.815 63.775C177.815 63.775 176.195 60.025 177.315 57.275C176.632 56.77 175.921 56.3043 175.185 55.88C174.72 55.675 172.575 57.035 171.12 55.97Z" fill="#263238"/>
<path d="M180.845 63.82C180.346 64.5965 179.561 65.1446 178.66 65.345C177.465 65.595 176.935 64.505 177.325 63.415C177.675 62.415 178.725 61.12 179.9 61.355C180.156 61.411 180.393 61.5297 180.592 61.7004C180.79 61.8711 180.943 62.0883 181.037 62.3327C181.131 62.5771 181.162 62.841 181.129 63.1006C181.095 63.3602 180.998 63.6074 180.845 63.82Z" fill="#FF8B7B"/>
<path d="M194.31 90.325C194.31 90.17 194.31 89.96 194.28 89.89L194.215 89.3C194.16 88.915 194.105 88.525 194.03 88.155C193.411 85.3105 192.419 82.5601 191.08 79.975C190.445 78.715 189.775 77.475 189.045 76.295C188.685 75.695 188.315 75.105 187.93 74.52C187.545 73.935 187.165 73.375 186.715 72.755C186.275 72.1731 185.625 71.7854 184.904 71.6738C184.183 71.5621 183.447 71.7355 182.851 72.157C182.255 72.5786 181.847 73.2153 181.712 73.9326C181.578 74.6498 181.728 75.3912 182.13 76L182.155 76.045C182.48 76.515 182.845 77.08 183.185 77.605C183.525 78.13 183.875 78.685 184.185 79.23C184.845 80.33 185.495 81.425 186.09 82.545C187.292 84.6773 188.25 86.9382 188.945 89.285C189.03 89.565 189.08 89.835 189.145 90.11L189.22 90.515C189.22 90.61 189.22 90.57 189.22 90.58C189.22 90.59 189.22 90.58 189.22 90.58C189.22 90.58 189.26 90.515 189.275 90.535C189.29 90.555 189.275 90.63 189.18 90.735C188.902 91.0424 188.572 91.298 188.205 91.49C187.726 91.7726 187.224 92.0151 186.705 92.215C185.544 92.6593 184.357 93.03 183.15 93.325C182.53 93.475 181.905 93.635 181.27 93.775C180.635 93.915 179.985 94.035 179.38 94.16H179.3C178.964 94.2226 178.662 94.4066 178.452 94.6771C178.243 94.9476 178.14 95.2857 178.163 95.6272C178.187 95.9686 178.335 96.2895 178.579 96.5288C178.824 96.7681 179.148 96.9091 179.49 96.925C182.336 97.1458 185.2 96.9504 187.99 96.345C188.751 96.1665 189.496 95.9291 190.22 95.635C191.082 95.2843 191.878 94.7907 192.575 94.175C193.021 93.7775 193.396 93.3075 193.685 92.785C194.018 92.1797 194.216 91.5093 194.265 90.82C194.305 90.665 194.32 90.5 194.31 90.325Z" fill="#263238"/>
<path d="M178.705 70.18C178.795 71.025 177.785 74.02 174.245 75.305C175.61 75.305 176.205 77.045 176.205 77.045C176.205 77.045 180.9 74.545 180.34 71.545C180.27 71.1623 180.068 70.8162 179.769 70.5669C179.471 70.3175 179.094 70.1806 178.705 70.18Z" fill="#BA4D50"/>
<path d="M173.145 70.41C173.235 71.235 172.275 72.975 174.245 75.305C172.875 75.305 172.06 76.675 172.06 76.675C171.532 75.8513 171.22 74.9082 171.152 73.9323C171.084 72.9565 171.262 71.9791 171.67 71.09C172.081 70.7184 172.596 70.4812 173.145 70.41Z" fill="#BA4D50"/>
<path d="M165.125 100.84L165 103.705L187.15 103.105L186.785 100.245L165.125 100.84Z" fill="#BA4D50"/>
<path opacity="0.3" d="M165.125 100.84L165 103.705L187.15 103.105L186.785 100.245L165.125 100.84Z" fill="black"/>
<path d="M184.98 102.31L187.15 102.27L186.86 100.83L184.98 100.87V102.31Z" fill="#263238"/>
<path d="M184.39 100.88L176.55 101.05V102.47L184.39 102.32V100.88Z" fill="#263238"/>
<path d="M166.71 101.255L165 101.295V102.68L166.71 102.65V101.255Z" fill="#263238"/>
<path d="M167.215 101.245V102.64L175.78 102.48V101.065L167.215 101.245Z" fill="#263238"/>
<path d="M171.87 102.91H170.03C169.916 102.91 169.806 102.865 169.724 102.784C169.643 102.704 169.596 102.594 169.595 102.48V101.39C169.595 101.276 169.639 101.167 169.719 101.086C169.798 101.005 169.906 100.958 170.02 100.955L171.86 100.915C171.976 100.919 172.088 100.963 172.175 101.04C172.216 101.08 172.249 101.129 172.271 101.182C172.293 101.235 172.305 101.292 172.305 101.35V102.5C172.299 102.611 172.25 102.715 172.169 102.792C172.088 102.868 171.981 102.91 171.87 102.91ZM170.055 101.41V102.5L171.87 102.47L171.845 101.37L170.055 101.41Z" fill="white"/>
<path d="M171.675 102.145H171.14C171.079 102.144 171.022 102.119 170.979 102.076C170.936 102.033 170.911 101.976 170.91 101.915C170.91 101.854 170.934 101.795 170.977 101.752C171.021 101.709 171.079 101.685 171.14 101.685H171.675C171.705 101.684 171.736 101.69 171.764 101.701C171.792 101.712 171.818 101.729 171.839 101.751C171.861 101.772 171.878 101.798 171.889 101.826C171.9 101.854 171.906 101.885 171.905 101.915C171.905 101.976 171.881 102.034 171.838 102.078C171.795 102.121 171.736 102.145 171.675 102.145Z" fill="white"/>
<path d="M173.27 96.825H177.005L177.685 90.175H172.585L173.27 96.825Z" fill="#BA4D50"/>
<path d="M172.31 90.45H177.96V89.78H172.31V90.45Z" fill="white"/>
<path d="M173.45 93.305C173.493 93.5659 173.61 93.809 173.786 94.0057C173.963 94.2023 174.192 94.3443 174.447 94.4148C174.702 94.4853 174.972 94.4815 175.224 94.4036C175.477 94.3258 175.702 94.1773 175.873 93.9757C176.044 93.774 176.154 93.5276 176.189 93.2656C176.225 93.0036 176.184 92.737 176.073 92.4972C175.962 92.2573 175.784 92.0544 175.561 91.9122C175.338 91.7701 175.079 91.6947 174.815 91.695C174.421 91.7294 174.057 91.9178 173.801 92.2193C173.546 92.5208 173.419 92.9109 173.45 93.305Z" fill="white"/>
<path d="M181.105 93.965L177.54 92.805L177.405 97.305C177.405 97.305 180.76 97.965 181.405 96.235L181.105 93.965Z" fill="#FF8B7B"/>
<path d="M174.055 94.545L174.27 96.13C174.313 96.4351 174.462 96.7152 174.692 96.9203C174.922 97.1254 175.217 97.2423 175.525 97.25L177.405 97.3L177.54 92.8L175.19 93.075C175.018 93.0946 174.852 93.1486 174.701 93.2336C174.55 93.3187 174.418 93.4331 174.312 93.5702C174.206 93.7072 174.129 93.8641 174.085 94.0316C174.041 94.199 174.031 94.3736 174.055 94.545Z" fill="#FF8B7B"/>
<path opacity="0.7" d="M178.705 70.18C178.795 71.025 177.785 74.02 174.245 75.305C175.61 75.305 176.205 77.045 176.205 77.045C176.205 77.045 180.9 74.545 180.34 71.545C180.27 71.1623 180.068 70.8162 179.769 70.5669C179.471 70.3175 179.094 70.1806 178.705 70.18Z" fill="white"/>
<path opacity="0.7" d="M173.145 70.41C173.235 71.235 172.275 72.975 174.245 75.305C172.875 75.305 172.06 76.675 172.06 76.675C171.532 75.8513 171.22 74.9082 171.152 73.9323C171.084 72.9565 171.262 71.9791 171.67 71.09C172.081 70.7184 172.596 70.4812 173.145 70.41Z" fill="white"/>
<path d="M145.36 94.03L149.165 93.53L147.545 90.22C147.545 90.22 144.045 91.245 144.145 92.38L145.36 94.03Z" fill="#BA4D50"/>
<path d="M151.1 90.715L149.375 88.705L147.545 90.24L149.165 93.55L151.1 90.715Z" fill="#BA4D50"/>
<path d="M126.575 88.055C126.575 88.055 129.2 94.515 133.46 96.87C137.72 99.225 145.74 94.03 145.74 94.03L144.5 91.735C144.5 91.735 135.67 93.9 135.305 93.57C134.94 93.24 130.99 82.57 125.935 81.13L126.575 88.055Z" fill="#BA4D50"/>
<path opacity="0.7" d="M145.745 94.035C145.745 94.035 137.745 99.23 133.46 96.87C132.041 96.0246 130.804 94.9064 129.82 93.58C128.512 91.8899 127.422 90.0421 126.575 88.08L125.955 81.15C131.005 82.575 134.955 93.265 135.325 93.595C135.695 93.925 144.5 91.735 144.5 91.735L145.745 94.035Z" fill="white"/>
<path opacity="0.1" d="M129.82 93.58C128.985 92.513 128.244 91.3754 127.605 90.18C127.661 89.283 127.933 88.413 128.4 87.645C128.4 87.645 130.165 89.75 129.82 93.58Z" fill="black"/>
<path d="M113.55 63.395C113.55 63.395 116.45 59.45 121.675 62.395C128.37 66.135 124.475 83.62 124.475 83.62L112.975 85.485C112.975 85.485 105.97 64.9 113.55 63.395Z" fill="#263238"/>
<path d="M128.2 103.89C128.2 103.89 130.735 123.6 130.51 136.12C131.39 147.86 132.13 172.5 133.46 175.16C133.415 175.76 131.24 175.88 130.675 175.52C130.675 175.52 121.985 155.18 123.175 136.12C115.11 116.24 115.59 103.89 115.59 103.89H128.2Z" fill="#BA4D50"/>
<path d="M124.765 103.89C124.765 103.89 119 126.14 116.715 137.065C114.32 148.535 111.86 162.395 111.825 175.445C111.185 175.825 110.47 176.385 109.17 175.985C109.17 175.985 103.555 149.855 108.73 137.57C106.46 110.39 113.65 103.89 113.65 103.89H124.765Z" fill="#BA4D50"/>
<path d="M113.55 103.38L128.005 105.38C128.18 102.315 129.595 87.18 129.55 85.845C129.465 83.345 127.37 81.175 124.715 80.845C123.98 80.75 123.215 80.66 122.47 80.6C120.194 80.4448 117.911 80.4448 115.635 80.6C114.985 80.63 114.355 80.68 113.76 80.735C111.53 80.95 109.99 82.995 110.76 85.025C111.73 87.57 113.24 101.34 113.55 103.38Z" fill="#BA4D50"/>
<path opacity="0.7" d="M129.55 85.835C129.59 87.175 128.18 102.305 128.005 105.375L113.55 103.375C113.515 103.15 113.47 102.795 113.41 102.335C113.23 100.92 112.94 98.505 112.605 95.895C112.46 94.815 112.315 93.695 112.155 92.605C111.875 90.605 111.585 88.71 111.31 87.26C111.182 86.4906 110.996 85.7318 110.755 84.99C109.99 82.95 111.525 80.905 113.755 80.695C114.35 80.64 114.98 80.595 115.63 80.56C117.904 80.4099 120.186 80.4099 122.46 80.56C123.205 80.625 123.96 80.715 124.71 80.81C127.37 81.165 129.47 83.34 129.55 85.835Z" fill="white"/>
<path d="M116.115 72.885C116.71 75.085 117.44 79.115 116.01 80.58C116.01 80.58 114.985 82.51 120.79 82.33C121.29 83.54 122.29 85.755 122.29 85.755C122.29 85.755 122.36 83.15 121.96 82.255C125.69 81.935 122.86 80.565 122.86 80.565C120.36 79.98 120.29 78.16 120.59 76.45L116.115 72.885Z" fill="#BA4D50"/>
<path opacity="0.2" d="M117.935 74.345L120.575 76.465C120.496 76.8652 120.456 77.2721 120.455 77.68C119.505 77.545 118.145 76.515 117.955 75.535C117.875 75.143 117.868 74.7396 117.935 74.345Z" fill="black"/>
<path d="M114.065 69.06C114.695 72.41 114.895 73.835 116.815 75.44C119.71 77.85 123.68 76.575 124.06 73.165C124.4 70.095 123.31 65.14 119.84 64.035C119.106 63.7695 118.314 63.705 117.547 63.8482C116.779 63.9914 116.064 64.3372 115.475 64.8496C114.886 65.3621 114.445 66.0226 114.197 66.7629C113.949 67.5031 113.904 68.2962 114.065 69.06Z" fill="#BA4D50"/>
<path d="M116.96 66.645C115.1 69.03 118.92 71.77 115.1 71.61C111.28 71.45 112.835 66.11 115.1 64.88C117.365 63.65 116.96 66.645 116.96 66.645Z" fill="#263238"/>
<path d="M115.115 64.92C115.615 67.2 115.96 67.795 118.005 67.175C117.7 66.7172 117.566 66.1669 117.625 65.62C117.829 66.1696 118.238 66.6192 118.765 66.875C119.314 66.6487 119.886 66.4811 120.47 66.375C120.358 66.0543 120.324 65.7116 120.37 65.375C120.531 65.7533 120.798 66.0765 121.14 66.305C121.768 66.3154 122.391 66.4251 122.985 66.63C123 64.22 118.875 61.63 115.115 64.92Z" fill="#263238"/>
<path d="M119.4 69.62C119.44 69.905 119.625 70.12 119.805 70.12C119.985 70.12 120.105 69.865 120.06 69.58C120.015 69.295 119.84 69.08 119.655 69.08C119.47 69.08 119.36 69.335 119.4 69.62Z" fill="#263238"/>
<path d="M122.84 69.42C122.885 69.7 123.065 69.92 123.245 69.92C123.425 69.92 123.545 69.67 123.505 69.385C123.465 69.1 123.28 68.885 123.1 68.885C122.92 68.885 122.8 69.135 122.84 69.42Z" fill="#263238"/>
<path d="M123 68.905L123.64 68.66C123.64 68.66 123.395 69.215 123 68.905Z" fill="#263238"/>
<path d="M121.95 69.955C122.294 70.5834 122.717 71.1649 123.21 71.685C123.078 71.7988 122.923 71.8817 122.755 71.9276C122.587 71.9734 122.411 71.9811 122.24 71.95L121.95 69.955Z" fill="#ED893E"/>
<path d="M113.735 72.29C113.875 72.5853 114.075 72.8484 114.322 73.0626C114.569 73.2769 114.858 73.4377 115.17 73.535C115.955 73.74 116.295 72.85 116.035 71.955C115.795 71.155 115.105 70.08 114.34 70.275C113.575 70.47 113.34 71.5 113.735 72.29Z" fill="#BA4D50"/>
<path d="M118.44 68.1001C118.483 68.0992 118.525 68.0812 118.555 68.0501C118.689 67.8957 118.859 67.777 119.05 67.7045C119.241 67.6321 119.447 67.6082 119.65 67.6351C119.671 67.6386 119.693 67.6379 119.713 67.633C119.734 67.6281 119.754 67.6191 119.771 67.6065C119.788 67.5939 119.803 67.5781 119.814 67.5598C119.825 67.5415 119.832 67.5212 119.835 67.5001C119.838 67.4555 119.826 67.4113 119.799 67.3754C119.772 67.3396 119.734 67.3146 119.69 67.3051C119.436 67.2661 119.176 67.2915 118.934 67.3788C118.692 67.4661 118.476 67.6127 118.305 67.8051C118.289 67.8204 118.277 67.8387 118.269 67.8589C118.26 67.879 118.256 67.9007 118.256 67.9226C118.256 67.9444 118.26 67.9661 118.269 67.9862C118.277 68.0064 118.289 68.0247 118.305 68.0401C118.322 68.0596 118.342 68.0751 118.366 68.0855C118.389 68.0959 118.414 68.1009 118.44 68.1001Z" fill="#263238"/>
<path d="M123.615 67.795C123.657 67.7973 123.698 67.783 123.73 67.755C123.746 67.7396 123.758 67.7213 123.766 67.7012C123.775 67.681 123.779 67.6594 123.779 67.6375C123.779 67.6156 123.775 67.594 123.766 67.5738C123.758 67.5536 123.746 67.5353 123.73 67.52C123.556 67.3132 123.338 67.149 123.091 67.0398C122.844 66.9306 122.575 66.8793 122.305 66.89C122.284 66.8923 122.263 66.8991 122.244 66.9099C122.226 66.9207 122.209 66.9353 122.197 66.9527C122.184 66.9701 122.175 66.99 122.17 67.011C122.166 67.0321 122.166 67.0539 122.17 67.075C122.18 67.1186 122.205 67.1573 122.24 67.184C122.276 67.2106 122.321 67.2234 122.365 67.22C122.578 67.2146 122.789 67.2567 122.984 67.3432C123.178 67.4297 123.351 67.5584 123.49 67.72C123.504 67.7405 123.523 67.7578 123.545 67.7707C123.566 67.7836 123.59 67.7919 123.615 67.795Z" fill="#263238"/>
<path d="M119.58 69.105L120.22 68.86C120.22 68.86 119.955 69.415 119.58 69.105Z" fill="#263238"/>
<path d="M122.025 73.305C121.741 73.6713 121.484 74.0572 121.255 74.46L121.025 74.375C119.985 73.975 119.64 73.45 119.565 72.99C119.532 72.7627 119.556 72.5308 119.635 72.315C119.674 72.1907 119.732 72.0728 119.805 71.965C120.334 72.496 120.972 72.9054 121.675 73.165C121.885 73.255 122.025 73.305 122.025 73.305Z" fill="#263238"/>
<path d="M121.675 73.165L121.44 73.5C120.465 73.125 119.825 72.725 119.635 72.315C119.674 72.1907 119.732 72.0728 119.805 71.965C120.334 72.496 120.972 72.9054 121.675 73.165Z" fill="white"/>
<path d="M121.025 74.375C119.985 73.975 119.64 73.45 119.565 72.99C119.957 73.1462 120.318 73.3715 120.63 73.655C120.833 73.8484 120.971 74.0999 121.025 74.375Z" fill="#DE5753"/>
<path d="M121.07 79.69C121.07 79.69 122.17 80.87 121.945 82.27L124.475 82.805C124.345 81.9764 123.937 81.2167 123.319 80.6506C122.7 80.0845 121.907 79.7457 121.07 79.69Z" fill="#BA4D50"/>
<path d="M120.79 82.33C120.79 82.33 117.4 80.38 116.645 79.33L115.145 80.465C115.145 80.465 114.67 82.235 116.72 83.825L120.79 82.33Z" fill="#BA4D50"/>
<path opacity="0.6" d="M121.07 79.69C121.07 79.69 122.17 80.87 121.945 82.27L124.475 82.805C124.345 81.9764 123.937 81.2167 123.319 80.6506C122.7 80.0845 121.907 79.7457 121.07 79.69Z" fill="white"/>
<path opacity="0.6" d="M120.79 82.33C120.79 82.33 117.4 80.38 116.645 79.33L115.145 80.465C115.145 80.465 114.67 82.235 116.72 83.825L120.79 82.33Z" fill="white"/>
<path d="M130.235 180.855H131L131.205 179.935L133.68 181.04H139.945C139.945 181.04 140.945 180.04 137.945 179.245C137.798 179.207 137.656 179.153 137.52 179.085C135.93 178.345 133.655 175.835 133.655 175.835H130.22C130.116 175.995 130.022 176.162 129.94 176.335C129.555 177.075 128.91 178.665 130.235 180.855Z" fill="#263238"/>
<path d="M129.93 176.32C130.38 175.82 132.455 178.025 133.97 178.775C135.32 179.445 136.84 179.735 137.51 179.05C135.92 178.31 133.405 175.05 133.405 175.05H130.64C130.64 175.05 130.09 176 129.93 176.32Z" fill="#CB797C"/>
<path d="M108.57 180.855H109.32L109.525 179.935L112 181.04H118.265C118.265 181.04 119.265 180.04 116.265 179.245C116.118 179.207 115.976 179.153 115.84 179.085C114.25 178.345 111.975 175.835 111.975 175.835H108.54C108.436 175.995 108.342 176.162 108.26 176.335C107.89 177.075 107.25 178.665 108.57 180.855Z" fill="#263238"/>
<path d="M108.265 176.32C108.715 175.82 110.79 178.025 112.305 178.775C113.66 179.445 115.175 179.735 115.845 179.05C114.255 178.31 111.74 175.05 111.74 175.05H108.975C108.975 175.05 108.425 176 108.265 176.32Z" fill="#CB797C"/>
<path d="M107.745 133.2C108.127 133.621 108.578 133.973 109.08 134.24C109.15 131.74 109.875 130.55 109.875 130.55C109.751 131.987 109.883 133.434 110.265 134.825C114.11 136.45 121.525 137.52 130.795 135.25C130.795 124.375 128.645 106.075 128.495 104.29C128.495 104.29 117.495 104.58 113.035 104.58C108.15 110.405 106.835 129.105 107.745 133.2Z" fill="#263238"/>
<path opacity="0.2" d="M107.745 133.2C108.127 133.621 108.578 133.973 109.08 134.24C109.15 131.74 109.875 130.55 109.875 130.55C109.751 131.987 109.883 133.434 110.265 134.825C114.11 136.45 121.525 137.52 130.795 135.25C130.795 124.375 128.645 106.075 128.495 104.29C128.495 104.29 117.495 104.58 113.035 104.58C108.15 110.405 106.835 129.105 107.745 133.2Z" fill="white"/>
<path d="M128.41 104.965C123.258 105.521 118.06 105.511 112.91 104.935C112.854 104.929 112.801 104.91 112.754 104.879C112.708 104.848 112.67 104.805 112.644 104.756C112.617 104.706 112.604 104.651 112.604 104.595C112.604 104.539 112.618 104.484 112.645 104.435L113.02 103.565C113.046 103.5 113.092 103.446 113.151 103.41C113.211 103.374 113.281 103.358 113.35 103.365C118.298 103.895 123.287 103.895 128.235 103.365C128.278 103.361 128.322 103.365 128.364 103.378C128.405 103.391 128.444 103.412 128.477 103.44C128.511 103.468 128.539 103.502 128.559 103.541C128.579 103.579 128.591 103.622 128.595 103.665L128.685 104.57C128.693 104.614 128.692 104.659 128.683 104.703C128.673 104.746 128.655 104.788 128.629 104.825C128.604 104.861 128.571 104.893 128.534 104.917C128.496 104.941 128.454 104.957 128.41 104.965Z" fill="#263238"/>
<path opacity="0.1" d="M113.68 87.205C113.68 87.205 113.495 90.73 112.155 92.615C111.875 90.615 111.585 88.72 111.31 87.27C112.067 86.9673 112.907 86.9443 113.68 87.205Z" fill="black"/>
<path opacity="0.1" d="M115.945 97.5V100.64C115.163 101.301 114.313 101.878 113.41 102.36C113.23 100.945 112.94 98.53 112.605 95.92C113.683 96.5185 114.799 97.0463 115.945 97.5Z" fill="black"/>
<path d="M121.41 101.01H117.675L116.995 94.36H122.095L121.41 101.01Z" fill="#BA4D50"/>
<path d="M122.37 93.965H116.72V94.635H122.37V93.965Z" fill="white"/>
<path d="M121.23 97.5C121.187 97.7609 121.07 98.004 120.894 98.2007C120.717 98.3973 120.488 98.5393 120.233 98.6098C119.978 98.6804 119.708 98.6765 119.456 98.5987C119.203 98.5208 118.978 98.3723 118.807 98.1707C118.636 97.969 118.526 97.7226 118.491 97.4606C118.456 97.1987 118.496 96.932 118.607 96.6922C118.718 96.4523 118.896 96.2494 119.119 96.1072C119.342 95.9651 119.601 95.8897 119.865 95.89C120.259 95.9244 120.623 96.1128 120.879 96.4143C121.134 96.7158 121.261 97.1059 121.23 97.5Z" fill="white"/>
<path d="M119.42 97.42L118.45 96.85C118.27 96.7462 118.068 96.6862 117.86 96.6749C117.653 96.6636 117.445 96.7014 117.255 96.785L115.455 97.595C115.1 97.7538 114.789 97.995 114.546 98.2985C114.303 98.602 114.137 98.9591 114.06 99.34L113.965 99.84C115.51 100.89 117.965 100.89 117.965 100.89L118.66 100.965C118.802 100.985 118.947 100.977 119.086 100.941C119.226 100.905 119.356 100.842 119.471 100.755C119.585 100.668 119.681 100.559 119.753 100.435C119.825 100.31 119.872 100.173 119.89 100.03L120.06 98.65C120.087 98.4047 120.041 98.1567 119.927 97.9377C119.813 97.7187 119.637 97.5385 119.42 97.42Z" fill="#BA4D50"/>
<path d="M112.635 81C108.385 81.67 104.07 95.085 104.71 97.5C105.35 99.915 114.835 100.37 114.835 100.37L115.115 97.5C115.115 97.5 110.35 96.09 109.67 95.175C108.99 94.26 112.635 88.82 112.635 88.82C113.435 87.6023 113.899 86.1948 113.98 84.74C114 81.95 112.635 81 112.635 81Z" fill="#BA4D50"/>
<path opacity="0.7" d="M112.635 81C108.385 81.67 104.07 95.085 104.71 97.5C105.35 99.915 114.835 100.37 114.835 100.37L115.115 97.5C115.115 97.5 110.35 96.09 109.67 95.175C108.99 94.26 112.635 88.82 112.635 88.82C113.435 87.6023 113.899 86.1948 113.98 84.74C114 81.95 112.635 81 112.635 81Z" fill="white"/>
<path d="M89.66 60.865C89.16 60.865 88.755 60.225 88.72 59.39C88.6946 59.0259 88.7617 58.6613 88.915 58.33C88.9651 58.1966 89.0508 58.0795 89.1627 57.9914C89.2747 57.9032 89.4086 57.8474 89.55 57.83H89.575C90.075 57.83 90.48 58.47 90.52 59.33C90.5439 59.6946 90.4751 60.0592 90.32 60.39C90.2699 60.5234 90.1843 60.6405 90.0723 60.7287C89.9604 60.8168 89.8264 60.8726 89.685 60.89L89.66 60.865ZM89.575 58.06C89.41 58.06 89.255 58.2 89.135 58.435C88.9997 58.7307 88.9412 59.0557 88.965 59.38C88.995 60.075 89.315 60.655 89.69 60.635C89.7901 60.6174 89.8837 60.5734 89.9611 60.5074C90.0385 60.4415 90.0968 60.3561 90.13 60.26C90.2671 59.9666 90.3273 59.6431 90.305 59.32C90.26 58.63 89.935 58.06 89.575 58.06Z" fill="#263238"/>
<path d="M88.9501 59.38C88.9501 59.65 89.1151 59.88 89.2951 59.88C89.4751 59.88 89.6051 59.645 89.5951 59.38C89.5851 59.115 89.4301 58.88 89.2501 58.88C89.0701 58.88 88.9351 59.105 88.9501 59.38Z" fill="#263238"/>
<path d="M89.09 59.865C89.4529 60.6847 89.9274 61.4503 90.5 62.14C90.3189 62.281 90.1093 62.3813 89.8858 62.434C89.6623 62.4866 89.4301 62.4904 89.205 62.445L89.09 59.865Z" fill="#ED847E"/>
<path d="M87.885 57.91C87.8436 57.904 87.8061 57.8826 87.78 57.85C87.7671 57.8333 87.7577 57.8142 87.7522 57.7938C87.7468 57.7734 87.7454 57.7522 87.7482 57.7313C87.751 57.7103 87.7579 57.6902 87.7685 57.6719C87.7791 57.6537 87.7932 57.6378 87.81 57.625C88.0059 57.4621 88.2379 57.3485 88.4867 57.2937C88.7355 57.2389 88.9938 57.2445 89.24 57.31C89.2791 57.3257 89.311 57.3554 89.3295 57.3932C89.3479 57.4311 89.3517 57.4745 89.34 57.515C89.3332 57.5351 89.3225 57.5537 89.3085 57.5697C89.2945 57.5856 89.2775 57.5986 89.2584 57.6079C89.2393 57.6172 89.2186 57.6227 89.1974 57.6239C89.1762 57.6251 89.155 57.6221 89.135 57.615C88.9395 57.5663 88.7352 57.5645 88.5388 57.6097C88.3425 57.6549 88.1596 57.7458 88.005 57.875C87.9885 57.8888 87.9693 57.8991 87.9487 57.9051C87.928 57.9112 87.9063 57.9128 87.885 57.91Z" fill="#263238"/>
<path d="M89.405 63.3C89.405 63.38 89.38 63.455 89.37 63.535C89.1702 64.6136 88.5943 65.5865 87.7447 66.2804C86.8951 66.9744 85.8269 67.3445 84.73 67.325C83.707 67.2867 82.7336 66.8739 81.995 66.165C80.225 64.52 80.185 62.55 79.83 59.21C79.7378 58.4346 79.8454 57.6485 80.1425 56.9263C80.4396 56.2042 80.9164 55.57 81.5276 55.084C82.1389 54.5981 82.8642 54.2764 83.6347 54.1497C84.4052 54.023 85.1954 54.0954 85.93 54.36C89.19 55.5 89.91 60.245 89.405 63.3Z" fill="#FFC3BD"/>
<path d="M80.5 64.665C81.74 65.665 87.12 63.83 86.715 59.72C86.715 59.72 88.965 57.745 89.145 55.22C89.325 52.695 87.755 51.445 85.835 51.695C84.145 51.92 84.05 52.81 84.05 52.81C84.05 52.81 76.27 52.51 77.415 55.875C73.75 58.755 78.935 63.425 80.5 64.665Z" fill="#263238"/>
<path d="M90.3949 59.1915L86.6876 59.6028L86.713 59.8314L90.4202 59.4201L90.3949 59.1915Z" fill="#263238"/>
<path d="M85.26 60.2C85.3526 61.029 85.7165 61.8041 86.295 62.405C87.065 63.19 87.795 62.655 87.91 61.66C87.99 60.765 87.69 59.28 86.775 58.865C85.86 58.45 85.16 59.195 85.26 60.2Z" fill="#FFC3BD"/>
<path opacity="0.2" d="M89.405 63.3C89.405 63.38 89.38 63.455 89.37 63.535C89.1702 64.6137 88.5942 65.5865 87.7446 66.2805C86.895 66.9744 85.8268 67.3446 84.73 67.325C85.655 66.735 86.91 65.71 87.295 64.275C87.93 61.905 86.965 58.975 86.965 58.975L87.465 58.29C87.465 58.29 88.355 62.09 88.25 63.09C88.195 63.775 88.925 63.525 89.405 63.3Z" fill="black"/>
<path d="M105.565 81.585H101.825L101.145 74.935H106.245L105.565 81.585Z" fill="#BA4D50"/>
<path d="M106.52 74.54H100.87V75.21H106.52V74.54Z" fill="#BA4D50"/>
<path d="M105.38 78.06C105.337 78.3202 105.221 78.5628 105.045 78.7592C104.869 78.9557 104.64 79.0977 104.386 79.1688C104.132 79.2398 103.863 79.2368 103.611 79.1602C103.359 79.0836 103.133 78.9365 102.962 78.7363C102.79 78.5361 102.679 78.291 102.642 78.0299C102.605 77.7687 102.643 77.5025 102.752 77.2623C102.861 77.0222 103.037 76.8182 103.258 76.6743C103.479 76.5304 103.736 76.4526 104 76.45C104.396 76.4807 104.765 76.6675 105.023 76.9694C105.282 77.2713 105.41 77.6635 105.38 78.06Z" fill="white"/>
<path opacity="0.8" d="M106.52 74.54H100.87V75.21H106.52V74.54Z" fill="white"/>
<path d="M81 64.945C81.5 67.445 81.595 69.335 79.86 70.99C79.86 70.99 80.54 73.49 85.14 73.49C90.2 73.49 87.555 70.99 87.555 70.99C84.795 70.33 84.865 68.28 85.35 66.36L81 64.945Z" fill="#FFC3BD"/>
<path d="M78.88 71.45C78.51 70.76 78.1 69.95 78.945 69.725C79.87 69.455 85.825 68.95 87.575 69.46C87.035 70.42 87.945 71.59 87.945 71.59L78.88 71.45Z" fill="#BA4D50"/>
<path opacity="0.2" d="M78.88 71.45C78.51 70.76 78.1 69.95 78.945 69.725C79.87 69.455 85.825 68.95 87.575 69.46C87.035 70.42 87.945 71.59 87.945 71.59L78.88 71.45Z" fill="black"/>
<path d="M65.88 176.82C66.0289 176.874 66.1871 176.897 66.3451 176.889C66.5032 176.88 66.6579 176.84 66.8 176.77C66.8548 176.72 66.8924 176.654 66.9076 176.581C66.9229 176.509 66.915 176.433 66.885 176.365C66.8692 176.308 66.8408 176.255 66.8019 176.21C66.763 176.165 66.7145 176.129 66.66 176.105C66.16 175.865 65.01 176.335 64.96 176.355C64.9445 176.362 64.9312 176.373 64.9215 176.387C64.9119 176.402 64.9062 176.418 64.905 176.435C64.9051 176.452 64.9099 176.468 64.9187 176.482C64.9275 176.496 64.9401 176.508 64.955 176.515C65.2517 176.649 65.5618 176.751 65.88 176.82ZM66.48 176.23C66.5168 176.236 66.5523 176.247 66.585 176.265C66.6172 176.278 66.6457 176.298 66.6684 176.324C66.691 176.35 66.707 176.381 66.715 176.415C66.765 176.57 66.715 176.62 66.685 176.635C66.485 176.805 65.745 176.635 65.225 176.44C65.6288 176.275 66.0646 176.203 66.5 176.23H66.48Z" fill="#BA4D50"/>
<path d="M65 176.5C65.415 176.38 66.315 175.74 66.325 175.32C66.3255 175.254 66.3035 175.19 66.2626 175.138C66.2217 175.086 66.1643 175.05 66.1 175.035C66.0363 175.012 65.9685 175.004 65.9012 175.01C65.8339 175.016 65.7686 175.036 65.71 175.07C65.21 175.32 64.905 176.345 64.89 176.39C64.8829 176.404 64.8793 176.419 64.8793 176.435C64.8793 176.451 64.8829 176.466 64.89 176.48C64.9034 176.495 64.9215 176.506 64.9415 176.509C64.9615 176.513 64.9821 176.51 65 176.5ZM66.05 175.19H66.085C66.195 175.225 66.195 175.28 66.195 175.3C66.195 175.55 65.595 176.05 65.16 176.25C65.2771 175.844 65.512 175.482 65.835 175.21C65.8967 175.19 65.9633 175.19 66.025 175.21L66.05 175.19Z" fill="#BA4D50"/>
<path d="M64.815 175.96L60.745 175.075C60.6729 175.061 60.5981 175.071 60.5327 175.105C60.4673 175.138 60.4152 175.193 60.385 175.26L59 178.32C58.966 178.395 58.9494 178.476 58.9513 178.558C58.9533 178.641 58.9738 178.721 59.0113 178.794C59.0488 178.867 59.1023 178.931 59.1679 178.981C59.2335 179.03 59.3094 179.064 59.39 179.08C60.815 179.365 61.52 179.43 63.31 179.815C64.41 180.055 66.895 180.66 68.415 180.99C69.935 181.32 70.46 179.86 69.865 179.585C67.21 178.375 66.1 177.305 65.365 176.31C65.2322 176.128 65.0358 176.003 64.815 175.96Z" fill="#263238"/>
<path d="M86.555 101.18C86.555 101.18 82.715 125.135 80.61 134.115C78.3 143.94 65.92 176.46 65.92 176.46L59.86 175.245C59.86 175.245 68.52 148.745 70.455 135.005C71.955 124.45 74.875 101.18 74.875 101.18H86.555Z" fill="#BA4D50"/>
<path opacity="0.7" d="M86.555 101.18C86.555 101.18 82.715 125.135 80.61 134.115C78.3 143.94 65.92 176.46 65.92 176.46L59.86 175.245C59.86 175.245 68.52 148.745 70.455 135.005C71.955 124.45 74.875 101.18 74.875 101.18H86.555Z" fill="white"/>
<path d="M76.535 77.415C75.88 78.14 75.145 78.97 74.475 79.78C73.805 80.59 73.14 81.425 72.51 82.28C71.251 83.9029 70.1446 85.6386 69.205 87.465C69.085 87.685 68.99 87.905 68.895 88.125L68.75 88.455L68.68 88.62L68.65 88.685C68.65 88.64 68.57 88.815 68.62 89.125C68.8208 89.9599 69.1588 90.7557 69.62 91.48C70.7505 93.2458 72.0124 94.9238 73.395 96.5L71.75 98.435C69.7571 97.14 67.9576 95.5694 66.405 93.77C65.4981 92.746 64.7955 91.558 64.335 90.27C64.021 89.3503 63.9742 88.3603 64.2 87.415L64.255 87.21L64.3 87.08L64.375 86.855L64.53 86.405C64.63 86.105 64.735 85.805 64.86 85.525C65.7899 83.3145 66.9639 81.2149 68.36 79.265C69.045 78.31 69.735 77.37 70.485 76.48C71.235 75.59 71.985 74.725 72.84 73.845L76.535 77.415Z" fill="#FFC3BD"/>
<path d="M72.4 95.5L74.9 95.685L73.775 99.43C73.775 99.43 71.89 99.09 71.165 97.62L72.4 95.5Z" fill="#FFC3BD"/>
<path d="M78.355 96.185L76.735 99.255L73.77 99.45L74.895 95.705L78.355 96.185Z" fill="#FFC3BD"/>
<path d="M89.08 177.445C89.58 177.445 90.015 177.375 90.17 177.165C90.2103 177.109 90.232 177.042 90.232 176.972C90.232 176.903 90.2103 176.836 90.17 176.78C90.1405 176.729 90.1008 176.684 90.0536 176.649C90.0063 176.614 89.9523 176.589 89.895 176.575C89.28 176.405 87.985 177.145 87.93 177.175C87.9139 177.183 87.9009 177.196 87.8928 177.213C87.8847 177.229 87.882 177.247 87.885 177.265C87.8877 177.283 87.8958 177.3 87.9083 177.313C87.9208 177.327 87.9371 177.336 87.955 177.34C88.3264 177.407 88.7027 177.442 89.08 177.445ZM89.67 176.725C89.7264 176.717 89.7836 176.717 89.84 176.725C89.8752 176.732 89.9085 176.746 89.9378 176.767C89.9671 176.788 89.9917 176.814 90.01 176.845C90.07 176.955 90.05 177.01 90.01 177.04C89.84 177.28 88.905 177.285 88.215 177.19C88.6646 176.941 89.1591 176.783 89.67 176.725Z" fill="#BA4D50"/>
<path d="M87.9601 177.34H88.0001C88.4451 177.135 89.3301 176.34 89.2651 175.915C89.2651 175.82 89.1751 175.695 88.9351 175.67C88.8459 175.66 88.7557 175.668 88.6697 175.694C88.5838 175.72 88.504 175.763 88.4351 175.82C87.9651 176.21 87.8651 177.205 87.8601 177.25C87.8581 177.265 87.8603 177.281 87.8665 177.295C87.8727 177.309 87.8825 177.321 87.8951 177.33C87.9148 177.341 87.9379 177.345 87.9601 177.34ZM88.8651 175.84H88.9201C89.0751 175.84 89.0851 175.92 89.0901 175.94C89.1301 176.19 88.5301 176.82 88.0901 177.095C88.1352 176.673 88.3098 176.274 88.5901 175.955C88.6662 175.887 88.7631 175.846 88.8651 175.84Z" fill="#BA4D50"/>
<path d="M87.57 176.825H83.525C83.4512 176.824 83.3793 176.848 83.3211 176.894C83.263 176.939 83.222 177.003 83.205 177.075L82.5 180.37C82.4818 180.45 82.4819 180.533 82.5005 180.612C82.519 180.692 82.5554 180.767 82.607 180.83C82.6585 180.894 82.7238 180.945 82.7979 180.979C82.8721 181.014 82.9531 181.031 83.035 181.03C84.495 181.005 86.6 180.92 88.435 180.92C90.58 180.92 92.435 181.035 94.935 181.035C96.435 181.035 96.875 179.5 96.24 179.36C93.34 178.725 90.975 178.655 88.47 177.11C88.2024 176.933 87.8907 176.834 87.57 176.825Z" fill="#263238"/>
<path d="M74.615 71.53C71.36 71.605 67.17 79.03 67.17 79.03L72.43 85.065C74.4031 83.6723 75.9784 81.7885 77 79.6C78.92 75.665 77.94 71.455 74.615 71.53Z" fill="#BA4D50"/>
<path opacity="0.2" d="M76.08 77.91C74.045 79.235 72.87 82.16 72.195 84.78L72.43 85.045C74.3991 83.6563 75.9738 81.7801 77 79.6C77.1133 79.3667 77.2183 79.1317 77.315 78.895L76.08 77.91Z" fill="black"/>
<path d="M94.415 83.5C94.36 85.445 94.225 87.695 93.965 90.31C93.74 92.625 93.415 95.22 92.965 98.13H74.965C74.835 95.63 76.5 83.45 73.82 71.685C75.8252 71.3409 77.8486 71.1122 79.88 71C82.4416 70.8649 85.0085 70.8649 87.57 71C89.3224 71.1585 91.0617 71.4392 92.775 71.84C92.775 71.84 94.68 73.75 94.415 83.5Z" fill="#BA4D50"/>
<path opacity="0.2" d="M94.415 83.5C94.36 85.445 94.225 87.695 93.965 90.31C92.465 88.77 90.535 86.365 90.725 84.31L94.415 83.5Z" fill="black"/>
<path opacity="0.2" d="M84.13 109.715C79.69 110.52 80.16 125.865 80.695 133.755C81.975 128.175 83.85 117.445 85.13 109.825C84.8166 109.684 84.4666 109.645 84.13 109.715Z" fill="black"/>
<path d="M93 101.18C93 101.18 93.47 124.825 93.1 134.465C92.72 144.495 88.97 177.34 88.97 177.34H83.21C83.21 177.34 83 145.085 82.745 135.23C82.465 124.49 81.08 101.18 81.08 101.18H93Z" fill="#BA4D50"/>
<path d="M94.36 75.335C94.65 76.255 94.99 77.285 95.36 78.25C95.73 79.215 96.09 80.2 96.49 81.15C97.2396 83.0226 98.1514 84.8261 99.215 86.54C99.475 86.95 99.75 87.34 100.03 87.71L100.245 87.98C100.149 87.898 100.043 87.8275 99.93 87.77C99.6739 87.6393 99.3866 87.5822 99.1 87.605C98.9023 87.6152 98.71 87.6736 98.54 87.775C98.38 87.895 98.475 87.87 98.54 87.775C98.6648 87.6573 98.7786 87.5284 98.88 87.39C99.1568 87.0234 99.4122 86.6411 99.645 86.245C100.645 84.53 101.565 82.545 102.47 80.625L104.92 81.31C104.631 83.5948 104.082 85.8393 103.285 88C103.063 88.594 102.798 89.1706 102.49 89.725C102.304 90.051 102.095 90.3634 101.865 90.66C101.535 91.0949 101.124 91.4616 100.655 91.74C100.246 91.9741 99.7898 92.1125 99.32 92.145C98.7597 92.1797 98.2007 92.0586 97.705 91.795C97.3538 91.6048 97.0362 91.3582 96.765 91.065L96.445 90.715C96.025 90.2484 95.635 89.7734 95.275 89.29C93.8963 87.3877 92.7231 85.3446 91.775 83.195C91.31 82.145 90.865 81.09 90.485 80.02C90.105 78.95 89.735 77.9 89.42 76.72L94.36 75.335Z" fill="#FFC3BD"/>
<path d="M87.41 75.575C85.19 79.68 91.97 86.075 91.97 86.075L98.735 81.425C97.676 78.8384 96.431 76.3319 95.01 73.925C92.335 69.5 89.105 72.455 87.41 75.575Z" fill="#BA4D50"/>
<path d="M104.09 82.46L107.435 79.865L104.73 77.365C104.73 77.365 102.135 78.865 102.5 81.285L104.09 82.46Z" fill="#FFC3BD"/>
<path d="M108.02 78.23L106.205 75.72L104.73 77.34L107.435 79.865L108.02 78.23Z" fill="#FFC3BD"/>
<path opacity="0.7" d="M93 101.18C93 101.18 93.47 124.825 93.1 134.465C92.72 144.495 88.97 177.34 88.97 177.34H83.21C83.21 177.34 83 145.085 82.745 135.23C82.465 124.49 81.08 101.18 81.08 101.18H93Z" fill="white"/>
<path d="M75.025 97.5C73.8433 101.451 73.4341 105.594 73.82 109.7H93.125L93.215 97.7L75.025 97.5Z" fill="#BA4D50"/>
<path opacity="0.7" d="M75.025 97.5C73.8433 101.451 73.4341 105.594 73.82 109.7H93.125L93.215 97.7L75.025 97.5Z" fill="white"/>
<path d="M79.425 97.95L74.695 97.895L74.57 99.125L79.425 99.17V97.95Z" fill="#263238"/>
<path d="M87.445 98.045L80.155 97.96V99.175L87.445 99.245V98.045Z" fill="#263238"/>
<path d="M87.96 98.05V99.25L93.215 99.295V98.11L87.96 98.05Z" fill="#263238"/>
<path opacity="0.2" d="M83.66 67.905C83.7915 67.8251 83.9305 67.7581 84.075 67.705C83.85 67.825 83.695 67.89 83.66 67.905Z" fill="black"/>
</svg>
