<svg width="250" height="246" viewBox="0 0 250 246" fill="none" xmlns="http://www.w3.org/2000/svg">
<path d="M250 57.0439H223.423V64.0149H250V57.0439Z" fill="#EBEBEB"/>
<path d="M112.277 218.421C112.28 216.081 111.738 213.772 110.694 211.673C109.65 209.575 108.133 207.743 106.259 206.32C104.385 204.898 102.205 203.922 99.8896 203.471C97.5739 203.019 95.1843 203.103 92.9066 203.716C90.6288 204.329 88.5243 205.454 86.7565 207.004C84.9886 208.555 83.6052 210.488 82.7136 212.655C81.822 214.822 81.4463 217.163 81.6157 219.497C81.7851 221.831 82.495 224.095 83.6902 226.113L83.7339 226.167C84.3239 227.153 85.0614 227.857 85.8098 228.875L94.7142 240.596C94.9723 240.936 95.3065 241.212 95.6904 241.402C96.0744 241.592 96.4975 241.691 96.9266 241.691C97.3557 241.691 97.7788 241.592 98.1628 241.402C98.5467 241.212 98.8809 240.936 99.139 240.596L107.88 229.081C108.679 228.147 109.423 227.169 110.108 226.151L110.141 226.113C111.533 223.784 112.27 221.128 112.277 218.421ZM96.8993 225.046C95.5625 225.046 94.2558 224.653 93.1445 223.916C92.0331 223.18 91.167 222.133 90.6557 220.908C90.1444 219.684 90.0109 218.336 90.272 217.037C90.5332 215.737 91.1774 214.543 92.123 213.606C93.0686 212.669 94.2731 212.032 95.5843 211.774C96.8955 211.516 98.2544 211.649 99.489 212.157C100.724 212.665 101.779 213.525 102.521 214.627C103.262 215.73 103.658 217.026 103.657 218.351C103.657 219.231 103.482 220.102 103.142 220.914C102.803 221.727 102.305 222.465 101.677 223.087C101.05 223.709 100.305 224.202 99.4848 224.538C98.665 224.874 97.7864 225.047 96.8993 225.046Z" fill="#E0E0E0"/>
<path d="M55.2945 23.9061H28.718V30.877H55.2945V23.9061Z" fill="#EBEBEB"/>
<path d="M43.7134 38.2217C43.7111 38.1802 43.7111 38.1386 43.7134 38.0971V37.7396C43.7134 37.4092 43.7134 36.9543 43.7134 36.3639C43.7134 35.1614 43.7134 33.4336 43.6697 31.2507L43.7517 31.332L17.1423 31.3861L17.2789 31.2507V33.0327C17.2789 33.6231 17.2789 34.2135 17.2789 34.7931V38.2217L17.1423 38.0917L36.0819 38.1513L41.6703 38.1892H43.1835H43.5768H43.7189C43.7189 38.1892 43.6806 38.1892 43.5987 38.1892H43.2163H41.7359L36.1747 38.2271L17.1423 38.3517H17.0112V38.2217C17.0112 37.0987 17.0112 35.9558 17.0112 34.7931V31.2616L17.1478 31.1262L43.7243 31.1803H43.8063V31.2616C43.8063 33.4661 43.7735 35.2102 43.7626 36.4234C43.7626 37.003 43.7626 37.458 43.7626 37.7776C43.7626 37.9184 43.7626 38.0321 43.7626 38.1242C43.7626 38.2163 43.7189 38.2271 43.7134 38.2217Z" fill="#E0E0E0"/>
<path d="M247.056 208.092H220.479V215.063H247.056V208.092Z" fill="#EBEBEB"/>
<path d="M235.474 222.403C235.47 222.361 235.47 222.319 235.474 222.278C235.474 222.186 235.474 222.067 235.474 221.92C235.474 221.59 235.474 221.135 235.474 220.55C235.474 219.342 235.447 217.614 235.431 215.432L235.513 215.513L208.936 215.567C208.996 215.507 208.799 215.702 209.067 215.432V222.397L208.936 222.267L227.876 222.327L233.464 222.365H234.977H235.371H235.513H235.387H235.01H233.524L227.968 222.403L208.887 222.554H208.75V215.437C209.018 215.172 208.827 215.367 208.887 215.302L235.463 215.356H235.545V215.437C235.545 217.641 235.513 219.386 235.502 220.604C235.502 221.178 235.502 221.633 235.502 221.958C235.502 222.099 235.502 222.208 235.502 222.3C235.495 222.335 235.486 222.369 235.474 222.403Z" fill="#E0E0E0"/>
<path d="M176.656 27.1559C176.654 27.1144 176.654 27.0728 176.656 27.0313V26.6738C176.656 26.3434 176.656 25.8885 176.656 25.3035C176.656 24.101 176.656 22.3678 176.613 20.1849L176.695 20.2662L150.118 20.3204L150.255 20.1849V23.7219C150.255 24.8846 150.255 26.0275 150.255 27.1505L150.123 27.0205L169.063 27.0801L174.651 27.118H176.165H176.563H176.656C176.656 27.118 176.618 27.118 176.536 27.118H176.154H174.673L169.112 27.1559L150.08 27.2155H149.949V27.0801C149.949 25.9589 149.949 24.816 149.949 23.6515V20.1904L150.085 20.0604L176.662 20.1091H176.744V20.1904C176.744 22.3949 176.711 24.1389 176.7 25.3576C176.7 25.9372 176.7 26.3868 176.7 26.7118V27.053C176.656 27.1234 176.656 27.1613 176.656 27.1559Z" fill="#E0E0E0"/>
<path d="M180.262 20.1849C180.257 20.1417 180.257 20.0982 180.262 20.0549V19.6866C180.262 19.34 180.262 18.8742 180.262 18.2892C180.262 17.0651 180.229 15.3372 180.207 13.214L180.305 13.3115L164.338 13.3494C164.217 13.4686 164.502 13.1869 164.469 13.214V16.7997C164.469 17.9696 164.469 19.0962 164.469 20.1795L164.343 20.0549L175.766 20.1145L179.093 20.147H179.989H180.311C180.215 20.1548 180.118 20.1548 180.021 20.147H179.147L175.87 20.1849L164.359 20.2445H164.228V20.1145C164.228 19.0312 164.228 17.9046 164.228 16.7347V13.2194L164.365 13.084L180.333 13.1219H180.431V13.2194C180.431 15.386 180.387 17.1138 180.376 18.3488C180.376 18.9283 180.376 19.3887 180.376 19.7245C180.376 20.0604 180.267 20.1958 180.262 20.1849Z" fill="#E0E0E0"/>
<path d="M26.6694 225.474C26.6694 225.474 26.6694 225.425 26.6694 225.344V224.986C26.6694 224.661 26.6694 224.201 26.6694 223.616C26.6694 222.413 26.6694 220.68 26.6203 218.503L26.7022 218.584L0.125644 218.633L0.262215 218.503V222.034C0.262215 223.193 0.262215 224.342 0.262215 225.463L0.131107 225.327L19.0707 225.392L24.6591 225.425H26.1723H26.5711H26.7077H26.5875H26.2051H24.7247L19.1635 225.463L0.131107 225.522H0V225.392C0 224.271 0 223.123 0 221.964V218.432L0.13657 218.297L26.7131 218.351H26.7951V218.432C26.7951 220.631 26.7623 222.381 26.7514 223.594C26.7514 224.174 26.7514 224.623 26.7514 224.948V225.289C26.7381 225.356 26.7101 225.419 26.6694 225.474Z" fill="#E0E0E0"/>
<path d="M30.253 218.503C30.249 218.458 30.249 218.412 30.253 218.367C30.253 218.27 30.253 218.145 30.253 217.999C30.253 217.658 30.253 217.192 30.253 216.602C30.253 215.377 30.2203 213.65 30.1984 211.532L30.2967 211.624L14.329 211.662L14.4601 211.532V215.112C14.4601 216.277 14.4601 217.409 14.4601 218.492L14.3344 218.362L25.7571 218.421L29.084 218.459H29.9799H30.3022C30.2059 218.467 30.109 218.467 30.0127 218.459H29.1386L25.8609 218.492L14.3508 218.551H14.2197V218.427C14.2197 217.344 14.2197 216.212 14.2197 215.047V211.467L14.3563 211.331L30.3241 211.369H30.4224V211.467C30.4224 213.633 30.3787 215.356 30.3678 216.596C30.3678 217.176 30.3678 217.631 30.3678 217.972C30.3678 218.313 30.2804 218.508 30.253 218.503Z" fill="#E0E0E0"/>
<path d="M236.714 245.634C236.714 245.71 184.397 245.775 119.876 245.775C55.3546 245.775 3.0264 245.71 3.0264 245.634C3.0264 245.558 55.3328 245.493 119.876 245.493C184.419 245.493 236.714 245.558 236.714 245.634Z" fill="#263238"/>
<path d="M225.559 41.0978H14.2142C10.3434 41.0978 7.20544 44.2091 7.20544 48.0471V189.855C7.20544 193.693 10.3434 196.804 14.2142 196.804H225.559C229.43 196.804 232.568 193.693 232.568 189.855V48.0471C232.568 44.2091 229.43 41.0978 225.559 41.0978Z" fill="#263238"/>
<path d="M232.568 48.0471L232.535 47.5597C232.526 47.3596 232.503 47.1605 232.464 46.9639C232.424 46.6869 232.362 46.4135 232.279 46.146C232.017 45.2407 231.571 44.3979 230.969 43.6696C230.367 42.9412 229.621 42.3425 228.777 41.9103C228.189 41.6118 227.562 41.395 226.914 41.2658C226.192 41.1479 225.46 41.1044 224.729 41.1358H219.654H206.997L126.338 41.1845H70.6177H15.0828C14.3962 41.1576 13.7086 41.1938 13.0288 41.2928C12.3525 41.4065 11.6982 41.624 11.0895 41.9374C9.8595 42.5633 8.84714 43.5407 8.18328 44.7431C7.86108 45.3487 7.62573 45.9959 7.48404 46.666C7.37141 47.3496 7.32749 48.0427 7.35294 48.735V61.4799C7.35294 67.1961 7.35294 72.9736 7.35294 78.8126V114.561C7.35294 138.854 7.35294 164.002 7.35294 189.763C7.34826 191.348 7.90349 192.885 8.92229 194.107C9.94109 195.329 11.3592 196.159 12.9305 196.452C13.7205 196.569 14.5199 196.608 15.3177 196.572H79.0578H149.714H213.629H224.745C225.348 196.591 225.95 196.564 226.548 196.49C228.007 196.29 229.362 195.628 230.412 194.604C231.462 193.579 232.151 192.246 232.377 190.803C232.445 190.226 232.468 189.645 232.448 189.064C232.448 188.479 232.448 187.9 232.448 187.315V183.843C232.448 174.631 232.448 165.797 232.448 157.34C232.448 123.579 232.486 96.2535 232.497 77.3664C232.497 67.9309 232.497 60.5754 232.524 55.6248C232.524 53.144 232.524 51.2483 232.524 49.97C232.524 48.6917 232.524 48.0471 232.524 48.0471C232.524 48.0471 232.524 48.6971 232.524 49.97C232.524 51.2429 232.524 53.144 232.524 55.6248C232.524 60.597 232.524 67.9309 232.524 77.3664C232.524 96.2535 232.557 123.579 232.579 157.34C232.579 165.783 232.579 174.617 232.579 183.843C232.579 184.997 232.579 186.15 232.579 187.315V189.064C232.597 189.656 232.571 190.248 232.503 190.835C232.331 192.037 231.851 193.175 231.109 194.141C230.366 195.106 229.387 195.867 228.263 196.349C227.695 196.587 227.098 196.753 226.488 196.842C225.879 196.917 225.266 196.946 224.653 196.929H213.65H149.736H79.0796H15.3286C14.5125 196.965 13.6948 196.924 12.8868 196.804C11.2426 196.497 9.75869 195.629 8.69213 194.351C7.62556 193.073 7.04358 191.465 7.04702 189.806C7.04702 164.046 7.04702 138.892 7.04702 114.604C7.04702 102.461 7.04702 90.5446 7.04702 78.8559V48.7892C7.02354 48.0785 7.07112 47.3673 7.18905 46.666C7.33654 45.9678 7.58106 45.2933 7.91561 44.6619C8.61278 43.4101 9.6676 42.3906 10.9475 41.7316C11.5826 41.4076 12.2644 41.1829 12.9687 41.0653C13.6647 40.963 14.3688 40.9249 15.0719 40.9516H39.5944H70.6232H126.344L207.002 41.0003H219.66H224.729C225.46 40.9758 226.192 41.023 226.914 41.1412C227.569 41.2715 228.202 41.494 228.793 41.802C229.643 42.2401 230.392 42.8464 230.995 43.5833C231.599 44.3203 232.043 45.1723 232.3 46.0864C232.38 46.354 232.439 46.6275 232.475 46.9043C232.512 47.1028 232.534 47.3038 232.541 47.5055C232.568 47.8792 232.568 48.0471 232.568 48.0471Z" fill="#263238"/>
<path d="M221.244 112.974C222.432 112.974 223.594 113.324 224.582 113.978C225.57 114.633 226.341 115.563 226.795 116.652C227.25 117.741 227.369 118.939 227.137 120.095C226.906 121.25 226.333 122.312 225.493 123.145C224.652 123.978 223.582 124.546 222.416 124.776C221.25 125.006 220.042 124.888 218.944 124.437C217.846 123.986 216.908 123.222 216.247 122.242C215.587 121.263 215.235 120.111 215.235 118.932C215.235 117.352 215.868 115.837 216.995 114.719C218.122 113.602 219.65 112.974 221.244 112.974Z" fill="#455A64"/>
<path d="M19.1144 102.997V134.808C19.1151 135.099 19.0578 135.388 18.9459 135.657C18.8339 135.927 18.6695 136.171 18.4619 136.378C18.2544 136.584 18.0078 136.748 17.7364 136.859C17.465 136.971 17.174 137.029 16.8801 137.029C16.586 137.029 16.2947 136.971 16.023 136.859C15.7512 136.748 15.5043 136.584 15.2964 136.378C15.0884 136.172 14.9234 135.927 14.8108 135.658C14.6983 135.388 14.6404 135.099 14.6404 134.808V103.013C14.6404 102.424 14.8763 101.859 15.2964 101.443C15.7164 101.026 16.2861 100.792 16.8801 100.792C17.4708 100.792 18.0374 101.024 18.4561 101.438C18.8748 101.851 19.1115 102.411 19.1144 102.997Z" fill="#455A64"/>
<path d="M211.487 46.1406H23.2825V192.027H211.487V46.1406Z" fill="#EBEBEB"/>
<path d="M144.628 151.453L159.181 176.883L194.962 176.357L192.935 148.761L144.628 151.453Z" fill="#E0E0E0"/>
<path d="M97.3308 65.5748L92.0756 105.77L102.93 108.338L124.153 106.247L120.258 62.3358L97.3308 65.5748Z" fill="#E0E0E0"/>
<path d="M64.3628 147.84H39.2776V117.892L66.537 118.163L64.3628 147.84Z" fill="#F5F5F5"/>
<path d="M167.632 148.761C167.632 147.91 172.051 118.163 172.051 118.163C172.051 118.163 189.346 113.467 189.412 114.139C189.478 114.81 192.854 147.97 192.854 147.97L167.632 148.761Z" fill="#F5F5F5"/>
<path d="M42.162 72.5728C42.2111 73.2986 54.1419 97.0877 54.1419 97.0877L67.9573 93.4586V66.0893L53.7103 65.7643L42.162 72.5728Z" fill="#E0E0E0"/>
<path d="M126.53 122.209H107.426V131.146H126.53V122.209Z" fill="#E0E0E0"/>
<path d="M126.617 134.109L107.377 135.073L106.399 153.186L128.371 151.453L126.617 134.109Z" fill="#E0E0E0"/>
<path d="M203.686 100.522L201.015 63.7548H211.438L211.487 99.7904L203.686 100.522Z" fill="#E0E0E0"/>
<path d="M161 57.7318L165.343 103.549L188.128 101.524L184.151 62.4441L166.113 57.7318H161Z" fill="#E0E0E0"/>
<path d="M56.3106 65.9268L23.4136 65.4339L23.4464 63.2674L54.5298 63.7332L58.1188 46.1568L60.2657 46.5847L56.3106 65.9268Z" fill="white"/>
<path d="M39.1192 101.318L23.1787 65.8726L23.6758 65.6506L39.4305 100.673L67.8918 93.1932L68.0283 93.7186L39.1192 101.318Z" fill="white"/>
<path d="M66.5425 117.621H23.4355V118.705H66.5425V117.621Z" fill="white"/>
<path d="M39.5453 100.998H38.999V147.845H39.5453V100.998Z" fill="white"/>
<path d="M64.5103 147.601H23.4355V148.143H64.5103V147.601Z" fill="white"/>
<path d="M62.3798 190.223L23.2606 181.665L23.7304 179.548L60.3859 187.569L66.6736 100.825L67.6186 64.746L69.0881 46.2868L71.2623 46.4547L69.7983 64.8869L68.8587 100.933L62.3798 190.223Z" fill="white"/>
<path d="M68.6183 67.243L55.3109 65.9106L55.5349 63.7548L67.2963 64.9356L69.2411 60.8191L86.7713 65.0331L165.6 56.123L193.061 63.1969L211.405 62.6715L211.471 64.8327L192.815 65.3743L165.441 58.3221L86.6347 67.2268L70.4648 63.3432L68.6183 67.243Z" fill="white"/>
<path d="M160.268 150.445L158.099 150.163L164.239 103.539L159.519 57.7751V46.1406H161.705V57.7209L166.441 103.566L160.268 150.445Z" fill="white"/>
<path d="M63.4341 156.858L63.303 154.697L192.154 146.93L209.69 111.528L211.651 112.481L193.558 149.015L192.925 149.053L63.4341 156.858Z" fill="white"/>
<path d="M127.95 152.758L119.712 62.3845L119.264 46.3897L120.357 46.3572L120.805 62.3249L129.037 152.66L127.95 152.758Z" fill="white"/>
<path d="M110.655 191.448L101.128 152.872V109.237L90.404 106.594L95.0583 65.1739L94.6268 46.1622L96.8119 46.1135L97.2489 65.2714L97.2435 65.3418L92.7858 104.947L103.313 107.547V152.606L112.78 190.933L110.655 191.448Z" fill="white"/>
<path d="M102.22 117.892H66.537V118.434H102.22V117.892Z" fill="white"/>
<path d="M67.8151 100.635L67.705 101.165L91.5368 106.028L91.6469 105.498L67.8151 100.635Z" fill="white"/>
<path d="M102.16 136.097L93.6817 134.239V118.163H94.228V133.806L102.28 135.566L102.16 136.097Z" fill="white"/>
<path d="M88.9236 191.42L84.16 176.26H62.358V174.093H85.7661L91.0104 190.776L88.9236 191.42Z" fill="white"/>
<path d="M159.022 177.159L144.393 151.583L144.868 151.317L159.339 176.612L211.367 175.843L211.378 176.384L159.022 177.159Z" fill="white"/>
<path d="M184.621 176.883H184.075V191.485H184.621V176.883Z" fill="white"/>
<path d="M194.689 176.379L192.662 148.782L182.217 46.1676L182.764 46.1135L193.209 148.733L195.235 176.336L194.689 176.379Z" fill="white"/>
<path d="M211.467 99.5097L102.2 108.112L102.243 108.652L211.511 100.05L211.467 99.5097Z" fill="white"/>
<path d="M201.554 64.6465L200.466 64.7434L203.711 100.581L204.799 100.484L201.554 64.6465Z" fill="white"/>
<path d="M202.797 84.7787L186.788 88.707L186.919 89.2328L202.928 85.3045L202.797 84.7787Z" fill="white"/>
<path d="M195.76 86.5851L192.925 70.65L184.932 69.8104L184.987 69.2742L193.389 70.1571L196.295 86.4876L195.76 86.5851Z" fill="white"/>
<path d="M141.653 60.4862L140.565 60.5787L144.359 104.464L145.448 104.372L141.653 60.4862Z" fill="white"/>
<path d="M162.878 84.4821L143.517 88.7063L143.634 89.2353L162.996 85.011L162.878 84.4821Z" fill="white"/>
<path d="M158.652 176.819L156.663 192.108L157.747 192.246L159.736 176.958L158.652 176.819Z" fill="white"/>
<path d="M68.7112 119.084L66.537 152.709L100.434 151.073V137.879L91.5567 135.934V120.53L68.7112 119.084Z" fill="#E0E0E0"/>
<path d="M59.3753 127.273C59.3759 126.1 59.1036 124.941 58.5795 123.889C58.0553 122.836 57.2935 121.917 56.3532 121.204C55.4129 120.491 54.3194 120.002 53.1576 119.775C51.9958 119.549 50.797 119.591 49.6544 119.899C48.5118 120.207 47.4561 120.771 46.5693 121.549C45.6825 122.327 44.9884 123.297 44.5411 124.384C44.0938 125.471 43.9051 126.645 43.9899 127.816C44.0747 128.987 44.4306 130.123 45.0299 131.135V131.162C45.3249 131.655 45.6909 132.007 46.0679 132.527L50.5365 138.399C50.6663 138.569 50.8343 138.708 51.0272 138.803C51.2201 138.898 51.4326 138.948 51.6481 138.948C51.8636 138.948 52.0762 138.898 52.2691 138.803C52.462 138.708 52.63 138.569 52.7598 138.399L57.1301 132.625C57.5299 132.156 57.9038 131.666 58.2499 131.157C58.9724 129.987 59.3613 128.645 59.3753 127.273ZM51.6727 130.599C51.0013 130.6 50.3447 130.404 49.7859 130.035C49.2272 129.665 48.7916 129.14 48.5341 128.525C48.2767 127.91 48.209 127.234 48.3398 126.581C48.4705 125.928 48.7937 125.328 49.2685 124.857C49.7432 124.386 50.3482 124.066 51.0068 123.936C51.6653 123.807 52.3479 123.874 52.968 124.129C53.5881 124.384 54.1179 124.816 54.4902 125.37C54.8626 125.924 55.0607 126.575 55.0597 127.241C55.0582 128.131 54.7009 128.985 54.0661 129.614C53.4312 130.243 52.5705 130.598 51.6727 130.599Z" fill="#BA4D50"/>
<path d="M131.861 100.403C131.864 99.2275 131.594 98.0677 131.071 97.0133C130.548 95.9589 129.786 95.0384 128.846 94.3234C127.905 93.6084 126.811 93.1182 125.649 92.8909C124.486 92.6636 123.286 92.7054 122.142 93.013C120.999 93.3206 119.942 93.8857 119.054 94.6643C118.167 95.443 117.473 96.4142 117.025 97.5023C116.578 98.5905 116.39 99.7663 116.476 100.938C116.563 102.11 116.92 103.247 117.521 104.259V104.292C117.816 104.784 118.188 105.136 118.565 105.656L123.044 111.517C123.174 111.688 123.342 111.826 123.535 111.921C123.728 112.016 123.94 112.066 124.156 112.066C124.371 112.066 124.584 112.016 124.777 111.921C124.97 111.826 125.138 111.688 125.268 111.517L129.676 105.749C130.068 105.28 130.433 104.79 130.769 104.281C131.479 103.109 131.856 101.769 131.861 100.403ZM124.159 103.728C123.488 103.728 122.832 103.531 122.274 103.161C121.716 102.792 121.281 102.266 121.025 101.652C120.768 101.037 120.701 100.361 120.831 99.7084C120.962 99.0559 121.285 98.4566 121.76 97.9862C122.234 97.5157 122.839 97.1954 123.497 97.0656C124.155 96.9358 124.837 97.0024 125.457 97.257C126.077 97.5116 126.607 97.9427 126.979 98.4959C127.352 99.049 127.551 99.6993 127.551 100.365C127.551 100.807 127.463 101.245 127.292 101.653C127.122 102.061 126.871 102.433 126.556 102.745C126.24 103.057 125.865 103.305 125.453 103.474C125.041 103.642 124.599 103.729 124.153 103.728H124.159Z" fill="#BA4D50"/>
<path d="M99.882 166.559C99.8846 165.753 99.6995 164.957 99.3412 164.233C98.9828 163.51 98.4608 162.878 97.8159 162.387C97.1709 161.896 96.4204 161.56 95.6228 161.404C94.8252 161.247 94.0019 161.276 93.2172 161.487C92.4325 161.698 91.7075 162.086 91.0987 162.62C90.4898 163.154 90.0136 163.82 89.707 164.567C89.4004 165.314 89.2717 166.12 89.331 166.924C89.3904 167.728 89.636 168.508 90.049 169.202C90.2511 169.538 90.5078 169.782 90.7646 170.134L93.8292 174.164C93.9185 174.279 94.0334 174.373 94.1651 174.438C94.2968 174.502 94.4417 174.536 94.5885 174.536C94.7354 174.536 94.8803 174.502 95.012 174.438C95.1437 174.373 95.2586 174.279 95.3479 174.164L98.3633 170.204C98.6378 169.882 98.8949 169.546 99.1336 169.197C99.616 168.399 99.8744 167.489 99.882 166.559ZM94.5995 168.839C94.139 168.84 93.6885 168.706 93.3051 168.453C92.9217 168.2 92.6225 167.84 92.4456 167.419C92.2686 166.997 92.2217 166.533 92.3109 166.085C92.4001 165.637 92.6213 165.225 92.9465 164.902C93.2718 164.579 93.6864 164.359 94.138 164.269C94.5896 164.18 95.0578 164.225 95.4833 164.4C95.9089 164.574 96.2726 164.87 96.5286 165.249C96.7845 165.629 96.9212 166.075 96.9212 166.532C96.9219 166.835 96.8624 167.135 96.746 167.415C96.6296 167.694 96.4588 167.949 96.2431 168.163C96.0274 168.378 95.7712 168.548 95.4892 168.664C95.2072 168.78 94.9048 168.839 94.5995 168.839Z" fill="#BA4D50"/>
<path d="M195.705 71.4895C195.7 70.1848 195.203 68.9291 194.313 67.9683C193.422 67.0075 192.202 66.4107 190.892 66.2949C189.581 66.179 188.274 66.5524 187.226 67.3419C186.179 68.1313 185.466 69.2801 185.227 70.5633C185.002 71.7912 185.231 73.0587 185.872 74.1327C186.074 74.4685 186.331 74.7123 186.588 75.0698L189.652 79.0942C189.742 79.2099 189.856 79.3036 189.988 79.3681C190.12 79.4326 190.265 79.4662 190.412 79.4662C190.559 79.4662 190.703 79.4326 190.835 79.3681C190.967 79.3036 191.082 79.2099 191.171 79.0942L194.186 75.1348C194.461 74.8127 194.718 74.4764 194.957 74.1273C195.439 73.33 195.697 72.4192 195.705 71.4895ZM190.423 73.7698C189.962 73.7709 189.511 73.6363 189.128 73.3832C188.744 73.1301 188.445 72.7698 188.268 72.3479C188.091 71.9261 188.045 71.4617 188.134 71.0136C188.224 70.5655 188.446 70.1539 188.772 69.8308C189.097 69.5078 189.513 69.288 189.964 69.1991C190.416 69.1102 190.885 69.1564 191.31 69.3317C191.736 69.507 192.099 69.8036 192.354 70.1839C192.61 70.5642 192.745 71.011 192.744 71.4678C192.744 72.0784 192.5 72.6639 192.064 73.0956C191.629 73.5273 191.038 73.7698 190.423 73.7698Z" fill="#BA4D50"/>
<path d="M83.2423 73.9811C83.2439 72.5537 82.9136 71.1452 82.2769 69.865C81.6403 68.5848 80.7146 67.4674 79.5716 66.5997C78.4286 65.7319 77.0993 65.1371 75.6868 64.8615C74.2743 64.5859 72.8167 64.637 71.4274 65.0107C70.038 65.3845 68.7543 66.0708 67.676 67.0164C66.5976 67.962 65.7537 69.1414 65.2098 70.463C64.6659 71.7845 64.4367 73.2126 64.5399 74.6363C64.6431 76.06 65.076 77.4409 65.805 78.6717L65.8323 78.7042C66.1874 79.3055 66.6408 79.7334 67.0942 80.3617L72.5297 87.506C72.6877 87.7124 72.8917 87.8799 73.1257 87.9951C73.3598 88.1104 73.6177 88.1704 73.879 88.1704C74.1404 88.1704 74.3982 88.1104 74.6323 87.9951C74.8664 87.8799 75.0704 87.7124 75.2283 87.506L80.5764 80.4646C81.0636 79.8947 81.5177 79.298 81.9367 78.6771C82.7864 77.2552 83.2372 75.6339 83.2423 73.9811ZM73.8736 78.0218C73.0576 78.0218 72.26 77.7818 71.5816 77.3322C70.9032 76.8826 70.3746 76.2436 70.0626 75.496C69.7506 74.7485 69.6692 73.926 69.8288 73.1325C69.9884 72.3391 70.3817 71.6105 70.9591 71.0388C71.5365 70.4671 72.2719 70.078 73.0723 69.9208C73.8727 69.7637 74.7022 69.8454 75.4557 70.1558C76.2092 70.4661 76.853 70.9911 77.3056 71.6643C77.7581 72.3375 77.9991 73.1287 77.998 73.9378C77.9965 75.0214 77.5614 76.0602 76.788 76.8259C76.0147 77.5917 74.9665 78.0218 73.8736 78.0218Z" fill="#BA4D50"/>
<path d="M32.9844 222.321C32.9844 222.321 20.6822 208.32 16.0497 194.313C11.4173 180.306 13.6243 181.931 13.6243 181.931C13.6243 181.931 19.8737 195.521 24.6209 202.091C29.3681 208.661 37.819 218.308 37.819 218.308L32.9844 222.321Z" fill="#455A64"/>
<path d="M35.4045 184.097C35.3229 183.952 35.1926 183.84 35.0363 183.781C34.88 183.721 34.7075 183.718 34.549 183.771C34.3904 183.825 34.2558 183.932 34.1686 184.073C34.0813 184.215 34.047 184.383 34.0715 184.547C34.8199 189.471 36.4369 201.013 36.3714 208.499C36.2894 218.248 36.3714 221.986 36.3714 221.986H41.4791C41.4791 221.986 40.5723 201.88 39.4196 195.748C38.6166 191.453 36.8958 186.681 35.4045 184.097Z" fill="#455A64"/>
<path d="M38.1851 220.35C40.3279 215.543 41.7452 210.449 42.3914 205.232C42.8121 201.652 42.0637 196.81 40.9438 190.353C40.5136 187.992 40.2978 185.598 40.2992 183.198C40.3066 182.933 40.4023 182.677 40.5713 182.47C40.7404 182.264 40.9733 182.119 41.2341 182.057C41.4949 181.995 41.7689 182.021 42.0137 182.129C42.2585 182.237 42.4604 182.423 42.5881 182.657C43.2054 183.74 44.9863 187.472 45.4397 189.812C46.6797 196.187 48.0782 199.372 47.0075 205.422C45.9368 211.472 41.9817 220.788 41.9817 220.788L38.1851 220.35Z" fill="#455A64"/>
<path d="M42.8175 220.761C42.8175 220.761 56.2888 192.054 57.2229 187.791C58.1571 183.529 61.331 173.709 61.7079 174.25C62.0848 174.792 62.642 179.992 60.2111 185.917C57.7801 191.843 47.4172 221.612 47.4172 221.612H42.8175" fill="#455A64"/>
<path d="M36.7101 219.478C36.5778 219.401 36.4517 219.314 36.3331 219.218C36.0928 219.039 35.7322 218.784 35.2897 218.427C34.3938 217.728 33.1374 216.667 31.6679 215.258C27.8736 211.548 24.5878 207.36 21.8949 202.8C19.2093 198.253 16.9737 193.459 15.2194 188.485C14.542 186.578 14.0503 185.018 13.728 183.935C13.5642 183.393 13.4494 182.971 13.3675 182.684C13.323 182.538 13.2883 182.39 13.2637 182.24C13.3299 182.378 13.3847 182.521 13.4276 182.667C13.5259 182.971 13.6625 183.382 13.8373 183.902C14.1869 184.986 14.7113 186.524 15.4106 188.42C17.2151 193.362 19.4677 198.132 22.1408 202.67C24.8274 207.207 28.0756 211.392 31.8099 215.128C33.2521 216.547 34.4867 217.631 35.3608 218.378C35.7923 218.752 36.1419 219.017 36.3714 219.212C36.4926 219.29 36.606 219.379 36.7101 219.478Z" fill="#263238"/>
<path d="M38.185 205.704C38.1233 205.425 38.0831 205.143 38.0649 204.859C37.9993 204.263 37.9174 203.488 37.819 202.557C37.606 200.618 37.2728 197.936 36.792 194.974C36.3113 192.011 35.7869 189.384 35.3717 187.472C35.175 186.557 35.0111 185.793 34.88 185.208C34.8037 184.933 34.7543 184.652 34.7325 184.368C34.8386 184.632 34.9244 184.904 34.9893 185.181C35.1423 185.722 35.3444 186.475 35.5738 187.429C36.0382 189.33 36.6008 191.978 37.0761 194.925C37.5514 197.871 37.8573 200.569 38.0212 202.508C38.1031 203.483 38.1523 204.274 38.1796 204.821C38.2095 205.114 38.2113 205.41 38.185 205.704Z" fill="#263238"/>
<path d="M41.3425 182.402C41.4078 182.519 41.4609 182.643 41.501 182.77L41.9052 183.854C42.0855 184.314 42.2876 184.883 42.4843 185.56C42.6809 186.237 42.9431 186.995 43.1398 187.862C43.2436 188.29 43.3583 188.739 43.473 189.211C43.5878 189.682 43.6642 190.18 43.768 190.689C43.9865 191.708 44.1231 192.813 44.3143 193.972C44.6042 196.498 44.712 199.041 44.6366 201.582C44.5303 204.127 44.24 206.661 43.768 209.165C43.5222 210.313 43.3037 211.407 43.0142 212.415C42.8721 212.913 42.7574 213.406 42.6099 213.866C42.4624 214.327 42.3149 214.765 42.1783 215.188C41.9216 216.038 41.6321 216.775 41.3589 217.436C41.0858 218.096 40.8727 218.649 40.6597 219.099L40.179 220.133C40.1313 220.257 40.069 220.375 39.9932 220.485C40.0273 220.357 40.0711 220.232 40.1243 220.111L40.5559 219.055C40.7526 218.6 40.982 218.042 41.2114 217.376C41.4409 216.71 41.7577 215.973 41.9872 215.128L42.3969 213.801C42.5389 213.341 42.6481 212.853 42.7793 212.355C43.0633 211.353 43.2654 210.264 43.5058 209.105C43.9586 206.617 44.2415 204.102 44.3525 201.576C44.4244 199.045 44.324 196.511 44.0521 193.993C43.8991 192.84 43.768 191.735 43.5604 190.743C43.4621 190.234 43.3911 189.736 43.2818 189.27L42.9705 187.921C42.7847 187.055 42.5444 186.297 42.3586 185.619C42.1729 184.942 41.9872 184.368 41.8123 183.897C41.6375 183.426 41.5447 183.09 41.4573 182.814C41.4031 182.681 41.3646 182.543 41.3425 182.402Z" fill="#263238"/>
<path d="M61.5276 174.846C61.53 174.889 61.53 174.933 61.5276 174.976C61.5276 175.079 61.4894 175.198 61.4675 175.35C61.4074 175.675 61.331 176.162 61.1999 176.78C60.9376 178.015 60.5061 179.791 59.8341 181.947C59.1622 184.103 58.239 186.632 57.1464 189.411C56.0539 192.19 54.7974 195.217 53.6011 198.44C52.4047 201.663 51.4542 204.805 50.5747 207.648C49.6952 210.492 48.8758 213.065 48.0727 215.177C47.457 216.851 46.7475 218.489 45.9477 220.084C45.6746 220.653 45.4014 221.076 45.2648 221.368L45.0736 221.698C45.0536 221.737 45.0298 221.773 45.0026 221.807C45.0026 221.807 45.0026 221.763 45.0518 221.682L45.2102 221.341C45.3577 221.043 45.5871 220.61 45.8494 220.036C46.3956 218.898 47.1222 217.224 47.887 215.107C48.6518 212.989 49.4603 210.427 50.3179 207.572C51.1756 204.718 52.1152 201.566 53.3334 198.337C54.5516 195.109 55.8026 192.081 56.9006 189.308C57.9986 186.535 58.9437 184.022 59.632 181.882C60.3203 179.743 60.7901 177.971 61.0851 176.747C61.2326 176.135 61.3255 175.664 61.402 175.334C61.4402 175.187 61.4675 175.063 61.4894 174.965C61.4958 174.924 61.5087 174.884 61.5276 174.846Z" fill="#263238"/>
<path d="M19.9775 168.503C19.7909 168.329 19.5512 168.22 19.2957 168.194C19.0403 168.169 18.7835 168.227 18.5653 168.362C18.3471 168.496 18.1797 168.698 18.0893 168.936C17.9989 169.174 17.9906 169.435 18.0655 169.679C18.5257 171.161 19.0916 172.609 19.759 174.012C21.6109 177.912 27.0518 191.919 29.592 199.61C32.1322 207.302 35.7158 221.633 35.7158 221.633L41.1786 220.761C41.1786 220.761 36.202 197.184 31.3456 188.691C27.4288 181.866 23.5228 171.997 19.9775 168.503Z" fill="#455A64"/>
<path d="M31.0889 204.404C31.2013 204.612 31.2945 204.829 31.3675 205.054C31.5314 205.476 31.7499 206.094 31.9957 206.863C32.4983 208.401 33.0883 210.551 33.7274 212.935C34.3666 215.318 34.8582 217.495 35.2133 219.071L35.623 220.94C35.677 221.168 35.7081 221.4 35.7159 221.633C35.6159 221.42 35.5408 221.197 35.4919 220.967C35.3608 220.474 35.1914 219.857 34.9948 219.12C34.5796 217.495 34.0333 215.367 33.4269 213.005C32.8206 210.643 32.2306 208.471 31.7881 206.922L31.2418 205.086C31.1647 204.865 31.1134 204.636 31.0889 204.404Z" fill="#263238"/>
<path d="M38.4472 221.2C38.4295 221.153 38.4185 221.104 38.4145 221.054C38.4145 220.94 38.3762 220.799 38.3544 220.631C38.2943 220.258 38.2451 219.7 38.1304 219.006C37.9337 217.587 37.5841 215.551 36.9887 213.048C36.2947 210.133 35.445 207.257 34.443 204.431C33.3504 201.235 31.9301 197.785 30.3459 194.21C27.1447 187.071 23.949 180.745 21.8458 176.059C20.786 173.725 19.9611 171.818 19.4203 170.491C19.1471 169.831 18.9505 169.311 18.8084 168.958L18.6609 168.558C18.6405 168.513 18.6258 168.465 18.6172 168.417C18.6172 168.417 18.6172 168.455 18.6883 168.547L18.8631 168.937L19.5241 170.448C20.1195 171.764 20.9663 173.655 22.0588 175.973C24.2057 180.631 27.4288 186.941 30.6354 194.091C32.2251 197.671 33.6181 201.132 34.7216 204.339C35.7154 207.179 36.5489 210.073 37.2181 213.005C37.6674 214.972 38.0175 216.961 38.267 218.963C38.3653 219.673 38.3981 220.231 38.4363 220.588C38.4363 220.767 38.4363 220.908 38.4746 221.016C38.4762 221.078 38.467 221.141 38.4472 221.2Z" fill="#263238"/>
<path d="M41.1786 220.761C41.0968 220.463 41.0365 220.159 40.9984 219.851C40.8891 219.223 40.7471 218.384 40.5723 217.376C40.2008 215.285 39.6272 212.409 38.8023 209.251C37.9774 206.094 37.0706 203.331 36.3659 201.327L35.5137 198.955C35.3951 198.67 35.2983 198.377 35.2242 198.077C35.3794 198.345 35.511 198.626 35.6175 198.917C35.8524 199.458 36.1638 200.26 36.5571 201.257C37.5398 203.852 38.3823 206.497 39.0809 209.181C39.7832 211.859 40.3484 214.571 40.7744 217.306C40.9274 218.356 41.0475 219.207 41.1076 219.803C41.1608 220.119 41.1846 220.44 41.1786 220.761Z" fill="#263238"/>
<path d="M52.3337 219.987H31.1052V245.634H52.3337V219.987Z" fill="#BA4D50"/>
<g opacity="0.3">
<path opacity="0.3" d="M52.3337 219.987H31.1052V245.634H52.3337V219.987Z" fill="black"/>
</g>
<path d="M45.5653 219.987H26.7295V245.634H45.5653V219.987Z" fill="#BA4D50"/>
<path d="M127.376 165.958C127.376 165.958 127.376 185.002 127.136 186.074C126.896 187.147 126.333 192.856 127.737 195.504C129.141 198.153 132.479 203.521 135.385 204.268C138.291 205.016 139.935 204.268 139.935 204.268C139.935 204.268 141.722 191.865 141.137 188.306C140.553 184.747 139.225 176.98 139.225 176.98L130.222 166.851L127.376 165.958Z" fill="#EED2D3"/>
<path d="M150.003 139.818L158.487 137.234L174.531 136.173L184.239 137.998L173.695 154.751L158.487 153.614L150.003 139.818Z" fill="#EED2D3"/>
<path d="M183.589 105.245C183.679 109.273 182.907 113.274 181.325 116.985C179.744 120.695 177.387 124.032 174.411 126.775C173.042 122.85 171.674 118.921 170.309 114.989" fill="#263238"/>
<path d="M152.658 81.8024C156.182 79.8959 160.437 79.6359 164.37 80.405C168.304 81.1741 171.975 82.9507 175.449 84.944C177.394 86.0598 179.339 87.2893 180.742 89.0388C183.299 92.2291 185.823 97.4668 186.074 101.535C186.271 104.822 184.982 113.055 183.6 116.045C182.31 118.786 176.29 120.871 173.319 121.548L146.065 90.1004C146.554 88.353 147.389 86.7196 148.521 85.295C149.653 83.8705 151.059 82.6833 152.658 81.8024Z" fill="#263238"/>
<path d="M147.955 86.0598L154.51 84.9006C150.937 93.3395 149.97 112.633 147.922 121.559C145.513 118.093 139.919 107.536 140.219 103.333C140.52 99.1296 140.187 85.3285 147.955 86.0598Z" fill="#263238"/>
<path d="M178.956 100.094C178.84 97.7271 177.961 95.4598 176.448 93.625C174.936 91.7902 172.87 90.4846 170.554 89.9L155.499 86.1085C148.993 85.4152 144.644 93.3503 144.218 99.8284C143.748 107.021 143.453 114.61 144.3 119.983C146.004 130.778 154.346 132.175 154.346 132.175C154.346 132.175 154.346 137.31 154.346 140.463L167.796 151.03L175.618 138.903L178.983 100.245C178.994 100.04 178.973 100.338 178.956 100.094Z" fill="#EED2D3"/>
<path d="M147.49 107.958C147.486 108.32 147.624 108.669 147.875 108.931C148.126 109.193 148.47 109.347 148.834 109.361C149.012 109.375 149.19 109.354 149.36 109.299C149.529 109.243 149.685 109.155 149.819 109.039C149.954 108.923 150.063 108.782 150.142 108.623C150.22 108.464 150.266 108.292 150.276 108.116C150.281 107.754 150.143 107.405 149.892 107.143C149.641 106.881 149.297 106.727 148.933 106.713C148.755 106.698 148.576 106.719 148.406 106.774C148.237 106.829 148.08 106.917 147.946 107.033C147.811 107.149 147.702 107.291 147.623 107.45C147.545 107.609 147.5 107.782 147.49 107.958Z" fill="#263238"/>
<path d="M145.852 104.032C146.026 104.216 147.086 103.441 148.583 103.447C150.08 103.452 151.183 104.205 151.347 104.021C151.429 103.939 151.254 103.614 150.774 103.268C150.125 102.819 149.352 102.58 148.561 102.585C147.778 102.579 147.012 102.82 146.376 103.273C145.928 103.625 145.77 103.934 145.852 104.032Z" fill="#263238"/>
<path d="M160.59 107.958C160.587 108.314 160.722 108.657 160.967 108.916C161.212 109.175 161.549 109.331 161.907 109.35C162.084 109.365 162.263 109.344 162.433 109.289C162.602 109.234 162.759 109.146 162.893 109.03C163.028 108.914 163.138 108.772 163.216 108.613C163.294 108.454 163.339 108.281 163.349 108.105C163.355 107.744 163.218 107.395 162.968 107.133C162.718 106.871 162.374 106.716 162.011 106.702C161.834 106.69 161.656 106.714 161.489 106.771C161.321 106.828 161.166 106.917 161.034 107.034C160.902 107.151 160.795 107.293 160.718 107.452C160.642 107.611 160.599 107.783 160.59 107.958Z" fill="#263238"/>
<path d="M160.12 104.032C160.295 104.216 161.355 103.441 162.852 103.447C164.349 103.452 165.458 104.205 165.616 104.021C165.698 103.939 165.523 103.614 165.042 103.268C164.394 102.819 163.621 102.58 162.83 102.585C162.046 102.579 161.281 102.82 160.645 103.273C160.197 103.625 160.038 103.934 160.12 104.032Z" fill="#263238"/>
<path d="M155.428 115.736C155.428 115.65 154.499 115.487 152.986 115.292C152.604 115.254 152.238 115.173 152.177 114.919C152.144 114.524 152.234 114.129 152.434 113.787L153.576 110.894C155.16 106.772 156.307 103.387 156.143 103.311C155.98 103.235 154.554 106.561 152.97 110.661L151.877 113.575C151.638 114.034 151.567 114.56 151.675 115.065C151.733 115.197 151.819 115.314 151.929 115.408C152.039 115.501 152.169 115.569 152.309 115.606C152.52 115.665 152.739 115.696 152.959 115.699C154.477 115.812 155.422 115.818 155.428 115.736Z" fill="#263238"/>
<path d="M168.79 128.308C168.79 128.308 165.244 135.723 154.352 134.689V132.154C159.431 132.222 164.429 130.89 168.79 128.308Z" fill="#BA4D50"/>
<path d="M160.596 98.6476C160.743 99.0538 162.234 98.8642 164.004 99.0809C165.774 99.2975 167.189 99.7742 167.424 99.4113C167.533 99.238 167.282 98.8696 166.709 98.4634C165.946 97.9743 165.077 97.6717 164.174 97.5805C163.273 97.4674 162.359 97.5715 161.508 97.8839C160.858 98.1384 160.53 98.458 160.596 98.6476Z" fill="#263238"/>
<path d="M146.343 99.4763C146.605 99.8176 147.643 99.4763 148.889 99.4763C150.134 99.4763 151.189 99.7092 151.429 99.3517C151.538 99.1838 151.369 98.8426 150.91 98.523C150.293 98.1359 149.574 97.9399 148.844 97.9602C148.114 97.9804 147.407 98.216 146.813 98.6368C146.37 98.9618 146.228 99.3084 146.343 99.4763Z" fill="#263238"/>
<path d="M147.157 89.9434C147.824 88.3184 149.621 87.3435 151.385 87.2351C153.164 87.2322 154.907 87.7361 156.406 88.6868C162.89 92.4024 166.239 101.377 172.63 105.223C174.209 106.171 176.258 105.304 177.596 106.556C178.934 107.807 179.808 109.805 179.065 111.479C179.983 110.349 180.732 109.094 181.289 107.753C181.564 107.079 181.69 106.355 181.659 105.629C181.628 104.903 181.44 104.192 181.108 103.544C180.562 102.591 179.573 101.865 179.306 100.798C179.071 99.8609 179.442 98.8805 179.404 97.911C179.294 96.9286 178.951 95.9859 178.404 95.1594C175.897 90.7558 172.444 86.7802 167.998 84.3265C165.098 82.6611 161.794 81.8127 158.443 81.8729C155.079 81.9516 151.855 83.2217 149.353 85.4531C147.916 86.7747 146.414 88.1614 147.168 89.9434" fill="#263238"/>
<path d="M177.465 107.915C177.58 107.606 183.255 105.575 183.332 111.56C183.403 117.372 177.487 116.229 177.476 116.061C177.465 115.894 177.465 107.915 177.465 107.915Z" fill="#EED2D3"/>
<path d="M179.262 113.841C179.289 113.841 179.366 113.911 179.541 113.987C179.786 114.084 180.06 114.084 180.305 113.987C180.923 113.754 181.436 112.774 181.453 111.728C181.465 111.228 181.362 110.732 181.152 110.277C181.095 110.096 180.995 109.931 180.86 109.797C180.725 109.663 180.559 109.564 180.376 109.508C180.258 109.483 180.135 109.498 180.027 109.55C179.918 109.602 179.83 109.688 179.776 109.795C179.699 109.957 179.737 110.071 179.71 110.082C179.683 110.093 179.579 109.984 179.628 109.746C179.657 109.601 179.736 109.47 179.852 109.378C180.009 109.261 180.204 109.207 180.398 109.226C180.642 109.268 180.871 109.372 181.062 109.528C181.254 109.683 181.401 109.885 181.491 110.114C181.748 110.617 181.876 111.175 181.862 111.739C181.862 112.909 181.24 114.014 180.393 114.263C180.236 114.31 180.071 114.321 179.909 114.296C179.747 114.27 179.593 114.209 179.459 114.117C179.278 113.982 179.246 113.852 179.262 113.841Z" fill="#BA4D50"/>
<path d="M179.797 104.925C179.673 104.872 179.554 104.807 179.442 104.73C179.218 104.589 178.869 104.4 178.459 104.113C177.305 103.272 176.243 102.313 175.291 101.253C173.908 99.6631 172.617 97.9976 171.423 96.2644C169.978 94.1496 168.359 92.1567 166.583 90.3063C165.633 89.3828 164.585 88.5638 163.458 87.8634C162.4 87.2216 161.266 86.7105 160.082 86.3414C158.079 85.7027 155.971 85.4473 153.871 85.5885C152.453 85.6726 151.053 85.944 149.708 86.3956C149.228 86.5418 148.872 86.6989 148.616 86.7964C148.491 86.8517 148.361 86.8952 148.228 86.9264C148.345 86.8579 148.468 86.7981 148.594 86.7477C148.948 86.5744 149.313 86.4243 149.686 86.2981C151.031 85.8035 152.44 85.5007 153.871 85.399C155.997 85.2336 158.135 85.4745 160.17 86.1085C161.373 86.4776 162.527 86.9906 163.606 87.636C164.75 88.348 165.814 89.1797 166.78 90.1167C168.569 91.982 170.192 93.9972 171.631 96.1398C172.815 97.8737 174.092 99.5443 175.454 101.145C176.385 102.208 177.419 103.179 178.541 104.042C178.945 104.346 179.278 104.546 179.492 104.703C179.599 104.769 179.702 104.843 179.797 104.925Z" fill="#455A64"/>
<path d="M179.934 114.87C180.222 114.82 180.518 114.881 180.763 115.039C181.008 115.198 181.182 115.443 181.252 115.724C181.321 116.006 181.28 116.303 181.137 116.556C180.994 116.808 180.759 116.998 180.48 117.085C180.198 117.183 179.889 117.168 179.618 117.044C179.347 116.92 179.135 116.697 179.027 116.421C178.918 116.145 178.922 115.838 179.037 115.565C179.153 115.292 179.37 115.074 179.644 114.957" fill="white"/>
<path d="M179.655 114.957C179.396 115.154 179.205 115.427 179.109 115.736C179.067 115.896 179.065 116.063 179.106 116.223C179.146 116.383 179.226 116.531 179.339 116.652C179.47 116.804 179.644 116.914 179.839 116.969C180.033 117.023 180.24 117.02 180.432 116.959C180.625 116.897 180.795 116.781 180.921 116.624C181.047 116.468 181.124 116.277 181.141 116.078C181.161 115.915 181.14 115.751 181.08 115.599C181.02 115.446 180.923 115.311 180.797 115.206C180.541 115.007 180.231 114.89 179.907 114.87C179.907 114.87 180 114.81 180.185 114.805C180.352 114.807 180.517 114.844 180.669 114.912C180.822 114.98 180.958 115.078 181.071 115.2C181.183 115.322 181.269 115.466 181.324 115.623C181.378 115.779 181.4 115.945 181.387 116.11C181.369 116.36 181.276 116.598 181.12 116.795C180.963 116.992 180.751 117.137 180.511 117.213C180.27 117.289 180.012 117.292 179.77 117.22C179.528 117.149 179.313 117.008 179.153 116.814C179.02 116.662 178.929 116.478 178.889 116.281C178.849 116.084 178.861 115.879 178.923 115.688C179.001 115.436 179.158 115.216 179.371 115.059C179.552 114.957 179.65 114.94 179.655 114.957Z" fill="#263238"/>
<path d="M178.322 106.572C178.415 108.159 178.486 109.822 177.749 111.246C177.011 112.671 175.138 113.619 173.75 112.828C172.614 112.189 172.27 110.743 172.078 109.459C171.532 105.759 171.27 102.011 170.68 98.3118L178.322 106.572Z" fill="#263238"/>
<path d="M148.621 87.181C148.621 87.2135 149.14 87.0835 150.08 87.051C151.407 87.0298 152.725 87.2691 153.958 87.7551C154.81 88.0829 155.625 88.4987 156.389 88.9955C157.263 89.5804 158.102 90.2152 158.902 90.8967C160.746 92.4454 162.397 94.2074 163.819 96.1452C164.567 97.1797 165.228 98.2468 165.938 99.238C166.615 100.2 167.406 101.078 168.293 101.854C169.81 103.137 171.473 104.24 173.248 105.142C174.75 105.933 175.979 106.48 176.869 106.864L177.869 107.287C177.984 107.342 178.105 107.384 178.23 107.411C178.127 107.336 178.015 107.274 177.896 107.227L176.924 106.745C176.072 106.334 174.837 105.749 173.357 104.942C171.62 104.016 169.99 102.906 168.495 101.632C167.632 100.863 166.864 99.9957 166.206 99.0484C165.501 98.0735 164.84 97.0064 164.092 95.9556C162.656 93.9942 160.981 92.2167 159.104 90.6638C158.294 89.9808 157.442 89.3477 156.553 88.768C155.767 88.2679 154.928 87.8555 154.051 87.5385C152.787 87.0612 151.436 86.8526 150.085 86.9264C149.718 86.9457 149.352 86.9946 148.993 87.0727C148.865 87.0937 148.74 87.1301 148.621 87.181Z" fill="#455A64"/>
<path d="M178.481 102.981C178.648 103.117 178.832 103.234 179.027 103.327L180.513 104.194L181.016 104.476C181.211 104.591 181.429 104.663 181.655 104.687C181.794 104.7 181.934 104.668 182.054 104.595C182.115 104.55 182.166 104.492 182.204 104.426C182.242 104.359 182.265 104.286 182.272 104.21C182.257 103.942 182.16 103.685 181.993 103.474C181.447 102.634 180.901 101.713 180.273 100.738L180.038 100.955C181.187 101.795 182.595 102.21 184.02 102.13C184.206 102.13 184.391 102.098 184.566 102.038C184.666 102.01 184.758 101.961 184.837 101.893C184.915 101.826 184.978 101.742 185.02 101.648C185.054 101.549 185.063 101.444 185.045 101.341C185.028 101.238 184.986 101.141 184.922 101.058C184.822 100.927 184.71 100.806 184.588 100.695C183.815 99.9524 183.143 99.113 182.589 98.198C182.102 97.3355 181.679 96.4395 181.322 95.5169C181.347 95.7859 181.409 96.0502 181.507 96.3023C181.733 96.9991 182.028 97.6722 182.387 98.3118C182.925 99.2655 183.594 100.141 184.375 100.912C184.594 101.118 184.812 101.35 184.725 101.535C184.637 101.719 184.326 101.811 184.015 101.811C182.665 101.876 181.333 101.482 180.24 100.695L179.541 100.186L180.01 100.912L181.769 103.62C181.901 103.774 181.986 103.962 182.015 104.162C182.012 104.2 182.001 104.238 181.982 104.272C181.963 104.306 181.937 104.336 181.905 104.359C181.873 104.382 181.837 104.398 181.799 104.406C181.76 104.414 181.72 104.414 181.682 104.405C181.305 104.334 180.947 104.188 180.628 103.977L179.093 103.197C178.899 103.1 178.693 103.027 178.481 102.981Z" fill="#455A64"/>
<path d="M161.142 118.483C161.032 118.04 160.769 117.65 160.398 117.38C160.028 117.11 159.574 116.977 159.115 117.004C158.781 117.047 158.462 117.171 158.187 117.365C157.912 117.558 157.688 117.816 157.536 118.114C157.393 118.417 157.311 118.744 157.296 119.078C157.281 119.412 157.333 119.745 157.449 120.059L157.482 120.2C157.793 120.536 158.202 120.768 158.652 120.865C159.102 120.962 159.571 120.919 159.995 120.741C160.41 120.543 160.748 120.214 160.956 119.805C161.163 119.397 161.229 118.932 161.142 118.483Z" fill="#BA4D50"/>
<path d="M156.389 120.232C156.389 120.005 157.908 120.075 159.055 118.84C160.202 117.605 160.109 115.991 160.323 115.991C160.421 115.991 160.601 116.365 160.585 117.042C160.553 117.925 160.209 118.769 159.612 119.425C159.041 120.062 158.241 120.451 157.384 120.508C156.744 120.519 156.378 120.335 156.389 120.232Z" fill="#263238"/>
<path d="M139.236 201.116L139.946 205.216L139.28 207.448C139.28 207.448 132.413 216.114 130.211 222.495C128.01 228.875 127.841 245.682 127.841 245.682L206.068 245.634C206.068 245.634 203.337 220.669 193.504 212.81V211.017L195.935 207.448C195.935 207.448 196.754 204.685 193.203 205.097C191.794 205.26 139.236 201.116 139.236 201.116Z" fill="#455A64"/>
<path d="M193.941 210.411H193.394L191.805 210.373C190.428 210.34 188.434 210.313 185.965 210.329C183.496 210.346 180.562 210.4 177.301 210.465C174.04 210.53 170.456 210.595 166.687 210.535C163.143 210.487 159.604 210.263 156.083 209.863C153.208 209.535 150.358 209.019 147.55 208.32C145.658 207.852 143.796 207.273 141.973 206.587C141.323 206.354 140.837 206.126 140.498 205.991L140.121 205.823C140.034 205.785 139.99 205.763 139.995 205.758L140.132 205.796L140.52 205.937C140.864 206.056 141.356 206.267 142.011 206.478C143.844 207.115 145.71 207.658 147.6 208.103C150.405 208.771 153.249 209.263 156.116 209.576C159.35 209.95 162.928 210.156 166.692 210.226C170.456 210.297 174.034 210.226 177.295 210.178C180.557 210.129 183.496 210.086 185.965 210.102C188.434 210.118 190.434 210.167 191.81 210.237C192.498 210.264 193.034 210.302 193.394 210.329L193.81 210.362C193.897 210.394 193.946 210.405 193.941 210.411Z" fill="#263238"/>
<path d="M193.941 214.007C193.896 214.016 193.849 214.016 193.804 214.007H193.389L191.799 213.969C190.423 213.937 188.429 213.91 185.959 213.926C183.49 213.942 180.557 213.996 177.295 214.061C174.034 214.126 170.451 214.191 166.681 214.132C162.912 214.072 159.323 213.845 156.078 213.46C153.203 213.132 150.352 212.616 147.545 211.916C145.653 211.447 143.79 210.867 141.967 210.178C141.317 209.945 140.831 209.723 140.493 209.587L140.116 209.419C140.028 209.381 139.984 209.36 139.99 209.354L140.127 209.392L140.514 209.533C140.859 209.652 141.35 209.858 142.006 210.075C143.839 210.712 145.704 211.254 147.594 211.7C150.399 212.367 153.244 212.859 156.111 213.173C159.345 213.547 162.923 213.752 166.687 213.823C170.451 213.893 174.029 213.823 177.29 213.774C180.551 213.725 183.49 213.682 185.959 213.698C188.429 213.715 190.428 213.763 191.805 213.834C192.493 213.861 193.028 213.899 193.389 213.926L193.804 213.958C193.897 213.996 193.946 214.002 193.941 214.007Z" fill="#263238"/>
<path d="M142.585 218.221C142.628 217.838 142.732 217.463 142.891 217.111C143.214 216.238 143.628 215.402 144.125 214.614C144.617 213.824 145.188 213.085 145.83 212.409C146.078 212.112 146.371 211.855 146.698 211.646C146.764 211.705 145.496 212.935 144.366 214.76C143.235 216.585 142.667 218.221 142.585 218.221Z" fill="#263238"/>
<path d="M145.365 223.21C145.331 223.06 145.322 222.907 145.338 222.755C145.342 222.34 145.37 221.926 145.42 221.514C145.587 220.155 145.883 218.815 146.305 217.511C146.718 216.21 147.233 214.942 147.845 213.72C148.075 213.201 148.359 212.707 148.692 212.247C148.502 212.778 148.28 213.297 148.026 213.801C147.477 215.039 146.993 216.305 146.578 217.593C146.162 218.884 145.843 220.204 145.622 221.541C145.453 222.554 145.409 223.215 145.365 223.21Z" fill="#263238"/>
<path d="M147.217 203.597C147.299 203.843 147.352 204.097 147.376 204.355C147.504 204.959 147.675 205.552 147.889 206.132C148.375 207.497 149.025 208.499 148.982 208.542C148.365 207.882 147.909 207.091 147.649 206.229C147.422 205.635 147.273 205.014 147.206 204.382C147.144 204.123 147.148 203.853 147.217 203.597Z" fill="#263238"/>
<path d="M149.533 205.222C149.813 205.786 150.008 206.389 150.113 207.009C150.311 207.607 150.416 208.232 150.424 208.861C149.943 207.7 149.643 206.472 149.533 205.222Z" fill="#263238"/>
<path d="M163.513 204.68C163.702 206.517 163.702 208.368 163.513 210.205C163.323 208.368 163.323 206.517 163.513 204.68Z" fill="#263238"/>
<path d="M165.261 206.094C165.67 207.479 165.631 208.956 165.152 210.318C165.07 210.318 165.228 209.365 165.255 208.206C165.283 207.047 165.184 206.104 165.261 206.094Z" fill="#263238"/>
<path d="M169.986 218.882C169.785 218.101 169.631 217.309 169.527 216.509C169.328 215.726 169.182 214.929 169.09 214.126C169.459 214.857 169.701 215.645 169.806 216.455C170.006 217.248 170.067 218.069 169.986 218.882Z" fill="#263238"/>
<path d="M123.121 164.874C122.968 164.382 128.715 148.084 132.124 145.614C135.532 143.144 150.921 139.607 150.921 139.607C150.921 139.607 157.4 145.944 166.086 144.628C174.772 143.312 181.442 137.234 181.442 137.234C181.442 137.234 197.879 139.368 200.671 141.34C203.462 143.312 211.05 161.18 211.05 161.18L197.655 172.246L196.47 182.267C196.47 182.267 197.093 203.136 195.694 205.276C194.296 207.415 139.558 201.972 139.558 201.972C139.558 201.972 136.767 201.479 138.936 196.555C141.104 191.632 142.661 188.339 142.661 188.339C142.661 188.339 138.783 184.065 138.16 176.504C137.537 168.942 136.013 168.13 136.013 168.13L123.121 164.874Z" fill="#BA4D50"/>
<path d="M196.399 181.882C196.317 181.882 197.142 175.079 198.24 166.716C199.338 158.353 200.283 151.55 200.359 151.577C200.436 151.604 199.6 158.375 198.508 166.765C197.415 175.155 196.475 181.893 196.399 181.882Z" fill="#263238"/>
<path d="M137.728 170.903C137.657 170.93 136.636 168.493 135.439 165.454C134.243 162.415 133.342 159.935 133.413 159.908C133.484 159.88 134.505 162.318 135.707 165.351C136.909 168.384 137.805 170.876 137.728 170.903Z" fill="#263238"/>
<g opacity="0.3">
<path opacity="0.3" d="M155.084 179.586C154.836 178.174 154.243 176.845 153.357 175.713C152.074 174.272 150.041 173.66 148.108 173.671C146.169 173.773 144.254 174.147 142.421 174.781L138.93 180.198C139.044 180.525 139.231 180.822 139.477 181.068C139.723 181.314 140.021 181.501 140.35 181.617C141.008 181.844 141.698 181.966 142.394 181.98C146.006 182.24 149.619 182.389 153.232 182.429C153.698 182.477 154.169 182.391 154.587 182.18C155.351 181.649 155.297 180.496 155.084 179.586Z" fill="black"/>
</g>
<path d="M131.228 154.751C131.344 154.929 131.439 155.12 131.512 155.32C131.681 155.688 131.91 156.23 132.184 156.907C132.73 158.256 133.462 160.157 134.199 162.231C134.937 164.306 135.549 166.245 135.958 167.648C136.166 168.341 136.33 168.91 136.428 169.305C136.498 169.505 136.543 169.712 136.559 169.923C136.461 169.736 136.382 169.54 136.324 169.338L135.778 167.713C135.319 166.332 134.686 164.425 133.943 162.334C133.2 160.243 132.511 158.353 132.009 156.988C131.774 156.349 131.577 155.807 131.419 155.363C131.331 155.167 131.267 154.962 131.228 154.751Z" fill="#263238"/>
<path d="M131.2 156.474L137.324 178.621C137.431 178.984 137.655 179.301 137.962 179.524C138.269 179.748 138.642 179.864 139.023 179.856H152.303C152.559 179.865 152.813 179.816 153.047 179.713C153.281 179.61 153.488 179.455 153.652 179.261C153.817 179.067 153.935 178.838 153.997 178.593C154.06 178.347 154.065 178.09 154.013 177.841L148.643 155.704C148.545 155.331 148.323 155.001 148.013 154.769C147.702 154.536 147.322 154.413 146.933 154.421H132.894C132.635 154.412 132.378 154.463 132.142 154.569C131.907 154.675 131.699 154.833 131.535 155.032C131.371 155.23 131.256 155.464 131.198 155.714C131.14 155.964 131.14 156.224 131.2 156.474Z" fill="#263238"/>
<path d="M135.811 160.612C135.811 160.612 134.227 159.864 132.976 160.612C131.725 161.359 129.698 164.663 129.698 164.663L128.447 169.917L129.305 177.056L129.643 180.366L137.728 181.275V178.627L146.988 171.764C146.988 171.764 150.238 170.87 149.987 169.912C149.736 168.953 149.32 168.287 148.403 168.46C147.485 168.634 137.564 171.168 137.564 171.168C137.564 171.168 135.98 171.499 136.062 171.082C136.144 170.665 140.733 168.52 141.481 168.021C142.23 167.523 145.737 166.7 145.305 165.129C145.253 164.846 145.137 164.578 144.965 164.346C144.794 164.113 144.572 163.922 144.315 163.787C144.059 163.652 143.775 163.577 143.484 163.566C143.194 163.556 142.905 163.61 142.639 163.726L134.631 166.619L133.298 166.949L133.467 164.88L134.882 162.979C135.009 163.018 135.142 163.033 135.274 163.02C135.406 163.008 135.535 162.969 135.651 162.906C135.768 162.844 135.871 162.758 135.954 162.655C136.037 162.552 136.098 162.434 136.133 162.307C136.245 162.023 136.275 161.713 136.218 161.414C136.161 161.114 136.02 160.836 135.811 160.612Z" fill="#EED2D3"/>
<path d="M134.735 166.581C134.12 166.93 133.46 167.196 132.774 167.371C132.119 167.645 131.43 167.827 130.725 167.913C131.341 167.567 132.001 167.301 132.686 167.122C133.342 166.852 134.031 166.67 134.735 166.581Z" fill="#BA4D50"/>
<path d="M136.559 171.353C135.985 171.666 135.369 171.898 134.729 172.04C134.116 172.273 133.472 172.415 132.817 172.463C134.004 171.92 135.265 171.555 136.559 171.38V171.353Z" fill="#BA4D50"/>
<path d="M146.48 171.845C146.338 171.957 146.182 172.05 146.015 172.122C145.704 172.284 145.251 172.506 144.677 172.766C143.192 173.432 141.673 174.021 140.126 174.532C138.58 175.047 137.006 175.479 135.412 175.827C134.8 175.962 134.32 176.054 133.954 176.108C133.774 176.149 133.591 176.169 133.407 176.168C134.046 175.95 134.697 175.769 135.357 175.626C136.565 175.317 138.225 174.857 140.028 174.261C141.831 173.665 143.437 173.042 144.595 172.577C145.209 172.298 145.838 172.054 146.48 171.845Z" fill="#BA4D50"/>
<path d="M131.818 175.729C131.79 175.799 131.271 175.529 131.107 174.9C130.944 174.272 131.217 173.779 131.277 173.817C131.337 173.855 131.228 174.294 131.381 174.814C131.534 175.334 131.861 175.664 131.818 175.729Z" fill="#BA4D50"/>
<path d="M130.222 171.553C130.222 171.585 130.075 171.553 129.889 171.461C129.657 171.303 129.482 171.074 129.392 170.81C129.301 170.545 129.299 170.259 129.387 169.993C129.463 169.793 129.561 169.701 129.594 169.717C129.627 169.733 129.474 170.199 129.665 170.719C129.856 171.239 130.222 171.477 130.222 171.553Z" fill="#BA4D50"/>
<path d="M129.299 166.44C129.304 166.527 129.294 166.615 129.272 166.7C129.234 166.9 129.185 167.139 129.13 167.436C128.993 168.119 128.802 169.061 128.584 170.177V170.145C128.939 172.658 129.425 176.298 129.955 180.382V180.414V180.452C129.851 180.728 129.736 181.021 129.627 181.319C128.435 184.66 127.88 188.192 127.988 191.735C128.018 192.808 128.108 193.878 128.256 194.941C128.305 195.293 128.343 195.58 128.376 195.808C128.399 195.909 128.408 196.013 128.403 196.117C128.367 196.02 128.339 195.92 128.321 195.819C128.278 195.624 128.207 195.337 128.141 194.957C127.955 193.893 127.837 192.819 127.786 191.74C127.616 188.166 128.15 184.593 129.359 181.221C129.469 180.923 129.583 180.625 129.687 180.349V180.42C129.141 176.33 128.704 172.69 128.409 170.166L129.059 167.458C129.135 167.166 129.195 166.916 129.245 166.732C129.255 166.634 129.273 166.536 129.299 166.44Z" fill="#BA4D50"/>
<path d="M139.061 177.852C138.537 178.389 137.906 178.813 137.209 179.098C136.551 179.464 135.824 179.691 135.073 179.764C135.073 179.688 135.991 179.374 137.084 178.843C138.176 178.313 139.012 177.782 139.061 177.852Z" fill="#BA4D50"/>
<path d="M190.313 189.108C190.313 189.108 192.427 189.649 192.635 191.014C192.843 192.379 191.155 215.93 191.155 215.93H193.165C193.165 215.93 193.968 192.601 193.935 190.933C193.902 189.265 193.105 189.156 192.804 189.037C191.987 188.804 191.116 188.828 190.313 189.108Z" fill="#263238"/>
<path d="M189.248 189.064L198.923 189.433L196.994 177.852L197.655 172.246L210.477 161.63C210.477 161.63 214.962 187.423 215.366 190.402C215.846 193.977 215.147 198.716 213.399 200.412C211.908 201.853 201.162 200.412 197.011 200.412C194.716 200.412 189.232 200.45 189.232 200.45L187.309 191.556L189.248 189.064Z" fill="#EED2D3"/>
<path d="M213.399 189.465C213.361 189.514 212.705 188.924 211.443 188.382C209.809 187.649 208.016 187.329 206.227 187.45C205.246 187.515 204.28 187.72 203.359 188.057C202.512 188.36 201.78 188.761 201.13 189.01C200.617 189.226 200.077 189.369 199.524 189.433C199.323 189.47 199.118 189.47 198.917 189.433C199.654 189.351 200.374 189.154 201.048 188.848C201.681 188.577 202.397 188.165 203.266 187.835C204.209 187.473 205.201 187.256 206.21 187.19C208.044 187.065 209.879 187.419 211.531 188.219C212.025 188.463 212.497 188.749 212.94 189.075C213.108 189.187 213.262 189.318 213.399 189.465Z" fill="#BA4D50"/>
<path d="M179.273 210.421C178.918 210.871 174.832 245.775 174.832 245.775L217.294 245.634L210.564 210.53L179.273 210.421Z" fill="#BA4D50"/>
<path d="M186.315 245.682C186.238 245.682 185.796 237.839 185.331 228.155C184.867 218.47 184.556 210.638 184.637 210.638C184.719 210.638 185.151 218.481 185.615 228.166C186.08 237.85 186.391 245.677 186.315 245.682Z" fill="#263238"/>
<path d="M169.008 189.649C170.181 189.48 171.342 189.236 172.483 188.918C173.017 188.66 173.534 188.367 174.029 188.041L179.491 187.602L189.243 189.064C189.243 189.064 190.881 190.234 190.647 193.825C190.447 196.23 189.925 198.598 189.095 200.867C189.095 200.867 184.725 204.393 183.556 204.61C182.387 204.826 175.722 204.458 175.061 203.943C174.67 203.65 174.343 203.282 174.1 202.86C173.744 202.68 173.457 202.389 173.283 202.032C173.11 201.675 173.059 201.271 173.138 200.883C173.138 200.883 170.849 197.953 170.554 196.707C170.259 195.461 170.625 195.169 170.625 195.169C170.625 195.169 169.964 193.484 170.478 192.899C170.607 192.756 170.764 192.641 170.939 192.56C171.115 192.479 171.305 192.433 171.498 192.427C171.691 192.42 171.884 192.453 172.064 192.522C172.245 192.591 172.41 192.695 172.548 192.829C173.067 193.414 176.318 192.975 176.318 192.975L179.196 191.068C177.715 191.442 176.209 191.711 174.69 191.875C173.144 191.919 168.489 192.948 169.008 189.649Z" fill="#EED2D3"/>
<path d="M180.311 196.555C180.311 196.599 179.715 196.702 178.787 197.021C178.322 197.178 177.771 197.384 177.148 197.563C176.464 197.791 175.75 197.918 175.028 197.942C174.289 197.965 173.559 197.777 172.925 197.4C172.424 197.085 171.979 196.69 171.609 196.23C171.361 195.927 171.133 195.609 170.926 195.277C170.778 195.044 170.707 194.909 170.724 194.898C170.74 194.887 171.112 195.374 171.762 196.1C172.134 196.526 172.571 196.891 173.056 197.184C173.654 197.521 174.335 197.686 175.023 197.66C176.498 197.622 177.754 197.064 178.732 196.815C179.239 196.639 179.773 196.551 180.311 196.555Z" fill="#BA4D50"/>
<path d="M182.299 193.977C182.327 193.977 182.431 194.042 182.507 194.242C182.6 194.504 182.6 194.788 182.507 195.05C182.418 195.313 182.238 195.538 181.999 195.683C181.813 195.792 181.682 195.792 181.666 195.759C181.649 195.727 182.065 195.472 182.239 194.957C182.414 194.443 182.228 194.01 182.299 193.977Z" fill="#BA4D50"/>
<path d="M182.081 200.385C181.634 200.513 181.174 200.595 180.71 200.628C179.858 200.748 178.678 200.888 177.377 201.024C176.761 201.106 176.141 201.153 175.52 201.165C175.004 201.175 174.489 201.094 174.001 200.926C173.534 200.802 173.129 200.51 172.865 200.108C173.229 200.38 173.635 200.592 174.067 200.737C174.539 200.871 175.03 200.928 175.52 200.905C176.066 200.905 176.695 200.813 177.345 200.748C178.65 200.607 179.83 200.498 180.688 200.433C181.149 200.371 181.616 200.355 182.081 200.385Z" fill="#BA4D50"/>
<path d="M184.605 198.066C184.637 198.066 184.741 198.175 184.812 198.419C184.905 198.737 184.905 199.075 184.812 199.393C184.721 199.713 184.543 200.001 184.299 200.228C184.108 200.39 183.955 200.439 183.938 200.412C183.922 200.385 184.359 199.978 184.539 199.328C184.613 198.912 184.635 198.488 184.605 198.066Z" fill="#BA4D50"/>
<path d="M183.037 203.337C182.614 203.46 182.177 203.525 181.737 203.532C179.624 203.699 177.497 203.567 175.422 203.142C174.985 203.083 174.558 202.964 174.154 202.79C174.592 202.803 175.027 202.856 175.454 202.947C176.252 203.066 177.356 203.201 178.579 203.277C179.803 203.353 180.917 203.353 181.726 203.337C182.162 203.296 182.601 203.296 183.037 203.337Z" fill="#BA4D50"/>
<path d="M192.28 188.907C192.28 188.907 194.192 190.326 194.547 191.188C194.902 192.049 198.721 210.416 198.721 210.416H200.359C200.359 210.416 196.464 190.516 195.514 189.747C195.172 189.473 194.807 189.23 194.421 189.021C194.1 188.853 193.746 188.754 193.383 188.733C193.021 188.711 192.657 188.767 192.318 188.896L192.28 188.907Z" fill="#263238"/>
<path d="M154.974 192.515C154.431 192.586 153.879 192.586 153.336 192.515C150.737 192.273 148.232 191.431 146.021 190.056C145.551 189.791 145.116 189.469 144.726 189.097C144.754 189.059 145.272 189.406 146.125 189.882C147.243 190.512 148.419 191.034 149.637 191.442C150.855 191.847 152.108 192.141 153.379 192.32C154.363 192.439 154.974 192.471 154.974 192.515Z" fill="#263238"/>
<g opacity="0.3">
<path opacity="0.3" d="M164.551 192.222C163.548 192.136 162.539 192.174 161.546 192.336C156.438 192.878 151.167 192.878 146.485 190.283C147.158 191.676 148.308 192.785 149.73 193.414C151.349 193.963 153.05 194.239 154.761 194.232C158.87 194.398 162.986 194.217 167.064 193.69C166.78 193.276 166.408 192.93 165.973 192.676C165.539 192.422 165.053 192.267 164.551 192.222Z" fill="black"/>
</g>
<path d="M148.954 140.224C148.954 138.302 148.184 136.459 146.814 135.1C145.443 133.741 143.584 132.977 141.645 132.977H97.1451C95.2419 133.029 93.4341 133.814 92.1063 135.167C90.7786 136.52 90.0357 138.334 90.0357 140.221C90.0357 142.109 90.7786 143.923 92.1063 145.276C93.4341 146.628 95.2419 147.414 97.1451 147.466H123.744C126.24 149.855 130.506 153.077 130.506 153.077V147.201L142.181 147.433C146.174 147.314 148.954 144.016 148.954 140.224Z" fill="white"/>
<path d="M148.954 140.224C148.954 140.224 148.954 140.354 148.954 140.62C148.944 141.009 148.9 141.397 148.823 141.779C148.703 142.402 148.505 143.008 148.233 143.582C147.849 144.366 147.328 145.076 146.693 145.679C145.889 146.428 144.911 146.971 143.847 147.26C143.55 147.338 143.249 147.402 142.945 147.45C142.628 147.486 142.309 147.506 141.989 147.509L139.974 147.477L130.512 147.309L130.616 147.206C130.616 149.058 130.616 151.025 130.616 153.072V153.305L130.436 153.164C128.25 151.49 125.918 149.67 123.651 147.553L123.738 147.591H107.623H98.855C98.1011 147.591 97.3636 147.618 96.5879 147.563C95.0991 147.447 93.6794 146.891 92.5113 145.969C91.3432 145.046 90.48 143.798 90.0326 142.385C89.8539 141.793 89.7475 141.182 89.7157 140.565C89.6881 139.952 89.732 139.338 89.8468 138.735C89.9751 138.137 90.175 137.557 90.4423 137.007C90.9657 135.924 91.7489 134.985 92.7231 134.272C93.6974 133.56 94.8331 133.094 96.0307 132.917C96.6117 132.839 97.1982 132.808 97.7843 132.825H109.464L132.184 132.858H140.924C141.547 132.838 142.17 132.87 142.787 132.955C143.36 133.045 143.921 133.199 144.459 133.416C145.395 133.804 146.242 134.379 146.944 135.106C147.507 135.68 147.965 136.347 148.299 137.077C148.434 137.368 148.553 137.667 148.654 137.971C148.73 138.253 148.796 138.513 148.845 138.74C148.913 139.097 148.952 139.46 148.96 139.823C148.96 140.067 148.96 140.192 148.96 140.192C148.96 140.192 148.96 140.067 148.927 139.823C148.904 139.46 148.857 139.098 148.785 138.74C148.73 138.513 148.659 138.258 148.577 137.982C148.478 137.682 148.357 137.388 148.217 137.104C147.881 136.386 147.42 135.732 146.857 135.171C146.159 134.469 145.324 133.916 144.404 133.546C143.876 133.338 143.326 133.191 142.765 133.107C142.155 133.025 141.539 132.996 140.924 133.02H132.184H109.464H97.7843C97.2129 133 96.6408 133.029 96.0744 133.107C94.6272 133.333 93.2833 133.989 92.2208 134.989C91.1584 135.99 90.4277 137.286 90.1254 138.708C89.899 139.876 89.9589 141.082 90.3002 142.223C90.4851 142.792 90.7382 143.338 91.0541 143.848C91.6439 144.805 92.4557 145.609 93.4221 146.192C94.3885 146.775 95.4814 147.121 96.6098 147.201C97.3418 147.255 98.1121 147.201 98.855 147.228H107.628H123.744H123.793L123.831 147.26C126.076 149.367 128.403 151.193 130.578 152.872L130.392 152.958C130.392 150.911 130.392 148.945 130.392 147.092V146.989H130.501L139.957 147.201C141.345 147.201 142.656 147.368 143.781 147.011C144.826 146.768 145.796 146.279 146.611 145.586C147.241 145 147.761 144.307 148.146 143.539C148.595 142.624 148.859 141.63 148.922 140.614C148.938 140.349 148.954 140.224 148.954 140.224Z" fill="#263238"/>
<path d="M139.351 142.483C139.234 142.491 139.118 142.491 139.001 142.483C138.476 142.413 137.983 142.191 137.585 141.844C137.187 141.497 136.902 141.041 136.765 140.533C136.628 140.026 136.646 139.489 136.817 138.992C136.987 138.494 137.302 138.058 137.722 137.738C138.143 137.418 138.649 137.228 139.178 137.193C139.707 137.158 140.234 137.279 140.694 137.541C141.153 137.803 141.524 138.194 141.759 138.665C141.995 139.136 142.084 139.665 142.017 140.186C141.926 140.823 141.606 141.406 141.116 141.828C140.627 142.25 140 142.483 139.351 142.483ZM139.351 137.7C138.832 137.7 138.331 137.888 137.942 138.228C137.553 138.568 137.302 139.037 137.237 139.547C137.165 140.104 137.319 140.667 137.663 141.112C138.008 141.557 138.517 141.85 139.078 141.925C139.64 141.997 140.209 141.845 140.659 141.502C141.108 141.158 141.402 140.652 141.476 140.094C141.513 139.818 141.494 139.538 141.422 139.269C141.349 139 141.224 138.748 141.053 138.527C140.882 138.306 140.668 138.121 140.425 137.982C140.182 137.843 139.913 137.752 139.635 137.716C139.539 137.705 139.442 137.7 139.345 137.7H139.351Z" fill="#263238"/>
<path d="M143 143.106C142.936 143.105 142.874 143.082 142.825 143.041L141.072 141.589C141.044 141.566 141.021 141.538 141.004 141.507C140.988 141.475 140.977 141.441 140.974 141.406C140.971 141.37 140.975 141.334 140.985 141.3C140.996 141.266 141.013 141.235 141.036 141.207C141.059 141.18 141.087 141.157 141.119 141.141C141.151 141.124 141.186 141.114 141.221 141.111C141.257 141.107 141.293 141.111 141.327 141.122C141.362 141.132 141.394 141.149 141.421 141.172L143.175 142.624C143.231 142.67 143.266 142.736 143.273 142.808C143.28 142.88 143.259 142.952 143.213 143.008C143.187 143.039 143.154 143.064 143.118 143.081C143.081 143.098 143.041 143.106 143 143.106Z" fill="#263238"/>
<path d="M97.6805 142.391L98.041 141.584C98.4225 141.828 98.8654 141.961 99.3193 141.968C99.7782 141.968 99.953 141.838 99.953 141.654C99.953 141.042 97.7679 141.486 97.7679 140.056C97.7679 139.368 98.3142 138.805 99.4887 138.805C99.9793 138.799 100.464 138.915 100.898 139.141L100.559 139.953C100.226 139.764 99.8506 139.661 99.4668 139.655C99.0025 139.655 98.8386 139.807 98.8386 140.002C98.8386 140.587 101.024 140.148 101.024 141.567C101.024 142.239 100.477 142.813 99.3029 142.813C98.7329 142.826 98.1707 142.68 97.6805 142.391Z" fill="#263238"/>
<path d="M105.241 138.865V142.721H104.148V141.215H102.652V142.721H101.559V138.865H102.652V140.316H104.148V138.865H105.241Z" fill="#263238"/>
<path d="M105.815 140.793C105.782 140.359 105.881 139.925 106.101 139.548C106.32 139.171 106.648 138.868 107.044 138.679C107.439 138.49 107.883 138.423 108.317 138.488C108.751 138.552 109.155 138.744 109.477 139.04C109.8 139.335 110.025 139.72 110.123 140.144C110.221 140.568 110.189 141.012 110.029 141.418C109.87 141.823 109.591 142.171 109.229 142.418C108.867 142.664 108.439 142.796 108 142.797C107.721 142.818 107.441 142.782 107.178 142.69C106.914 142.599 106.672 142.455 106.467 142.267C106.262 142.079 106.098 141.851 105.986 141.597C105.874 141.344 105.815 141.07 105.815 140.793ZM109.027 140.793C109.019 140.588 108.951 140.39 108.831 140.223C108.71 140.056 108.543 139.928 108.35 139.855C108.157 139.781 107.946 139.766 107.744 139.81C107.542 139.855 107.358 139.957 107.214 140.105C107.071 140.253 106.974 140.439 106.936 140.64C106.899 140.842 106.922 141.05 107.003 141.239C107.083 141.428 107.218 141.589 107.391 141.702C107.563 141.816 107.766 141.876 107.972 141.876C108.115 141.878 108.256 141.851 108.387 141.796C108.518 141.742 108.637 141.662 108.735 141.56C108.834 141.459 108.911 141.338 108.961 141.206C109.011 141.074 109.033 140.934 109.027 140.793Z" fill="#263238"/>
<path d="M114.216 140.295C114.216 141.167 113.55 141.714 112.49 141.714H111.813V142.721H110.72V138.865H112.501C113.55 138.865 114.216 139.412 114.216 140.295ZM113.124 140.295C113.124 139.937 112.9 139.726 112.441 139.726H111.813V140.853H112.419C112.878 140.853 113.102 140.647 113.102 140.295H113.124Z" fill="#263238"/>
</svg>
