<svg width="249" height="211" viewBox="0 0 249 211" fill="none" xmlns="http://www.w3.org/2000/svg">
<path d="M90.7865 22.3378L93.3026 22.883L100.629 17.2335L101.843 12.7734C101.843 12.7734 105.784 13.4028 103.738 19.1761C101.693 24.9495 102.591 23.5619 102.591 23.5619C102.591 23.5619 110.832 25.3459 111.331 26.1388C111.708 26.7087 109.951 34.0679 108.959 38.0721C108.46 40.084 106.587 41.6451 104.381 41.6699C104.072 41.6747 103.763 41.6464 103.461 41.5856C101.405 41.1396 91.3019 37.3683 91.3019 37.3683L86.9624 36.4317L90.7865 22.3378Z" fill="#EBEBEB"/>
<path d="M83.9308 19.5527L81.3149 35.2522L85.6156 36.1839L89.6947 21.1237L83.9308 19.5527Z" fill="#EBEBEB"/>
<path d="M121.429 9.06166L123.092 8.56609L124.97 3.01576L123.862 0.091928C123.862 0.091928 126.345 -0.819912 127.509 3.10001C128.673 7.01993 128.617 5.94951 128.617 5.94951C128.617 5.94951 134.004 4.32901 134.614 4.61148C135.052 4.81466 137.025 9.56714 138.066 12.1292C138.338 12.7441 138.373 13.4225 138.165 14.057C137.957 14.6915 137.519 15.246 136.919 15.6329C136.747 15.7362 136.561 15.8195 136.365 15.8806C135.018 16.287 127.791 17.402 127.791 17.402L124.937 18.2693L121.429 9.06166Z" fill="#E0E0E0"/>
<path d="M116.424 9.69113L121.257 19.4141L124.067 18.5568L120.32 8.72974L116.424 9.69113Z" fill="#E0E0E0"/>
<path d="M174.207 184.849L165.118 208.16H169.662L185.568 184.849H174.207Z" fill="#EBEBEB"/>
<path d="M226.347 184.849L235.436 208.16H230.892L214.986 184.849H226.347Z" fill="#EBEBEB"/>
<path d="M247.967 120.5H175.343V185.438H247.967V120.5Z" fill="#EBEBEB"/>
<path d="M225.217 120.5H152.593V185.438H225.217V120.5Z" fill="#F5F5F5"/>
<path d="M220.223 181.266H157.597V125.267H220.223V181.266ZM158.151 180.77H219.669V125.762H158.151V180.77Z" fill="#E0E0E0"/>
<path d="M158.218 142.889C168.487 143.157 178.807 142.889 189.082 142.919C199.357 142.949 209.666 143.058 219.946 142.919C219.984 142.919 220.021 142.905 220.048 142.881C220.075 142.857 220.09 142.824 220.09 142.79C220.09 142.756 220.075 142.723 220.048 142.699C220.021 142.675 219.984 142.661 219.946 142.661C209.666 142.507 199.368 142.661 189.082 142.661C178.796 142.661 168.487 142.428 158.218 142.696C158.188 142.701 158.161 142.716 158.142 142.737C158.122 142.758 158.112 142.785 158.112 142.812C158.112 142.84 158.122 142.866 158.142 142.887C158.161 142.909 158.188 142.923 158.218 142.929V142.889Z" fill="#E0E0E0"/>
<path d="M190.667 134.603C190.667 134.916 190.563 135.222 190.369 135.482C190.175 135.742 189.899 135.944 189.576 136.064C189.253 136.183 188.897 136.215 188.554 136.154C188.211 136.093 187.896 135.942 187.649 135.721C187.402 135.5 187.233 135.218 187.165 134.912C187.097 134.605 187.132 134.287 187.266 133.998C187.399 133.709 187.626 133.463 187.917 133.289C188.208 133.115 188.549 133.022 188.899 133.022C189.368 133.022 189.818 133.189 190.149 133.485C190.481 133.782 190.667 134.184 190.667 134.603Z" fill="#EBEBEB"/>
<path d="M165.206 159.966C165.206 160.279 165.103 160.585 164.908 160.845C164.714 161.105 164.438 161.307 164.115 161.427C163.792 161.547 163.436 161.578 163.093 161.517C162.751 161.456 162.435 161.305 162.188 161.084C161.941 160.863 161.773 160.581 161.704 160.275C161.636 159.968 161.671 159.65 161.805 159.361C161.939 159.073 162.165 158.826 162.456 158.652C162.747 158.478 163.089 158.385 163.438 158.385C163.907 158.385 164.357 158.552 164.688 158.849C165.02 159.145 165.206 159.547 165.206 159.966Z" fill="#EBEBEB"/>
<path d="M222.119 103.64L229.711 121L224.995 120.98L221.21 110.311L222.119 103.64Z" fill="#E0E0E0"/>
<path d="M196.203 87.5989L193.599 120.861L220.528 121.367L223.559 87.5989H196.203Z" fill="#EBEBEB"/>
<path d="M198.897 90.2749L196.725 117.967L216.748 118.805L219.547 90.1113L198.897 90.2749Z" fill="#FAFAFA"/>
<path d="M203.292 94.1899L201.668 113.656H212.713L214.664 94.1899H203.292Z" fill="#E0E0E0"/>
<path d="M59.2018 5.04272H11.6392V49.376H59.2018V5.04272Z" fill="#E0E0E0"/>
<path d="M55.9818 5.04272H8.41919V49.376H55.9818V5.04272Z" fill="#EBEBEB"/>
<path d="M49.5919 11.0044H14.8149V43.4193H49.5919V11.0044Z" fill="#FAFAFA"/>
<path d="M14.8147 43.6323C14.5597 43.9586 14.2681 44.2608 13.9446 44.5343C13.3904 45.0298 12.6034 45.7633 11.7278 46.5165C10.8521 47.2698 10.0651 47.9784 9.46104 48.469C9.15859 48.7499 8.82635 49.0038 8.46899 49.2273C8.72761 48.9051 9.02497 48.6093 9.35574 48.3452C9.90995 47.8248 10.6969 47.1112 11.5726 46.3629C12.4483 45.6146 13.2352 44.8762 13.8449 44.4104C14.1389 44.1233 14.4638 43.8627 14.8147 43.6323Z" fill="#E0E0E0"/>
<path d="M49.5862 43.5432C49.9433 43.7724 50.2738 44.033 50.5727 44.3213C51.1269 44.8168 51.9471 45.5205 52.7895 46.3035C53.6319 47.0865 54.4189 47.7902 54.9676 48.3304C55.2853 48.5978 55.5696 48.8952 55.8156 49.2174C55.4597 48.9906 55.131 48.7315 54.8346 48.4444C54.2804 47.9488 53.4601 47.2451 52.6177 46.4621C51.7753 45.6791 50.9551 44.9754 50.4341 44.4352C50.1214 44.1619 49.8375 43.8633 49.5862 43.5432Z" fill="#E0E0E0"/>
<path d="M49.4919 11.0885C49.7517 10.7702 50.0449 10.4748 50.3676 10.2064C50.9218 9.71087 51.7088 8.97743 52.5845 8.22417C53.4601 7.47091 54.2471 6.76721 54.8512 6.2766C55.1562 5.99669 55.4882 5.74132 55.8432 5.51343C55.5877 5.82725 55.2961 6.11626 54.9731 6.37571C54.4189 6.89606 53.6319 7.60471 52.7563 8.35797C51.8806 9.11123 51.0936 9.84467 50.484 10.3105C50.186 10.6014 49.8533 10.8623 49.4919 11.0885Z" fill="#E0E0E0"/>
<path d="M14.7206 11.1679C14.3634 10.9388 14.0329 10.6781 13.7341 10.3899C13.1799 9.89434 12.3596 9.1956 11.5172 8.40765C10.6748 7.6197 9.88783 6.92095 9.33916 6.38079C9.02201 6.11111 8.73777 5.8121 8.49121 5.48877C8.84363 5.71945 9.17196 5.9782 9.47217 6.26185C10.0264 6.75742 10.8466 7.46608 11.689 8.24411C12.5314 9.02215 13.324 9.73081 13.8726 10.2759C14.1883 10.5469 14.4724 10.8457 14.7206 11.1679Z" fill="#E0E0E0"/>
<path d="M49.4919 43.4191C49.4919 43.4191 49.4919 43.3646 49.4919 43.2605C49.4919 43.1565 49.4919 43.0028 49.4919 42.8096C49.4919 42.4082 49.4919 41.8184 49.4919 41.0602C49.4919 39.5289 49.4919 37.2939 49.4586 34.4593C49.4586 28.7801 49.4254 20.6925 49.4032 11.0042L49.514 11.1033H14.8369L14.9643 10.9893C14.9643 22.8829 14.9643 34.0182 14.9643 43.4043L14.8535 43.3002L39.9705 43.3547H47.0201H48.8822H49.3644H49.5307H48.8712H47.0256H40.0037L14.8147 43.543H14.7039V43.4439C14.7039 34.0579 14.7039 22.9275 14.7039 11.029V10.8853H14.8369H49.514H49.6304V10.9893C49.6304 20.7024 49.5861 28.8297 49.5695 34.5089C49.5695 37.3336 49.5695 39.5587 49.5695 41.09C49.5695 41.8383 49.5695 42.4181 49.5695 42.8145C49.5695 43.0078 49.5695 43.1515 49.5695 43.2556C49.5695 43.3597 49.4919 43.4191 49.4919 43.4191Z" fill="#E0E0E0"/>
<path d="M23.9926 24.5432C23.9926 24.5432 23.2444 32.5714 32.9653 32.5714C32.9653 28.2897 29.0137 24.905 23.9926 24.5432Z" fill="#EBEBEB"/>
<path d="M41.7774 24.548C41.7774 24.548 32.8047 23.884 32.8047 32.5762C37.6208 32.5762 41.3728 29.0428 41.7774 24.548Z" fill="#EBEBEB"/>
<path d="M32.5385 20.1575C32.5385 20.1575 25.2062 26.0448 32.9375 32.5466C36.5122 29.1718 36.2295 23.8197 32.5385 20.1575Z" fill="#E0E0E0"/>
<path d="M248.471 209.141C248.471 209.216 194.546 209.27 128.041 209.27C61.5351 209.27 7.60449 209.216 7.60449 209.141C7.60449 209.067 61.5129 209.012 128.041 209.012C194.569 209.012 248.471 209.062 248.471 209.141Z" fill="#263238"/>
<path d="M43.994 106.48C36.0853 95.6617 37.2381 80.2149 46.6819 70.4374C49.6137 67.3996 53.7094 64.7632 58.1763 65.1051C62.7541 65.452 66.4396 68.9606 67.8307 72.8756C69.2218 76.7906 68.7396 81.0277 67.9249 85.0665C66.7777 90.7259 64.8601 96.5141 60.4708 100.716C56.0814 104.919 49.6359 109.24 43.994 106.48Z" fill="url(#paint0_linear_14068_15306)"/>
<path d="M48.3667 158.514C45.3851 152.3 47.5465 144.435 53.4046 140.178C55.2224 138.85 57.5999 137.824 59.8667 138.36C62.1334 138.895 63.7462 141.021 64.051 143.147C64.3558 145.273 63.6963 147.423 62.865 149.435C61.7011 152.26 60.1272 155.085 57.4392 156.894C54.7513 158.703 50.9937 160.407 48.3667 158.529" fill="url(#paint1_linear_14068_15306)"/>
<path d="M29.3074 154.822C31.4854 145.233 25.8325 134.658 16.1282 130.143C13.1132 128.741 9.40555 127.913 6.36846 129.271C3.33137 130.629 1.76848 134.053 2.01234 137.155C2.25619 140.258 3.92992 143.102 5.76991 145.754C8.347 149.45 11.506 153.038 15.912 154.897C20.318 156.755 26.2038 158.172 29.3074 154.822Z" fill="url(#paint2_linear_14068_15306)"/>
<path d="M30.6708 128.899C34.4561 117.972 28.0327 104.731 17.3364 98.4617C14.0111 96.5191 9.81016 95.1612 6.10247 96.4249C2.3061 97.7183 0.122496 101.509 0.0061113 105.142C-0.110274 108.774 1.45261 112.278 3.24826 115.549C5.7644 120.113 8.96775 124.623 13.8504 127.244C18.733 129.866 26.625 132.482 30.6763 128.909" fill="url(#paint3_linear_14068_15306)"/>
<path d="M38.2691 182.301C38.2099 182.128 38.169 181.951 38.1472 181.771C38.0807 181.375 37.9975 180.869 37.8922 180.245C37.8423 179.913 37.7869 179.541 37.7204 179.145C37.6539 178.748 37.5431 178.307 37.4433 177.846C37.2438 176.915 37.0387 175.864 36.6951 174.694C36.5399 174.115 36.3737 173.505 36.2019 172.876C36.0301 172.246 35.7862 171.597 35.5645 170.923C35.16 169.57 34.5559 168.168 33.9906 166.671C32.6371 163.47 31.062 160.346 29.2742 157.32C27.445 154.316 25.409 151.416 23.1778 148.638C22.0694 147.389 21.1217 146.16 20.0853 145.114L18.6111 143.548L17.1868 142.161C16.2945 141.269 15.4188 140.525 14.6596 139.866L13.6066 138.939L12.681 138.196L11.3953 137.205C11.2343 137.094 11.0908 136.964 10.9685 136.818C11.1416 136.909 11.3049 137.013 11.4562 137.131L12.803 138.122L13.7895 138.791L14.8979 139.693C15.6793 140.337 16.5605 141.07 17.4861 141.952L18.9436 143.31L20.44 144.856C21.4986 145.907 22.4906 147.126 23.588 148.375C25.8625 151.155 27.9287 154.067 29.773 157.092C31.5691 160.136 33.1409 163.281 34.4783 166.508C35.0325 167.994 35.6255 169.427 36.0134 170.799C36.2296 171.473 36.4346 172.132 36.6286 172.782C36.8226 173.431 36.9445 174.035 37.0942 174.62C37.4101 175.79 37.593 176.86 37.7648 177.802C37.8534 178.267 37.931 178.709 38.0031 179.115C38.0751 179.521 38.0917 179.883 38.1305 180.225C38.197 180.849 38.2469 181.36 38.2913 181.761C38.3094 181.941 38.302 182.123 38.2691 182.301Z" fill="#263238"/>
<path d="M37.992 184.254C37.9774 184.182 37.9774 184.108 37.992 184.036C37.992 183.862 38.0253 183.659 38.0419 183.401C38.1084 182.807 38.1915 181.999 38.2968 180.973C38.3522 180.443 38.4188 179.858 38.4908 179.224C38.5629 178.59 38.5628 177.881 38.6072 177.133C38.6681 175.646 38.8289 173.926 38.7679 172.033C38.7679 171.088 38.7679 170.097 38.7679 169.06C38.7679 168.029 38.6515 166.959 38.5906 165.853C38.5074 163.628 38.1694 161.274 37.8701 158.787C37.0556 153.418 35.8035 148.109 34.1236 142.904C32.3542 137.728 30.161 132.676 27.5617 127.789C26.2981 125.559 25.1453 123.418 23.8596 121.515C23.2333 120.554 22.6735 119.607 22.0528 118.735C21.4321 117.863 20.8335 117.035 20.2572 116.257C19.1487 114.642 17.9793 113.284 17.015 112.06C16.5218 111.455 16.0784 110.875 15.6406 110.365L14.4102 108.958L12.7476 107.045L12.3208 106.549C12.2266 106.435 12.1767 106.371 12.1878 106.366C12.1989 106.361 12.2488 106.41 12.3596 106.519L12.8307 107.015L14.5931 108.873L15.8622 110.226C16.3112 110.722 16.7656 111.302 17.2755 111.901C18.2675 113.12 19.4646 114.463 20.6008 116.069C21.1882 116.862 21.7979 117.694 22.4297 118.547C23.0615 119.399 23.6323 120.366 24.2697 121.322C25.5776 123.225 26.7525 125.371 28.0328 127.601C30.6628 132.512 32.873 137.595 34.6446 142.805C36.3346 148.034 37.5796 153.37 38.3689 158.767C38.6515 161.245 38.9785 163.628 39.0395 165.858C39.0894 166.973 39.1891 168.049 39.1891 169.085C39.1891 170.12 39.1891 171.111 39.1891 172.058C39.2279 173.951 39.0395 175.666 38.9508 177.167C38.8898 177.921 38.8566 178.619 38.7901 179.263C38.7236 179.908 38.6238 180.483 38.5518 181.013C38.4021 182.034 38.2857 182.841 38.2026 183.431C38.1638 183.684 38.1306 183.892 38.1029 184.061C38.0778 184.13 38.0404 184.195 37.992 184.254Z" fill="#263238"/>
<path d="M58.5754 78.1682C58.5754 78.1682 58.5477 78.2425 58.4756 78.3714C58.4036 78.5002 58.2706 78.7084 58.132 78.9363L56.7853 81.097C56.4915 81.5628 56.1424 82.0881 55.8099 82.6531L54.7513 84.556C54.3818 85.2399 53.9754 85.9668 53.532 86.7365C53.1219 87.5195 52.7284 88.367 52.2906 89.2391C51.8528 90.1113 51.3928 91.0331 50.9549 92.0044L49.6414 95.0472C49.4142 95.5725 49.187 96.1077 48.9542 96.6528L48.3169 98.3377C47.8846 99.4726 47.4468 100.647 46.9923 101.846C45.3297 106.693 43.728 112.09 42.3868 117.818C41.0456 123.547 40.1699 129.083 39.5049 134.122C38.9507 139.167 38.5017 143.727 38.3964 147.562C38.2856 149.48 38.2634 151.215 38.2579 152.741C38.2523 154.267 38.2246 155.58 38.2579 156.651C38.2911 157.721 38.2911 158.524 38.2967 159.129V159.773C38.3099 159.847 38.3099 159.922 38.2967 159.996C38.2786 159.924 38.2675 159.851 38.2634 159.778C38.2634 159.604 38.2634 159.396 38.2136 159.134C38.2136 158.534 38.136 157.706 38.0805 156.656C38.0251 155.605 37.9863 154.267 37.9863 152.741C37.9863 151.215 37.9863 149.475 38.0473 147.552C38.1193 143.707 38.5073 139.128 39.056 134.073C39.7044 129.023 40.6078 123.483 41.9046 117.719C43.2015 111.956 44.8586 106.564 46.5656 101.713L47.9123 98.194C48.134 97.6291 48.3501 97.0641 48.5607 96.514C48.7713 95.964 49.0374 95.4337 49.2701 94.9084C49.7357 93.8529 50.179 92.837 50.6113 91.8607C51.0436 90.8844 51.5479 89.9825 51.9858 89.1004C52.4236 88.2183 52.8393 87.3857 53.2605 86.6226C53.6817 85.8594 54.125 85.1359 54.5185 84.447L55.627 82.5589C55.9761 81.9841 56.3364 81.4786 56.6412 81.0177L58.0766 78.8967L58.4645 78.3565C58.4919 78.2896 58.5292 78.2263 58.5754 78.1682Z" fill="#263238"/>
<path d="M55.9098 144.524C55.6719 144.984 55.392 145.425 55.0729 145.843C54.5187 146.67 53.6985 147.889 52.7674 149.421C51.8363 150.952 50.811 152.81 49.7746 154.916C48.6724 157.21 47.7013 159.552 46.865 161.934C46.0496 164.322 45.3689 166.745 44.8255 169.194C44.3489 171.453 44.0163 173.51 43.8279 175.24C43.6395 176.969 43.5175 178.381 43.4732 179.358C43.4738 179.864 43.4274 180.37 43.3347 180.869C43.2708 180.366 43.2505 179.859 43.2737 179.353C43.2737 178.362 43.3125 176.954 43.4677 175.21C43.6482 173.166 43.9442 171.132 44.3544 169.114C44.8682 166.643 45.5361 164.199 46.3551 161.795C47.1976 159.397 48.1874 157.043 49.3202 154.743C50.2532 152.871 51.2909 151.041 52.4293 149.262C53.4103 147.746 54.2527 146.546 54.8845 145.744C55.1885 145.313 55.5314 144.905 55.9098 144.524Z" fill="#263238"/>
<path d="M22.74 177.42H57.4726L53.2716 209.141H27.0684L22.74 177.42Z" fill="#455A64"/>
<path d="M24.009 205.717L26.9575 209.141H53.2715L56.3086 205.831L24.009 205.717Z" fill="#263238"/>
<path d="M56.1202 186.761C56.1202 186.89 48.9155 186.994 40.048 186.994C31.1806 186.994 23.9758 186.89 23.9758 186.761C23.9758 186.633 31.1806 186.529 40.0758 186.529C48.9709 186.529 56.1202 186.623 56.1202 186.761Z" fill="#FAFAFA"/>
<path d="M56.1202 188.863C56.1202 188.992 48.9155 189.096 40.048 189.096C31.1806 189.096 23.9758 188.992 23.9758 188.863C23.9758 188.734 31.1806 188.63 40.0758 188.63C48.9709 188.63 56.1202 188.744 56.1202 188.863Z" fill="#FAFAFA"/>
<path d="M55.6881 190.909C55.6881 191.038 48.7327 191.137 40.1701 191.137C31.6075 191.137 24.6521 191.038 24.6521 190.909C24.6521 190.781 31.6075 190.677 40.1701 190.677C48.7327 190.677 55.6881 190.781 55.6881 190.909Z" fill="#FAFAFA"/>
<path d="M169.795 55.2931L174.683 47.587C171.652 43.1975 170.566 37.9529 171.64 32.884C172.714 27.8151 175.869 23.2886 180.485 20.1942C185.102 17.0999 190.846 15.6614 196.588 16.1616C202.33 16.6618 207.656 19.0646 211.517 22.8975C215.379 26.7304 217.498 31.7163 217.457 36.8752C217.416 42.034 215.219 46.9927 211.297 50.7765C207.375 54.5603 202.013 56.8956 196.263 57.3233C190.513 57.751 184.793 56.2402 180.225 53.0878L169.795 55.2931Z" fill="#FAFAFA"/>
<path d="M153.884 67.4938C152.426 70.7397 152.47 77.4497 154.892 80.1901C156.156 81.6223 157.874 82.7671 158.772 84.4074C159.947 86.5582 159.442 89.2342 157.968 91.2313C156.494 93.2285 154.172 94.626 151.728 95.6072C149.007 96.7073 145.676 97.3119 143.137 95.9045C141.198 94.8341 140.172 92.8271 139.552 90.8646C137.811 85.3738 138.443 79.4666 140.25 73.9758C142.057 68.4849 145 63.3657 147.909 58.301" fill="#263238"/>
<path d="M161.964 113.001L174.955 105.91C174.955 105.91 165.09 88.917 163.605 88.3025C162.119 87.688 142.206 85.0664 142.206 85.0664C136.149 93.5802 128.567 91.479 120.925 85.7998C120.243 85.9237 108.216 88.3718 105.074 88.7385C101.932 89.1053 92.8813 102 92.8813 102L103.145 118.051L103.921 134.682C103.921 134.682 104.476 146.512 102.309 152.617L156.777 154.198C156.181 151.661 155.763 149.094 155.524 146.512C155.319 144.445 154.693 142.383 155.164 139.727C156.655 131.293 161.964 113.001 161.964 113.001Z" fill="url(#paint4_linear_14068_15306)"/>
<path d="M99.2603 93.7638C100.08 96.2119 107.019 99.8394 109.458 98.4815C110.228 98.0504 110.893 97.4062 111.785 97.2525C112.894 97.0543 113.964 97.6886 115.044 98.0108C117.583 98.7591 120.836 97.9216 122.665 99.661C123.568 100.518 124.139 101.975 125.436 101.941C125.902 101.871 126.359 101.758 126.799 101.604C128.268 101.277 129.692 102.283 131.205 102.377C131.998 102.383 132.786 102.264 133.533 102.025L144.395 99.1803C145.182 98.9722 146.058 98.6847 146.396 98.0207C145.094 98.3862 143.691 98.3336 142.428 97.872C141.756 97.5403 141.049 97.2696 140.316 97.0642C138.399 96.7124 136.653 98.0554 134.747 98.4766C132.74 98.8978 130.673 98.2288 128.75 97.5647L118.902 94.18C116.186 93.2484 113.404 92.2771 111.248 90.5376C110.561 89.9876 107.984 91.1472 107.18 90.7507C106.245 90.1857 105.353 89.5665 104.509 88.8973C104.342 88.7883 102.846 89.9925 102.187 90.6268C101.527 91.2612 99.2603 93.7638 99.2603 93.7638Z" fill="#FAFAFA"/>
<path d="M103.949 134.683C106.365 133.771 110.511 132.334 113.088 131.902C114.986 131.533 116.939 131.446 118.868 131.645C119.827 131.769 120.819 132.002 121.75 131.754C122.681 131.506 123.308 130.901 124.128 130.54C126.483 129.504 129.299 130.792 131.887 130.49C132.541 130.45 133.156 130.194 133.611 129.771C133.825 129.554 133.94 129.273 133.934 128.983C133.928 128.693 133.801 128.416 133.577 128.205C133.271 128.012 132.905 127.909 132.53 127.908C131.289 127.832 130.044 127.845 128.806 127.948L126.805 128.062C125.975 128.151 125.134 128.117 124.316 127.963C123.535 127.712 122.778 127.407 122.05 127.051C119.378 126 116.314 126.471 113.426 126.833C111.995 127.084 110.524 127.097 109.087 126.872C108.609 126.731 108.11 126.655 107.607 126.644C106.759 126.689 106.044 127.249 105.207 127.373C104.37 127.497 104.32 126.065 103.544 125.886L103.949 134.683Z" fill="#FAFAFA"/>
<path d="M156.948 112.397C156.652 112.57 156.323 112.696 155.979 112.769C154.41 112.962 153.446 110.494 151.944 110.945C151.39 111.118 150.985 111.718 150.37 111.782C149.755 111.847 149.189 111.227 148.558 110.975C147.449 110.529 146.197 111.331 144.966 111.421C143.581 111.515 141.962 110.742 140.926 111.574C140.521 111.896 140.289 112.436 139.762 112.565C139.236 112.694 138.787 112.372 138.294 112.238C136.786 111.837 135.406 113.135 133.86 113.373C132.097 113.646 129.98 112.58 128.656 113.636C128.179 114.007 127.891 114.627 127.281 114.771C126.672 114.914 126.129 114.602 125.541 114.597C124.189 114.597 122.947 116.193 121.806 115.539C121.902 115.821 122.093 116.07 122.353 116.251C122.612 116.433 122.928 116.539 123.258 116.555C123.914 116.579 124.572 116.529 125.214 116.406C129.044 115.985 132.934 118.215 136.648 117.278C137.673 117.02 138.632 116.525 139.69 116.456C141.674 116.327 143.47 117.704 145.454 117.64C147 117.585 148.436 116.649 149.976 116.817C151.517 116.986 152.703 118.22 154.144 118.829C155.868 119.563 157.885 119.35 159.78 119.122L160.335 119.008C161.227 116.827 161.864 114.571 162.236 112.273C161.403 111.93 160.493 111.763 159.576 111.784C158.659 111.806 157.76 112.015 156.948 112.397Z" fill="#FAFAFA"/>
<path d="M152.487 142.056C151.734 142.13 151.018 142.389 150.42 142.805C149.822 143.224 149.084 143.451 148.325 143.449C146.961 143.32 145.742 141.823 144.551 142.428C144.252 142.633 143.972 142.858 143.714 143.102C142.882 143.712 141.558 143.543 140.765 144.192C140.355 144.524 140.133 145.05 139.629 145.263C138.681 145.659 137.784 144.678 136.825 144.296C135.328 143.697 133.627 144.628 131.987 144.599C131.155 144.599 130.274 144.326 129.52 144.633C129.131 144.842 128.761 145.077 128.412 145.337C127.159 146.085 125.475 145.738 124.072 145.238C122.67 144.737 121.207 144.108 119.727 144.371C119.317 144.445 118.852 144.673 118.863 145.05C118.875 145.195 118.932 145.334 119.029 145.451C119.905 146.739 121.578 147.404 123.202 147.825C124.981 148.286 126.86 148.553 128.445 149.416C129.448 149.956 130.501 150.763 131.632 150.486C132.53 150.268 133.078 149.435 133.943 149.138C135.162 148.717 136.609 149.48 137.822 149.029C138.227 148.88 138.565 148.603 138.975 148.469C140.045 148.122 141.236 148.821 142.345 148.598C142.723 148.463 143.117 148.37 143.52 148.32C144.578 148.32 145.265 149.624 146.291 149.5C146.934 149.42 147.372 148.811 148.014 148.707C148.862 148.563 149.821 149.331 150.508 148.865C150.664 148.761 150.785 148.593 150.985 148.578C151.185 148.563 151.423 148.821 151.584 149.019C152.332 149.901 154.615 149.331 155.768 148.93L155.02 142.983C155.058 142.23 153.246 142.056 152.487 142.056Z" fill="#FAFAFA"/>
<g opacity="0.3">
<path opacity="0.3" d="M105.789 93.9718C104.758 96.8857 104.354 100.077 105.379 102.991C105.924 104.319 106.559 105.617 107.28 106.876C109.527 111.291 110.481 116.145 110.051 120.98C110.01 121.147 110.033 121.322 110.117 121.476C110.334 121.798 110.882 121.679 111.265 121.525L113.72 120.534C114.784 121.307 114.945 122.838 116.12 123.463C117.295 124.087 118.929 123.389 120.104 122.625C122.682 120.935 125.126 118.973 126.622 116.446C127.569 114.675 128.271 112.808 128.711 110.885C129.171 109.205 129.637 107.526 129.925 105.816C131.049 99.037 129.404 92.1229 125.292 86.3401" fill="black"/>
</g>
<path d="M157.835 96.5686C157.888 96.6488 157.927 96.7357 157.952 96.8263C158.029 97.0295 158.129 97.2773 158.245 97.5845C158.495 98.2783 158.838 99.2298 159.26 100.384C159.681 101.539 160.18 102.991 160.734 104.547C161.358 106.248 161.825 107.992 162.13 109.761C162.368 111.547 162.268 113.356 161.837 115.113C161.493 116.542 161.026 117.945 160.44 119.31C159.952 120.475 159.509 121.401 159.199 122.041C159.051 122.331 158.929 122.574 158.833 122.769C158.795 122.857 158.745 122.941 158.683 123.017C158.7 122.924 158.732 122.834 158.777 122.749L159.093 122.001C159.376 121.352 159.786 120.415 160.252 119.251C160.802 117.886 161.245 116.488 161.576 115.068C161.984 113.333 162.074 111.551 161.842 109.79C161.541 108.036 161.085 106.306 160.479 104.617C159.925 103.051 159.47 101.643 159.066 100.439C158.661 99.2347 158.367 98.3179 158.14 97.6142L157.896 96.8412C157.862 96.7533 157.841 96.6616 157.835 96.5686Z" fill="#263238"/>
<g opacity="0.3">
<path opacity="0.3" d="M162.629 111.237C163.41 108.844 163.315 106.289 162.358 103.948C161.404 101.622 160.109 99.421 158.506 97.4011C159.271 102.089 161.67 106.5 162.147 111.222" fill="black"/>
</g>
<g opacity="0.3">
<path opacity="0.3" d="M118.381 141.264C120.722 138.461 123.863 136.274 127.475 134.93C131.074 133.597 134.859 132.709 138.726 132.289C140.25 132.091 141.907 131.952 143.243 132.641C144.578 133.33 145.21 135.198 144.046 136.11C143.406 136.51 142.638 136.715 141.857 136.694C136.526 137.041 130.895 137.056 126.284 139.485C124.46 140.441 122.842 141.759 120.83 142.339C119.916 142.602 118.564 142.453 118.469 141.601" fill="black"/>
</g>
<path d="M145.559 131.65C145.452 131.66 145.345 131.66 145.238 131.65H144.318H143.647L142.86 131.694C142.306 131.734 141.647 131.754 140.937 131.848L139.829 131.972C139.441 132.021 139.047 132.096 138.632 132.16C137.8 132.279 136.93 132.482 136.01 132.656C134.031 133.134 132.093 133.735 130.208 134.455C128.327 135.189 126.5 136.028 124.737 136.967C123.928 137.408 123.158 137.824 122.471 138.256C121.783 138.687 121.129 139.073 120.548 139.45C119.966 139.827 119.439 140.183 119.007 140.491C118.575 140.798 118.17 141.075 117.865 141.303L117.145 141.799C117.064 141.863 116.975 141.918 116.879 141.962C116.947 141.888 117.023 141.82 117.106 141.759L117.788 141.204C118.087 140.961 118.458 140.674 118.896 140.357C119.334 140.04 119.833 139.658 120.415 139.281C120.996 138.905 121.617 138.469 122.321 138.052C123.025 137.636 123.784 137.19 124.588 136.739C126.354 135.783 128.189 134.932 130.08 134.192C131.978 133.465 133.934 132.867 135.933 132.403C136.864 132.215 137.739 132.011 138.576 131.907C138.997 131.848 139.396 131.774 139.784 131.729L140.893 131.625C141.608 131.541 142.256 131.531 142.827 131.506C143.115 131.506 143.381 131.481 143.625 131.481H144.296L145.221 131.511C145.342 131.54 145.456 131.587 145.559 131.65Z" fill="#263238"/>
<g opacity="0.3">
<path opacity="0.3" d="M100.607 105.256C99.1939 107.005 99.0331 109.364 99.6151 111.455C100.197 113.547 101.433 115.42 102.663 117.293C102.83 115.435 102.669 113.566 102.187 111.753C101.605 109.582 100.563 107.471 100.568 105.236" fill="black"/>
</g>
<path d="M140.084 38.2504C140.117 36.6695 142.134 35.5496 143.88 35.8172C145.626 36.0848 146.989 37.3485 147.804 38.7509C148.619 40.1534 149.012 41.7243 149.627 43.211C151.29 47.1755 154.554 50.59 155.724 54.7131C156.481 57.6402 156.378 60.6929 155.424 63.5738C154.476 66.4352 153.169 69.1915 151.528 71.7903C150.505 73.3507 149.642 74.9912 148.951 76.6914C148.258 78.4063 148.194 80.274 148.768 82.0237C148.893 82.2446 148.921 82.4991 148.846 82.7373C148.674 83.0743 148.137 83.0891 147.738 82.995C145.704 82.5292 144.296 80.7402 143.947 78.8868C143.598 77.0333 144.13 75.1403 144.872 73.381C145.615 71.6218 146.568 69.9121 147.117 68.1231C148.314 64.1586 147.483 59.9562 147.272 55.8479C147.156 53.5336 147.239 51.1946 146.718 48.91C146.197 46.6254 144.994 44.3805 142.838 43.0871C142.001 42.5915 141.037 42.2248 140.333 41.6004C139.629 40.976 139.275 39.861 139.912 39.1573" fill="#263238"/>
<path d="M141.907 84.2142C141.907 84.2142 141.846 81.8156 141.846 81.8404C141.846 81.8652 149.788 80.4875 151.19 71.156C151.889 66.5175 151.429 58.9403 150.83 52.7557C150.276 47.1855 145.975 40.426 139.773 41.1446L120.481 45.9417C118.602 46.1597 117.982 47.6018 118.065 49.3016L117.926 50.0994L119.533 76.7064L120.088 81.1664C120.37 86.2262 125.286 91.5733 131.349 91.7121C137.202 91.9698 141.985 89.8141 141.907 84.2142Z" fill="#FCE5D5"/>
<path d="M147.283 58.757C147.294 59.0681 147.168 59.3706 146.933 59.6001C146.698 59.8296 146.372 59.9681 146.025 59.986C145.856 60.0017 145.685 59.9869 145.522 59.9425C145.359 59.8982 145.208 59.8251 145.077 59.7276C144.946 59.6302 144.839 59.5103 144.761 59.3751C144.683 59.2399 144.636 59.0921 144.623 58.9404C144.612 58.6302 144.737 58.3284 144.97 58.099C145.204 57.8696 145.529 57.7306 145.875 57.7114C146.045 57.6957 146.216 57.7105 146.379 57.7548C146.542 57.7991 146.694 57.8721 146.825 57.9695C146.956 58.0669 147.064 58.1867 147.143 58.322C147.221 58.4572 147.269 58.6051 147.283 58.757Z" fill="#263238"/>
<path d="M149.018 56.9928C148.857 57.1514 147.832 56.4972 146.396 56.5369C144.961 56.5765 143.924 57.2356 143.769 57.082C143.686 57.0126 143.847 56.7301 144.323 56.4179C144.935 56.0223 145.669 55.8043 146.424 55.7935C147.169 55.7744 147.901 55.9689 148.513 56.3485C148.962 56.6409 149.123 56.9234 149.018 56.9928Z" fill="#263238"/>
<path d="M135.079 59.4012C134.919 59.5598 133.888 58.9056 132.452 58.9502C131.017 58.9948 129.986 59.644 129.825 59.4904C129.748 59.4259 129.908 59.1385 130.38 58.8313C130.991 58.4344 131.724 58.2148 132.48 58.2019C133.227 58.1853 133.961 58.3814 134.575 58.7619C135.002 59.0444 135.162 59.3219 135.079 59.4012Z" fill="#263238"/>
<path d="M140.455 66.6811C140.455 66.6068 141.336 66.4482 142.777 66.2549C143.143 66.2103 143.487 66.141 143.542 65.913C143.565 65.5736 143.47 65.2362 143.27 64.9466L142.123 62.4688C140.527 58.9453 139.352 56.0265 139.518 55.9918C139.685 55.9571 141.103 58.7422 142.7 62.2656C143.069 63.1345 143.439 63.9605 143.808 64.7435C144.05 65.1324 144.13 65.5852 144.035 66.022C143.984 66.1389 143.904 66.2441 143.801 66.3298C143.699 66.4156 143.576 66.4797 143.442 66.5176C143.24 66.5704 143.032 66.6004 142.821 66.6068C141.364 66.7257 140.461 66.7505 140.455 66.6811Z" fill="#263238"/>
<path d="M141.846 81.8404C136.952 82.01 132.102 80.9618 127.835 78.8125C127.835 78.8125 131.521 85.3044 141.907 84.2142L141.846 81.8404Z" fill="url(#paint5_linear_14068_15306)"/>
<path d="M135.024 56.1453C134.863 56.4872 133.444 56.2444 131.748 56.3287C130.052 56.4129 128.667 56.7548 128.467 56.4278C128.379 56.2741 128.634 55.957 129.21 55.6497C129.966 55.2726 130.811 55.0604 131.676 55.0303C132.543 54.9822 133.41 55.1216 134.204 55.4366C134.808 55.6943 135.096 55.9818 135.024 56.1453Z" fill="#263238"/>
<path d="M148.824 53.0331C148.535 53.3304 147.355 53.0331 145.953 53.0728C144.551 53.1124 143.359 53.3205 143.076 53.0232C142.954 52.8745 143.132 52.5821 143.631 52.2947C144.339 51.9437 145.135 51.7595 145.944 51.7595C146.754 51.7595 147.55 51.9437 148.258 52.2947C148.779 52.5921 148.951 52.8894 148.824 53.0331Z" fill="#263238"/>
<path d="M139.385 69.3719C139.17 69.1297 138.899 68.9324 138.59 68.7938C138.28 68.6551 137.941 68.5784 137.595 68.5691C137.203 68.5801 136.817 68.6642 136.463 68.8161C136.109 68.968 135.794 69.1843 135.539 69.4512L135.5 69.4809L135.428 69.5503C135.228 69.7407 135.104 69.9844 135.074 70.2441C135.069 70.5354 135.145 70.8232 135.294 71.0823C135.442 71.3415 135.66 71.5641 135.927 71.7308C136.34 72.0121 136.84 72.1726 137.359 72.1903C137.878 72.2081 138.39 72.0822 138.826 71.8299C139.25 71.5597 139.543 71.1557 139.647 70.6995C139.751 70.2433 139.658 69.7689 139.385 69.3719Z" fill="url(#paint6_linear_14068_15306)"/>
<path d="M135.661 68.1282C135.744 68.1282 135.811 68.4255 136.038 68.8467C136.33 69.3873 136.787 69.8427 137.357 70.16C137.939 70.459 138.604 70.6018 139.275 70.5713C139.796 70.5713 140.123 70.4623 140.161 70.5317C140.2 70.601 139.901 70.7993 139.324 70.9182C138.554 71.0604 137.751 70.9403 137.074 70.5812C136.398 70.221 135.9 69.6458 135.678 68.9706C135.517 68.4602 135.595 68.1282 135.661 68.1282Z" fill="#263238"/>
<path d="M142.145 41.2982C142.088 41.7653 142.159 42.2378 142.352 42.6747C142.546 43.1117 142.855 43.4999 143.254 43.8058C144.063 44.4073 144.938 44.9352 145.864 45.3817C148.635 46.9278 150.004 50.3076 151.301 52.9886C153.584 49.0984 150.076 44.0684 147.172 41.0207C146.676 40.4524 146.063 39.9746 145.365 39.6133C145.014 39.4356 144.621 39.3321 144.218 39.3106C143.814 39.2891 143.411 39.3503 143.038 39.4894" fill="#263238"/>
<path d="M151.329 72.3256C151.359 72.2072 151.4 72.0912 151.451 71.9787L151.85 71.0173C152.166 70.1699 152.631 68.9458 153.047 67.3947C154.13 63.3393 154.388 59.1425 153.806 55.0056C153.515 52.736 152.912 50.5073 152.01 48.3699C151.28 46.6229 150.092 45.0578 148.547 43.8058C147.495 42.9707 146.247 42.3576 144.894 42.0118C143.935 41.7888 143.376 41.7888 143.376 41.7591C143.51 41.746 143.646 41.746 143.78 41.7591C144.165 41.7852 144.547 41.8382 144.922 41.9177C146.311 42.2282 147.599 42.8275 148.68 43.667C150.272 44.9241 151.5 46.5071 152.26 48.2807C153.187 50.4337 153.803 52.6835 154.094 54.9758C154.679 59.1331 154.391 63.3515 153.246 67.4145C152.89 68.6407 152.459 69.8484 151.955 71.0321C151.767 71.4435 151.611 71.7656 151.506 71.9787C151.461 72.0997 151.402 72.216 151.329 72.3256Z" fill="#455A64"/>
<path d="M152.265 79.0158C152.242 78.9821 152.225 78.9453 152.216 78.9068L152.094 78.5747C151.964 78.1472 151.884 77.7087 151.855 77.2664C151.816 75.6215 152.245 73.9947 153.102 72.5387C154.083 70.6506 155.873 68.7576 157.591 66.5325C158.504 65.3805 159.235 64.1215 159.764 62.791C160.286 61.3533 160.486 59.8377 160.351 58.3309C160.223 56.8198 159.758 55.3471 158.982 53.9996C158.223 52.7573 157.292 51.6052 156.211 50.5703C154.183 48.5881 152.143 46.8932 150.808 45.1934C149.692 43.8933 148.905 42.3918 148.502 40.7928C148.358 40.2074 148.315 39.6058 148.375 39.0088C148.402 39.6016 148.482 40.1915 148.613 40.773C149.051 42.3445 149.856 43.8155 150.974 45.0894C152.315 46.7545 154.349 48.3998 156.411 50.4117C157.508 51.4572 158.452 52.6228 159.221 53.8807C160.013 55.2576 160.49 56.7622 160.623 58.3061C160.759 59.8498 160.554 61.4024 160.019 62.8752C159.48 64.2263 158.734 65.5038 157.802 66.6712C156.056 68.9062 154.266 70.7745 153.274 72.618C152.411 74.0421 151.959 75.6366 151.961 77.2565C151.994 77.8508 152.096 78.4404 152.265 79.0158Z" fill="#263238"/>
<path d="M140.472 36.4218C138.692 35.2968 136.398 35.0391 134.22 35.0689C128.345 35.1432 122.382 37.1503 118.453 41.0553C115.127 44.3459 110.245 50.6792 109.319 55.0203C107.064 65.6007 114.54 68.5641 108.449 85.0813C107.341 88.0547 105.966 90.9687 105.29 94.0412C105.047 95.1375 104.933 96.2537 104.952 97.3714C104.237 99.3041 104.675 101.534 105.556 103.457C106.592 105.717 108.172 107.748 109.164 110.023C110.156 112.298 112.34 116.029 110.882 118.096C112.938 117.6 113.01 115.683 114.64 114.458C115.121 116.101 115.106 117.828 114.595 119.464C117.151 119.304 119.577 118.399 121.501 116.887C125.303 113.913 126.489 109.082 127.082 104.582C128.356 94.7449 127.109 85.3093 124.194 75.7548L124.155 75.7994C122.033 69.6891 118.015 64.0495 121.623 62.7016C127.908 60.3576 122.177 57.8897 124.56 51.9825C125.308 50.139 126.14 48.1865 127.885 47.0269C129.98 45.6294 132.812 45.7037 135.423 45.5749C138.033 45.446 140.993 44.8315 142.217 42.77L142.378 41.536C143.315 39.7668 142.251 37.5517 140.472 36.4218Z" fill="#263238"/>
<path d="M112.129 75.5368C112.303 75.4169 112.457 75.277 112.589 75.1205C112.906 74.6309 113.029 74.0599 112.938 73.5C112.761 72.0381 111.935 70.0311 110.855 67.5533C110.244 66.2109 109.774 64.8206 109.452 63.4004C109.044 61.6604 109.221 59.851 109.963 58.2013C110.705 56.5516 111.978 55.1359 113.62 54.1333C115.394 52.9935 117.804 52.8201 119.284 51.2739C120.764 49.7278 121.501 47.8744 122.144 46.0804C122.455 45.1829 122.825 44.3025 123.252 43.444C123.683 42.6254 124.202 41.8469 124.804 41.1198C125.918 39.7761 127.301 38.6285 128.883 37.7351C129.594 37.3133 130.366 36.9799 131.178 36.744C131.931 36.5397 132.719 36.4558 133.505 36.4962C134.842 36.5946 136.152 36.8858 137.385 37.3585C138.493 37.7599 139.402 38.1117 140.156 38.4685C140.728 38.7321 141.227 39.1082 141.613 39.5687C141.745 39.7308 141.844 39.9118 141.907 40.1039C141.803 39.933 141.688 39.7676 141.564 39.6083C141.167 39.1698 140.667 38.8145 140.1 38.5676C139.369 38.2307 138.438 37.8887 137.329 37.5022C136.109 37.0554 134.816 36.7861 133.5 36.7043C132.737 36.6673 131.973 36.7529 131.244 36.9571C130.462 37.191 129.717 37.5142 129.027 37.9184C126.633 39.2879 124.724 41.2389 123.524 43.5431C123.098 44.3936 122.728 45.2656 122.415 46.1547C121.761 47.9437 121.08 49.9111 119.5 51.4424C118.714 52.1814 117.747 52.7465 116.674 53.0927C115.661 53.4091 114.692 53.8281 113.786 54.3415C112.111 55.3697 110.828 56.8307 110.106 58.529C109.469 60.0753 109.318 61.748 109.669 63.3657C109.981 64.776 110.438 66.1578 111.032 67.4938C112.085 69.9716 112.889 71.9985 113.033 73.4951C113.116 74.0734 112.969 74.6595 112.617 75.1503C112.517 75.2697 112.397 75.3749 112.262 75.4625L112.129 75.5368Z" fill="#455A64"/>
<path d="M121.307 63.5193C121.146 61.5371 118.708 60.2684 116.812 61.2942C115.77 61.8592 114.995 62.9692 115.15 65.0704C115.543 70.6654 121.745 69.1589 121.745 68.9953C121.745 68.8318 121.468 65.8435 121.307 63.5193Z" fill="#FCE5D5"/>
<path d="M119.644 66.9834C119.644 66.9834 119.539 67.0577 119.362 67.142C119.109 67.2555 118.818 67.2786 118.547 67.2064C117.871 67.0231 117.25 66.1162 117.15 65.1102C117.099 64.6316 117.169 64.1489 117.355 63.6978C117.401 63.5192 117.495 63.3535 117.63 63.2152C117.764 63.0769 117.934 62.9703 118.126 62.9049C118.248 62.8683 118.381 62.871 118.502 62.9126C118.622 62.9542 118.722 63.0321 118.785 63.1329C118.88 63.2865 118.846 63.4005 118.885 63.4104C118.924 63.4203 119.013 63.3063 118.946 63.0784C118.901 62.9416 118.805 62.8227 118.675 62.7414C118.493 62.6356 118.272 62.5965 118.059 62.6323C117.806 62.6927 117.574 62.8099 117.386 62.973C117.198 63.1361 117.06 63.3396 116.984 63.564C116.75 64.063 116.657 64.606 116.713 65.1449C116.835 66.2698 117.555 67.2907 118.475 67.474C118.646 67.5073 118.823 67.5064 118.994 67.4713C119.164 67.4361 119.324 67.3677 119.461 67.2708C119.644 67.1222 119.672 66.9933 119.644 66.9834Z" fill="url(#paint7_linear_14068_15306)"/>
<path d="M122.038 70.7991C122.038 70.7991 122.083 70.9081 122.038 71.1063C121.949 71.3867 121.753 71.6304 121.484 71.7952C121.279 71.9154 121.046 71.9911 120.802 72.016C120.559 72.041 120.312 72.0146 120.082 71.9389C119.801 71.8478 119.545 71.7038 119.332 71.5165C119.119 71.3293 118.953 71.1032 118.846 70.8536C118.66 70.4076 118.613 69.9247 118.711 69.4567C118.809 68.9888 119.047 68.5534 119.4 68.1974C119.533 68.0424 119.7 67.9132 119.891 67.8178C120.081 67.7223 120.292 67.6626 120.509 67.6423C120.147 67.8127 119.824 68.0412 119.556 68.3163C119.284 68.6244 119.095 68.9837 119.001 69.3669C118.889 69.8298 118.93 70.3118 119.118 70.7545C119.207 70.9722 119.347 71.1705 119.529 71.3362C119.71 71.5019 119.929 71.6313 120.171 71.7159C120.364 71.786 120.573 71.8158 120.782 71.8029C120.99 71.79 121.192 71.7348 121.373 71.6415C121.617 71.5069 121.81 71.3101 121.928 71.0766C122 70.9081 122.011 70.7991 122.038 70.7991Z" fill="white"/>
<path d="M140.926 42.1507C140.522 41.7823 140.078 41.4503 139.601 41.1595C138.236 40.4369 136.643 40.1373 135.068 40.3072C133.985 40.4032 132.933 40.6859 131.97 41.1397C130.874 41.6765 129.881 42.3657 129.027 43.1814C128.082 44.0934 127.245 45.0897 126.528 46.1548C125.768 47.25 125.076 48.4394 124.361 49.6585C123.687 50.8554 122.947 52.0214 122.144 53.1522C121.38 54.2054 120.488 55.1794 119.484 56.0562C118.53 56.8937 117.577 57.642 116.762 58.4052C115.986 59.0886 115.319 59.8639 114.778 60.7096C113.979 61.9377 113.696 63.3803 113.98 64.7782C114.121 65.281 114.353 65.7598 114.667 66.1955C114.567 66.094 114.474 65.9864 114.39 65.8734C114.157 65.543 113.983 65.1817 113.875 64.8029C113.535 63.3785 113.791 61.892 114.595 60.6253C115.134 59.7564 115.805 58.9591 116.591 58.2565C117.405 57.4785 118.353 56.7252 119.295 55.8877C120.281 55.017 121.158 54.0533 121.911 53.0135C122.703 51.9331 123.413 50.7537 124.128 49.5445C124.843 48.3353 125.536 47.1311 126.311 46.026C127.04 44.9575 127.893 43.9608 128.855 43.0526C129.732 42.2221 130.754 41.5242 131.881 40.9861C132.874 40.5301 133.956 40.2491 135.068 40.1585C136.683 40.0012 138.31 40.3365 139.685 41.11C140.045 41.3293 140.375 41.5872 140.666 41.8781C140.759 41.9635 140.846 42.0546 140.926 42.1507Z" fill="#455A64"/>
<path d="M93.768 102.728L94.9318 97.7033L84.2244 93.3374L83.9473 94.1551C82.4177 98.7093 74.7917 120.658 74.3261 122.298C72.6081 128.389 72.9905 140.441 75.7061 142.696C77.8787 144.5 82.0519 145.828 84.8119 145.555C87.5719 145.283 95.1812 136.526 95.1812 136.526L102.159 116.535L93.768 102.728Z" fill="#FCE5D5"/>
<path d="M94.2391 99.7402C94.2374 99.8703 94.2207 99.9998 94.1892 100.127C94.1338 100.404 94.0673 100.771 93.9786 101.237C93.7846 102.228 93.502 103.601 93.1639 105.296C92.8258 106.99 92.4157 109.052 92.0555 111.332C91.6632 113.794 91.4484 116.277 91.4126 118.765C91.3877 121.258 91.7023 123.744 92.3492 126.169C92.9533 128.394 93.5075 130.445 93.4576 132.215C93.4666 133.603 93.0692 134.97 92.3049 136.179C92.0307 136.625 91.6661 137.022 91.2297 137.349C92.6399 135.936 93.3672 134.081 93.2526 132.19C93.2858 130.455 92.6984 128.433 92.0943 126.203C91.432 123.762 91.1081 121.257 91.1299 118.745C91.1625 116.242 91.3866 113.743 91.8005 111.267C92.1608 108.983 92.5875 106.941 92.9589 105.231C93.3302 103.521 93.6461 102.169 93.8622 101.187C93.9731 100.726 94.0617 100.365 94.1227 100.087C94.1543 99.9697 94.1932 99.8539 94.2391 99.7402Z" fill="url(#paint8_linear_14068_15306)"/>
<path d="M105.307 89.3927L103.234 87.3411V84.9029L101.084 82.1376L96.794 82.7521L95.4805 82.8512L96.3672 77.2414C96.8592 75.8065 97.5051 74.4174 98.2959 73.0936C99.8255 70.358 97.3648 69.1042 97.3648 69.1042L92.7649 76.2999L91.2352 81.0821L90.5813 77.182C90.5813 77.182 91.3571 73.3859 91.2463 71.4334C91.1355 69.4809 88.9463 69.7634 88.9463 69.7634L87.195 78.3515V82.6481L85.6709 80.1108C85.6709 80.1108 85.3439 77.96 85.1167 76.0075C84.8895 74.0549 83.1548 74.6397 83.1548 74.6397V80.9879L85.1167 86.8455C85.1167 86.8455 83.8254 94.4029 83.6092 94.6952L93.7126 101.029C93.7126 101.029 95.9294 99.5419 96.3562 99.4378C96.7829 99.3337 102.253 95.726 102.253 95.726L106.072 92.1133C106.072 92.1133 106.726 91.7268 106.726 91.3353C106.726 90.9438 105.307 89.3927 105.307 89.3927ZM100.069 91.7367L97.8858 90.8546L96.6832 88.2182L97.5754 86.7761L97.8858 86.2805L98.2848 86.0328L99.7424 86.2805C99.7424 86.2805 100.396 88.1389 100.297 89.0161C100.197 89.8932 101.499 90.7753 101.499 90.7753L100.069 91.7367Z" fill="#FCE5D5"/>
<path d="M98.285 86.018C98.285 86.0477 98.0854 86.0675 97.7862 85.9833C97.395 85.8625 97.0494 85.6462 96.7886 85.3589C96.5229 85.0772 96.3536 84.7332 96.3009 84.3677C96.2676 84.0902 96.3009 83.9168 96.3563 83.9217C96.4466 84.3914 96.6719 84.8319 97.01 85.2003C97.3481 85.5686 97.7875 85.8521 98.285 86.0229V86.018Z" fill="url(#paint9_linear_14068_15306)"/>
<path d="M103.905 91.0777C103.864 90.1276 103.912 89.1761 104.049 88.2332C104.217 88.6947 104.268 89.1839 104.198 89.6653C104.223 90.15 104.122 90.6333 103.905 91.0777Z" fill="url(#paint10_linear_14068_15306)"/>
<path d="M100.535 94.7696C100.535 94.7696 100.258 94.611 99.9474 94.2344C99.5218 93.7312 99.3239 93.103 99.3932 92.4751C99.4261 92.2829 99.5182 92.1028 99.6592 91.9548C99.7867 91.8309 99.9197 91.7169 100.047 91.6129C100.273 91.4363 100.51 91.2708 100.757 91.1173C101.178 90.8497 101.477 90.7307 101.499 90.7704C101.307 90.9482 101.102 91.1138 100.884 91.266C100.69 91.4146 100.468 91.593 100.23 91.8012C100.114 91.9052 99.9918 92.0192 99.8754 92.1382C99.7708 92.2522 99.7019 92.389 99.6759 92.5346C99.6317 92.8401 99.6677 93.1506 99.7812 93.4415C99.8633 93.69 99.9807 93.9282 100.13 94.1501C100.374 94.5169 100.574 94.7448 100.535 94.7696Z" fill="url(#paint11_linear_14068_15306)"/>
<path d="M103.239 87.0933C103.277 87.8203 103.019 88.535 102.513 89.1053C102.321 89.3438 102.066 89.5361 101.771 89.6652C101.517 89.7626 101.236 89.7851 100.967 89.7297C100.496 89.6256 100.374 89.3382 100.413 89.3332C100.452 89.3283 100.618 89.5116 101.006 89.5513C101.231 89.5753 101.458 89.5391 101.66 89.4472C101.909 89.3275 102.123 89.1579 102.286 88.9516C102.684 88.3675 103.004 87.7438 103.239 87.0933Z" fill="url(#paint12_linear_14068_15306)"/>
<path d="M100.297 88.8624C100.23 88.8624 100.069 88.0001 99.7424 86.9446C99.6154 86.4876 99.5191 86.0243 99.4543 85.557C99.4155 85.1952 99.4543 84.9673 99.4543 84.9673C99.4543 84.9673 99.5429 85.1804 99.6316 85.5273C99.7591 86.0228 99.8755 86.4342 99.9974 86.8851C100.352 87.9456 100.391 88.8624 100.297 88.8624Z" fill="url(#paint13_linear_14068_15306)"/>
<path d="M103.905 91.6625C103.018 91.6003 102.165 91.3302 101.433 90.8795C101.127 90.7184 100.853 90.5123 100.624 90.27C100.443 90.0616 100.318 89.8192 100.258 89.5613C100.175 89.3319 100.189 89.0835 100.297 88.8625C100.346 88.8625 100.297 89.1302 100.452 89.5167C100.65 90.0068 101.045 90.4133 101.56 90.6565C102.785 91.3404 103.932 91.5783 103.905 91.6625Z" fill="url(#paint14_linear_14068_15306)"/>
<path d="M94.9043 93.8331C94.2443 92.8464 93.4307 91.9487 92.4879 91.1669C91.4765 90.4501 90.3571 89.8645 89.1626 89.4275C89.5469 89.4506 89.9228 89.538 90.271 89.6852C92.0206 90.3048 93.4865 91.4323 94.4332 92.8865C94.6569 93.172 94.8169 93.4934 94.9043 93.8331Z" fill="url(#paint15_linear_14068_15306)"/>
<path d="M91.2464 84.7197C91.2464 84.794 90.4483 84.8535 89.5227 85.1459C88.5972 85.4383 87.9266 85.8198 87.8601 85.7604C88.2989 85.3725 88.8295 85.0777 89.4126 84.8976C89.9958 84.7175 90.6168 84.6567 91.2297 84.7197H91.2464Z" fill="url(#paint16_linear_14068_15306)"/>
<path d="M108.793 193.551C108.793 193.551 76.41 201.564 75.1131 201.975C73.1623 202.59 73.4893 208.983 76.5264 208.884C77.9618 208.834 101.394 209.662 104.359 209.498C107.324 209.335 115.288 206.525 115.288 206.525L108.793 193.551Z" fill="#455A64"/>
<path d="M95.3031 204.602C95.1369 204.602 94.9207 203.09 93.8733 201.495C92.8258 199.899 91.4846 198.947 91.5844 198.828C91.6841 198.709 93.247 199.532 94.3554 201.252C95.4639 202.971 95.4361 204.602 95.3031 204.602Z" fill="#263238"/>
<path d="M98.6784 203.229C98.5177 203.229 98.1907 201.886 97.3317 200.375C96.4727 198.863 95.4474 197.803 95.5638 197.704C95.6802 197.604 96.9216 198.556 97.8139 200.157C98.7062 201.757 98.817 203.219 98.6784 203.229Z" fill="#263238"/>
<path d="M101.843 202.471C101.682 202.471 101.804 201.014 101.089 199.413C100.374 197.813 99.2105 196.812 99.3213 196.702C99.4322 196.593 100.84 197.49 101.594 199.235C102.347 200.979 101.976 202.511 101.843 202.471Z" fill="#263238"/>
<path d="M101.272 198.729C101.211 198.729 100.923 197.937 100.923 196.579C100.927 195.782 101.037 194.988 101.25 194.215C101.376 193.758 101.537 193.309 101.732 192.872C101.833 192.599 102.013 192.354 102.253 192.163C102.414 192.052 102.614 191.996 102.818 192.005C103.021 192.014 103.214 192.088 103.362 192.213C103.615 192.427 103.769 192.719 103.794 193.03C103.827 193.284 103.842 193.539 103.838 193.794C103.828 194.271 103.761 194.746 103.639 195.211C103.423 195.987 103.088 196.733 102.641 197.426C101.887 198.601 101.233 199.2 101.184 199.17C101.134 199.141 101.655 198.447 102.292 197.268C102.668 196.583 102.953 195.861 103.14 195.117C103.243 194.682 103.295 194.238 103.295 193.794C103.295 193.348 103.295 192.802 102.996 192.574C102.943 192.522 102.869 192.489 102.789 192.483C102.71 192.478 102.631 192.5 102.569 192.545C102.407 192.681 102.285 192.851 102.214 193.04C102.021 193.457 101.856 193.884 101.721 194.319C101.496 195.058 101.353 195.815 101.294 196.579C101.211 197.902 101.355 198.72 101.272 198.729Z" fill="#263238"/>
<path d="M101.311 198.437C101.311 198.383 102.076 198.145 103.4 198.135C104.174 198.134 104.944 198.219 105.695 198.388C106.157 198.476 106.603 198.623 107.019 198.824C107.286 198.942 107.502 199.136 107.634 199.375C107.767 199.614 107.807 199.885 107.751 200.147C107.677 200.396 107.531 200.623 107.326 200.804C107.121 200.985 106.866 201.114 106.587 201.178C106.108 201.284 105.608 201.284 105.129 201.178C104.363 201.006 103.647 200.69 103.029 200.251C102.44 199.896 101.929 199.448 101.521 198.928C101.582 198.863 102.192 199.339 103.245 199.968C103.846 200.338 104.522 200.599 105.235 200.736C105.63 200.823 106.042 200.823 106.437 200.736C106.624 200.693 106.794 200.608 106.932 200.488C107.07 200.368 107.171 200.218 107.224 200.053C107.256 199.889 107.226 199.721 107.139 199.574C107.051 199.428 106.912 199.312 106.742 199.245C106.372 199.062 105.977 198.924 105.567 198.834C104.854 198.655 104.122 198.541 103.384 198.492C102.12 198.397 101.322 198.516 101.311 198.437Z" fill="#263238"/>
<path d="M90.3264 204.909C90.1657 204.909 90.3264 203.655 89.6891 202.298C89.0517 200.94 88.0264 200.142 88.104 200.028C88.1816 199.914 89.5117 200.598 90.1879 202.114C90.864 203.631 90.4594 204.959 90.3264 204.909Z" fill="#263238"/>
<path d="M112.922 206.247C112.524 206.457 112.104 206.633 111.669 206.772C110.495 207.177 109.292 207.508 108.067 207.764C104.969 208.462 100.552 208.859 95.7022 208.814C90.8529 208.77 86.4746 208.566 83.3045 208.452L79.5524 208.274C79.0905 208.275 78.6297 208.232 78.178 208.145C78.6343 208.082 79.0969 208.062 79.558 208.086H83.3155L95.7022 208.304C99.8263 208.407 103.951 208.117 108.006 207.437C111.076 206.867 112.883 206.153 112.922 206.247Z" fill="#263238"/>
<path d="M113.88 206.906C113.836 206.971 112.949 206.51 111.453 205.915C109.545 205.107 107.421 204.792 105.323 205.008C102.885 205.34 101.156 206.807 100.031 207.823C98.9055 208.839 98.2293 209.577 98.1628 209.528C98.5904 208.816 99.1236 208.159 99.7479 207.575C100.381 206.904 101.101 206.302 101.893 205.781C102.873 205.128 104.013 204.694 105.218 204.513C107.416 204.273 109.643 204.651 111.591 205.593C112.427 205.92 113.199 206.363 113.88 206.906Z" fill="#263238"/>
<path d="M81.4035 208.155C81.3481 208.12 81.6252 207.739 81.8801 207.065C82.2116 206.19 82.2935 205.255 82.1184 204.344C81.922 203.432 81.4701 202.58 80.805 201.866C80.3006 201.316 79.8905 201.044 79.9293 200.994C79.9681 200.944 80.4392 201.148 81.0377 201.678C81.8176 202.385 82.3407 203.286 82.5384 204.263C82.7362 205.24 82.5995 206.247 82.1462 207.154C81.8081 207.853 81.4312 208.185 81.4035 208.155Z" fill="#263238"/>
<path d="M105.639 152.652L99.82 165.452C99.82 165.452 70.9011 155.992 53.9754 158.747C47.541 159.798 40.6742 172.856 50.0294 181.241C59.1795 189.423 75.5232 200.989 106.238 204.731C107.003 204.825 119.578 207.238 118.802 207.154C118.026 207.07 136.431 209.677 136.431 209.677L140.754 195.072L175.066 199.899C195.272 198.665 205.159 179.343 192.994 173.139C181.644 167.335 160.296 166.875 160.296 166.875L155.058 154.094L105.639 152.652Z" fill="#263238"/>
<path d="M137.113 210.222C137.207 209.726 137.446 208.398 137.95 205.672C138.222 204.186 138.56 202.436 138.992 200.394C139.208 199.374 139.452 198.283 139.74 197.139C139.884 196.564 140.045 195.979 140.233 195.379C140.328 195.082 140.427 194.78 140.549 194.477C140.659 194.151 140.836 193.845 141.07 193.575L141.12 193.798C133.821 191.484 124.699 188.422 114.972 184.754C108.998 182.48 103.334 180.185 98.3902 177.792C96.0214 176.688 93.7483 175.428 91.59 174.02C89.5727 172.687 87.777 171.359 86.0922 170.2C82.7669 167.846 79.7298 166.324 77.4686 165.68C76.9739 165.519 76.4686 165.385 75.9556 165.279C75.5915 165.186 75.2213 165.113 74.8472 165.061L74.1433 164.947C74.0621 164.938 73.9822 164.921 73.905 164.897C73.9861 164.889 74.0678 164.889 74.1489 164.897L74.8583 164.976C75.2432 165.016 75.6246 165.079 76 165.165C76.5178 165.261 77.0287 165.385 77.5296 165.536C78.9112 165.936 80.2414 166.466 81.4978 167.117C83.1596 167.979 84.7539 168.941 86.2695 169.996C87.9654 171.146 89.7722 172.474 91.8117 173.783C93.9663 175.17 96.2318 176.413 98.5897 177.504C103.55 179.873 109.186 182.158 115.155 184.442C124.871 188.104 133.998 191.187 141.259 193.541L141.458 193.605L141.309 193.759C141.111 194.001 140.959 194.271 140.86 194.557C140.738 194.849 140.638 195.146 140.544 195.439C140.35 196.029 140.189 196.613 140.039 197.183C139.74 198.323 139.485 199.408 139.263 200.424C138.809 202.461 138.449 204.235 138.155 205.687C137.861 207.139 137.601 208.254 137.457 209.042C137.368 209.429 137.302 209.721 137.246 209.919C137.211 210.023 137.167 210.124 137.113 210.222Z" fill="#455A64"/>
<path d="M186.316 174.868C186.254 174.875 186.19 174.875 186.128 174.868L185.574 174.789C185.103 174.734 184.421 174.576 183.523 174.501C181.003 174.205 178.457 174.124 175.919 174.258C172.156 174.474 168.426 175.025 164.785 175.904C162.729 176.399 160.59 176.974 158.4 177.653C156.211 178.332 153.967 179.11 151.694 179.928C149.459 180.718 147.173 181.391 144.85 181.945C142.633 182.5 140.416 182.936 138.316 183.293C134.12 184.026 130.307 184.477 127.104 184.824C123.901 185.171 121.301 185.409 119.506 185.572L117.439 185.755L116.884 185.795C116.762 185.795 116.701 185.795 116.701 185.795C116.759 185.778 116.818 185.766 116.879 185.76L117.433 185.691L119.489 185.448L127.071 184.596C130.269 184.214 134.076 183.743 138.249 182.995C140.339 182.628 142.522 182.187 144.756 181.632C147.064 181.079 149.334 180.407 151.556 179.62C153.839 178.808 156.084 178.025 158.284 177.346C160.484 176.667 162.635 176.097 164.702 175.606C168.367 174.738 172.122 174.208 175.908 174.025C178.46 173.908 181.019 174.024 183.545 174.372C184.443 174.471 185.119 174.65 185.59 174.724L186.144 174.833C186.203 174.838 186.261 174.85 186.316 174.868Z" fill="#455A64"/>
<path d="M133.5 169.63C133.5 169.848 131.964 170.195 129.393 170.408C122.677 170.897 115.917 170.25 109.469 168.5C107.014 167.806 105.589 167.167 105.645 166.959C105.811 166.498 111.88 167.95 119.528 168.654C127.176 169.357 133.444 169.149 133.5 169.63Z" fill="#263238"/>
<path d="M160.595 167.063C160.235 167.182 159.864 167.273 159.487 167.335C159.115 167.405 158.672 167.504 158.162 167.643C157.652 167.781 157.054 167.915 156.433 168.138C154.943 168.583 153.481 169.101 152.055 169.689C150.447 170.368 148.729 171.176 146.961 172.122C143.972 173.753 141.104 175.555 138.377 177.519C137.329 178.267 136.487 178.887 135.91 179.323C135.622 179.56 135.313 179.776 134.985 179.967C135.238 179.699 135.516 179.45 135.816 179.224C136.37 178.763 137.18 178.114 138.216 177.341C140.907 175.314 143.768 173.475 146.773 171.84C148.436 170.951 150.151 170.142 151.911 169.417C153.353 168.839 154.833 168.343 156.344 167.93C156.987 167.742 157.58 167.613 158.107 167.499C158.549 167.393 158.996 167.307 159.448 167.241C159.825 167.155 160.208 167.096 160.595 167.063Z" fill="#455A64"/>
<path d="M128.451 179.947C127.753 179.851 127.071 179.676 126.422 179.427C124.834 178.885 123.284 178.259 121.778 177.554L117.283 175.448C116.644 175.188 116.025 174.888 115.432 174.551C116.113 174.715 116.77 174.946 117.394 175.24C118.58 175.735 120.165 176.454 121.944 177.262C123.723 178.069 125.325 178.748 126.517 179.214C127.175 179.428 127.821 179.673 128.451 179.947Z" fill="#455A64"/>
<path d="M131.576 153.405C131.632 153.405 131.538 154.584 131.427 156.482C131.316 158.381 131.222 161.002 131.272 163.916C131.322 166.83 131.51 169.432 131.687 171.32C131.865 173.208 131.998 174.377 131.942 174.387C131.852 174.126 131.79 173.857 131.759 173.584C131.66 173.059 131.549 172.301 131.427 171.354C131.183 169.466 130.956 166.835 130.906 163.921C130.856 161.007 130.989 158.371 131.166 156.487C131.255 155.536 131.344 154.773 131.421 154.247C131.441 153.963 131.493 153.68 131.576 153.405Z" fill="#455A64"/>
<path d="M134.797 158.43C134.797 158.46 134.675 158.534 134.497 158.717C134.25 158.985 134.092 159.31 134.043 159.654C134.002 159.9 134.021 160.151 134.097 160.391C134.173 160.63 134.306 160.852 134.486 161.042C134.733 161.238 135.035 161.371 135.36 161.426C135.685 161.481 136.02 161.457 136.331 161.355C136.641 161.253 136.915 161.078 137.123 160.849C137.331 160.619 137.465 160.343 137.512 160.05C137.51 159.801 137.448 159.555 137.332 159.329C137.215 159.102 137.046 158.901 136.836 158.737C136.549 158.504 136.193 158.35 135.811 158.291C135.539 158.257 135.378 158.291 135.373 158.252C135.367 158.212 135.523 158.167 135.822 158.162C136.253 158.178 136.666 158.317 137.002 158.559C137.259 158.734 137.468 158.959 137.614 159.216C137.761 159.474 137.842 159.757 137.85 160.045C137.813 160.404 137.663 160.746 137.418 161.031C137.172 161.317 136.842 161.535 136.465 161.66C136.087 161.785 135.678 161.813 135.284 161.739C134.89 161.666 134.527 161.494 134.237 161.245C134.03 161.021 133.882 160.758 133.805 160.475C133.727 160.193 133.721 159.899 133.788 159.614C133.863 159.234 134.075 158.886 134.392 158.623C134.503 158.525 134.643 158.457 134.797 158.43Z" fill="#455A64"/>
<path d="M140.954 194.69C140.954 194.69 173.819 199.151 175.149 199.423C177.144 199.82 177.665 206.133 174.667 206.361C173.253 206.465 150.337 209.741 147.405 209.889C144.473 210.038 135.29 207.907 135.29 207.907L140.954 194.69Z" fill="#455A64"/>
<path d="M155.668 204.106C155.834 204.106 155.846 202.58 156.66 200.9C157.475 199.22 158.678 198.145 158.561 198.046C158.445 197.946 157.02 198.908 156.167 200.712C155.313 202.516 155.524 204.146 155.668 204.106Z" fill="#263238"/>
<path d="M152.16 203.115C152.321 203.115 152.465 201.742 153.113 200.166C153.762 198.591 154.621 197.446 154.493 197.362C154.366 197.277 153.274 198.353 152.609 200.003C151.944 201.653 152.027 203.14 152.16 203.115Z" fill="#263238"/>
<path d="M148.951 202.719C149.112 202.694 148.796 201.287 149.295 199.636C149.794 197.986 150.797 196.881 150.669 196.792C150.542 196.703 149.284 197.719 148.774 199.512C148.264 201.306 148.829 202.773 148.951 202.719Z" fill="#263238"/>
<path d="M149.018 198.987C149.079 198.987 149.25 198.169 149.079 196.831C148.965 196.051 148.751 195.284 148.441 194.547C148.26 194.11 148.043 193.686 147.793 193.278C147.659 193.019 147.45 192.797 147.189 192.634C147.012 192.538 146.803 192.503 146.599 192.534C146.396 192.565 146.212 192.66 146.08 192.802C145.863 193.041 145.75 193.342 145.764 193.65C145.768 193.904 145.788 194.157 145.825 194.408C145.894 194.876 146.023 195.334 146.208 195.776C146.524 196.515 146.951 197.211 147.477 197.847C147.917 198.456 148.481 198.986 149.14 199.408C149.206 199.354 148.585 198.749 147.793 197.654C147.333 197.023 146.96 196.344 146.684 195.632C146.527 195.215 146.418 194.785 146.357 194.349C146.313 193.908 146.235 193.358 146.49 193.125C146.535 193.067 146.603 193.026 146.681 193.011C146.758 192.997 146.838 193.009 146.906 193.045C147.087 193.164 147.23 193.323 147.322 193.506C147.568 193.894 147.785 194.296 147.97 194.71C148.292 195.412 148.533 196.141 148.691 196.886C148.973 198.16 148.934 198.982 149.018 198.987Z" fill="#263238"/>
<path d="M148.946 198.7C148.946 198.645 148.153 198.492 146.856 198.625C146.097 198.707 145.352 198.873 144.639 199.121C144.198 199.258 143.78 199.45 143.398 199.691C143.149 199.834 142.96 200.047 142.86 200.296C142.76 200.545 142.754 200.816 142.844 201.068C142.95 201.305 143.124 201.512 143.349 201.669C143.574 201.826 143.841 201.926 144.124 201.961C144.608 202.014 145.099 201.96 145.554 201.802C146.284 201.552 146.947 201.167 147.499 200.672C148.03 200.263 148.472 199.769 148.801 199.215C148.735 199.161 148.197 199.711 147.244 200.419C146.702 200.844 146.074 201.172 145.393 201.386C145.015 201.505 144.61 201.543 144.213 201.495C144.023 201.474 143.843 201.408 143.691 201.305C143.539 201.201 143.421 201.063 143.348 200.905C143.296 200.747 143.303 200.579 143.369 200.425C143.436 200.272 143.557 200.143 143.714 200.058C144.058 199.842 144.43 199.666 144.822 199.532C145.499 199.281 146.203 199.091 146.923 198.967C148.148 198.749 148.94 198.779 148.946 198.7Z" fill="#263238"/>
<path d="M160.59 203.903C160.745 203.868 160.423 202.669 160.872 201.272C161.321 199.874 162.247 198.977 162.13 198.878C162.014 198.779 160.822 199.582 160.351 201.143C159.88 202.704 160.468 203.968 160.59 203.903Z" fill="#263238"/>
<path d="M138.565 207.575C138.983 207.745 139.419 207.874 139.868 207.962C141.074 208.236 142.3 208.438 143.536 208.566C147.628 208.918 151.751 208.826 155.818 208.294C160.579 207.734 164.852 207.08 167.95 206.639L171.613 206.069C172.065 206.018 172.511 205.927 172.943 205.796C172.486 205.783 172.029 205.812 171.58 205.885L167.894 206.302L155.751 207.818C151.715 208.341 147.628 208.479 143.559 208.229C140.461 208.006 138.593 207.501 138.565 207.575Z" fill="#263238"/>
<path d="M137.712 208.338C137.767 208.403 138.576 207.843 139.967 207.119C141.736 206.126 143.781 205.598 145.87 205.593C148.308 205.667 150.198 206.926 151.44 207.808C152.087 208.344 152.774 208.841 153.496 209.295C152.983 208.646 152.375 208.061 151.689 207.555C150.973 206.966 150.185 206.45 149.339 206.019C148.285 205.477 147.101 205.171 145.886 205.127C143.703 205.127 141.574 205.731 139.79 206.857C139.016 207.252 138.315 207.752 137.712 208.338Z" fill="#263238"/>
<path d="M159.78 120.891C159.653 121.614 159.226 141.209 160.534 142.988C162.59 145.813 169.219 150.868 173.342 149.485C180.031 147.24 181.544 134.588 181.422 136.937L176.13 96.96H165.938L165.09 111.297L162.119 112.922C161.917 114.589 161.536 116.236 160.983 117.838L159.78 120.891Z" fill="#FCE5D5"/>
<path d="M165.938 96.9601C165.938 96.9601 161.87 93.3623 161.87 92.5644C161.87 91.7665 160.279 91.3205 160.279 91.3205L157.697 90.1708C157.697 90.1708 156.034 88.7486 156.411 87.9507C156.625 87.4879 157.018 87.1096 157.519 86.8852C157.519 86.8852 157.647 84.9327 159.271 84.4074C159.271 84.4074 157.746 82.9207 159.271 81.8354C160.795 80.7501 161.16 81.211 161.16 81.211C161.16 81.211 160.994 80.0563 161.886 79.9721C162.779 79.8878 169.163 78.4606 169.163 78.4606C170.078 78.8713 170.934 79.3788 171.713 79.9721C172.505 80.6807 172.904 81.1218 172.904 81.1218C173.604 80.3247 174.143 79.424 174.495 78.4606C174.888 77.1276 175.487 73.1333 179.954 73.3117V74.3028C179.076 75.4866 178.467 76.8136 178.164 78.2079C177.571 80.6857 176.501 86.1914 176.501 86.1914L176.169 96.9848L165.938 96.9601Z" fill="#FCE5D5"/>
<path d="M162.014 136.838C161.972 136.707 161.943 136.573 161.925 136.437C161.881 136.169 161.798 135.783 161.754 135.272C161.59 133.838 161.566 132.394 161.681 130.956C161.858 128.825 162.178 126.705 162.64 124.608C163.122 122.239 163.776 119.652 164.264 116.917C165.217 111.431 165.339 106.391 165.494 102.753C165.566 100.954 165.627 99.4875 165.666 98.4468L165.733 97.2723C165.732 97.1359 165.747 96.9997 165.777 96.866C165.785 97.003 165.785 97.1403 165.777 97.2773C165.777 97.5697 165.777 97.9562 165.777 98.4468C165.777 99.4925 165.733 100.959 165.7 102.758C165.662 107.509 165.273 112.252 164.536 116.956C164.042 119.707 163.377 122.288 162.873 124.652C162.401 126.738 162.063 128.846 161.859 130.966C161.734 132.396 161.734 133.832 161.859 135.262C161.887 135.758 161.953 136.164 161.981 136.432C162.005 136.566 162.017 136.702 162.014 136.838Z" fill="url(#paint17_linear_14068_15306)"/>
<path d="M169.125 80.6214C169.125 80.6561 168.681 80.6462 167.972 80.7304C167.262 80.8147 166.276 80.9039 165.201 80.9931C163.878 81.1503 162.545 81.2216 161.21 81.2062C162.508 80.969 163.823 80.8182 165.145 80.7552C166.254 80.666 167.224 80.6016 167.916 80.5669C168.318 80.5 168.732 80.5187 169.125 80.6214Z" fill="url(#paint18_linear_14068_15306)"/>
<path d="M167.251 84.8832C166.867 84.9052 166.481 84.8936 166.099 84.8485C165.395 84.8089 164.436 84.794 163.327 84.7692C162.4 84.7625 161.475 84.7012 160.556 84.5859C160.174 84.556 159.8 84.4707 159.448 84.3331C159.832 84.3266 160.216 84.3498 160.595 84.4025C161.299 84.457 162.258 84.4917 163.366 84.5115C164.475 84.5313 165.439 84.5809 166.137 84.6651C166.519 84.6884 166.894 84.7618 167.251 84.8832Z" fill="url(#paint19_linear_14068_15306)"/>
<path d="M165.783 88.3274C165.387 88.3291 164.992 88.2874 164.608 88.2035C163.887 88.0945 162.901 87.926 161.809 87.7079C160.717 87.4899 159.736 87.3115 159.038 87.1578C158.647 87.0988 158.265 86.9973 157.902 86.8555C158.299 86.8535 158.696 86.8952 159.082 86.9794C159.797 87.0885 160.789 87.2569 161.853 87.475C162.917 87.693 163.92 87.8715 164.624 88.03C165.023 88.0858 165.412 88.1857 165.783 88.3274Z" fill="url(#paint20_linear_14068_15306)"/>
<defs>
<linearGradient id="paint0_linear_14068_15306" x1="32.6757" y1="103.287" x2="66.1457" y2="106.193" gradientUnits="userSpaceOnUse">
<stop stop-color="#FF0B8D"/>
<stop offset="1" stop-color="#F27D2F"/>
</linearGradient>
<linearGradient id="paint1_linear_14068_15306" x1="43.5663" y1="157.315" x2="62.6197" y2="159.204" gradientUnits="userSpaceOnUse">
<stop stop-color="#FF0B8D"/>
<stop offset="1" stop-color="#F27D2F"/>
</linearGradient>
<linearGradient id="paint2_linear_14068_15306" x1="-3.64685" y1="154.127" x2="27.18" y2="157.84" gradientUnits="userSpaceOnUse">
<stop stop-color="#FF0B8D"/>
<stop offset="1" stop-color="#F27D2F"/>
</linearGradient>
<linearGradient id="paint3_linear_14068_15306" x1="-6.44145" y1="127.315" x2="28.8684" y2="131.272" gradientUnits="userSpaceOnUse">
<stop stop-color="#FF0B8D"/>
<stop offset="1" stop-color="#F27D2F"/>
</linearGradient>
<linearGradient id="paint4_linear_14068_15306" x1="76.238" y1="147.553" x2="166.704" y2="160.711" gradientUnits="userSpaceOnUse">
<stop stop-color="#FF0B8D"/>
<stop offset="1" stop-color="#F27D2F"/>
</linearGradient>
<linearGradient id="paint5_linear_14068_15306" x1="124.982" y1="83.8065" x2="139.415" y2="88.3099" gradientUnits="userSpaceOnUse">
<stop stop-color="#FF0B8D"/>
<stop offset="1" stop-color="#F27D2F"/>
</linearGradient>
<linearGradient id="paint6_linear_14068_15306" x1="134.138" y1="71.8438" x2="139.209" y2="72.6351" gradientUnits="userSpaceOnUse">
<stop stop-color="#FF0B8D"/>
<stop offset="1" stop-color="#F27D2F"/>
</linearGradient>
<linearGradient id="paint7_linear_14068_15306" x1="116.097" y1="67.0294" x2="119.407" y2="67.2751" gradientUnits="userSpaceOnUse">
<stop stop-color="#FF0B8D"/>
<stop offset="1" stop-color="#F27D2F"/>
</linearGradient>
<linearGradient id="paint8_linear_14068_15306" x1="90.4982" y1="133.734" x2="93.9986" y2="133.769" gradientUnits="userSpaceOnUse">
<stop stop-color="#FF0B8D"/>
<stop offset="1" stop-color="#F27D2F"/>
</linearGradient>
<linearGradient id="paint9_linear_14068_15306" x1="95.8826" y1="85.8396" x2="98.1012" y2="86.0955" gradientUnits="userSpaceOnUse">
<stop stop-color="#FF0B8D"/>
<stop offset="1" stop-color="#F27D2F"/>
</linearGradient>
<linearGradient id="paint10_linear_14068_15306" x1="103.822" y1="90.8043" x2="104.202" y2="90.8098" gradientUnits="userSpaceOnUse">
<stop stop-color="#FF0B8D"/>
<stop offset="1" stop-color="#F27D2F"/>
</linearGradient>
<linearGradient id="paint11_linear_14068_15306" x1="98.9498" y1="94.3845" x2="101.326" y2="94.5385" gradientUnits="userSpaceOnUse">
<stop stop-color="#FF0B8D"/>
<stop offset="1" stop-color="#F27D2F"/>
</linearGradient>
<linearGradient id="paint12_linear_14068_15306" x1="99.831" y1="89.5031" x2="102.971" y2="89.9124" gradientUnits="userSpaceOnUse">
<stop stop-color="#FF0B8D"/>
<stop offset="1" stop-color="#F27D2F"/>
</linearGradient>
<linearGradient id="paint13_linear_14068_15306" x1="99.2538" y1="88.488" x2="100.27" y2="88.5169" gradientUnits="userSpaceOnUse">
<stop stop-color="#FF0B8D"/>
<stop offset="1" stop-color="#F27D2F"/>
</linearGradient>
<linearGradient id="paint14_linear_14068_15306" x1="99.4542" y1="91.3934" x2="103.513" y2="92.0505" gradientUnits="userSpaceOnUse">
<stop stop-color="#FF0B8D"/>
<stop offset="1" stop-color="#F27D2F"/>
</linearGradient>
<linearGradient id="paint15_linear_14068_15306" x1="87.9983" y1="93.4096" x2="94.3003" y2="94.4158" gradientUnits="userSpaceOnUse">
<stop stop-color="#FF0B8D"/>
<stop offset="1" stop-color="#F27D2F"/>
</linearGradient>
<linearGradient id="paint16_linear_14068_15306" x1="87.1734" y1="85.6636" x2="90.4876" y2="86.9474" gradientUnits="userSpaceOnUse">
<stop stop-color="#FF0B8D"/>
<stop offset="1" stop-color="#F27D2F"/>
</linearGradient>
<linearGradient id="paint17_linear_14068_15306" x1="160.763" y1="132.996" x2="165.46" y2="133.056" gradientUnits="userSpaceOnUse">
<stop stop-color="#FF0B8D"/>
<stop offset="1" stop-color="#F27D2F"/>
</linearGradient>
<linearGradient id="paint18_linear_14068_15306" x1="159.606" y1="81.1428" x2="162.546" y2="85.3318" gradientUnits="userSpaceOnUse">
<stop stop-color="#FF0B8D"/>
<stop offset="1" stop-color="#F27D2F"/>
</linearGradient>
<linearGradient id="paint19_linear_14068_15306" x1="157.866" y1="84.84" x2="160.121" y2="88.6773" gradientUnits="userSpaceOnUse">
<stop stop-color="#FF0B8D"/>
<stop offset="1" stop-color="#F27D2F"/>
</linearGradient>
<linearGradient id="paint20_linear_14068_15306" x1="156.303" y1="88.1859" x2="162.506" y2="92.2541" gradientUnits="userSpaceOnUse">
<stop stop-color="#FF0B8D"/>
<stop offset="1" stop-color="#F27D2F"/>
</linearGradient>
</defs>
</svg>
