<svg width="20" height="20" viewBox="0 0 20 20" fill="none" xmlns="http://www.w3.org/2000/svg">
<path d="M19.25 9.50003C19.2534 10.8199 18.9451 12.1219 18.35 13.3C17.6444 14.7118 16.5598 15.8992 15.2174 16.7293C13.8751 17.5594 12.3282 17.9994 10.75 18C9.43013 18.0035 8.12812 17.6951 6.95 17.1L1.25 19L3.15 13.3C2.55493 12.1219 2.24656 10.8199 2.25 9.50003C2.25061 7.92179 2.69061 6.37488 3.52072 5.03258C4.35083 3.69028 5.53825 2.6056 6.95 1.90003C8.12812 1.30496 9.43013 0.996587 10.75 1.00003H11.25C13.3343 1.11502 15.303 1.99479 16.7791 3.47089C18.2552 4.94699 19.135 6.91568 19.25 9.00003V9.50003Z" stroke="#979C9E" stroke-width="1.5" stroke-linecap="round" stroke-linejoin="round"/>
</svg>
