<svg width="23" height="22" viewBox="0 0 23 22" fill="none" xmlns="http://www.w3.org/2000/svg">
<path d="M19.5 11V21H3.5V11M11.5 21V6M11.5 6H7C6.33696 6 5.70107 5.73661 5.23223 5.26777C4.76339 4.79893 4.5 4.16304 4.5 3.5C4.5 2.83696 4.76339 2.20107 5.23223 1.73223C5.70107 1.26339 6.33696 1 7 1C10.5 1 11.5 6 11.5 6ZM11.5 6H16C16.663 6 17.2989 5.73661 17.7678 5.26777C18.2366 4.79893 18.5 4.16304 18.5 3.5C18.5 2.83696 18.2366 2.20107 17.7678 1.73223C17.2989 1.26339 16.663 1 16 1C12.5 1 11.5 6 11.5 6ZM1.5 6H21.5V11H1.5V6Z" stroke="#979C9E" stroke-width="1.5" stroke-linecap="round" stroke-linejoin="round"/>
</svg>
