<svg width="24" height="20" viewBox="0 0 24 20" fill="none" xmlns="http://www.w3.org/2000/svg">
<path d="M22.75 2.00008V8.00008M22.75 8.00008H16.75M22.75 8.00008L18.11 3.64008C17.0353 2.56479 15.7056 1.77928 14.2452 1.35685C12.7848 0.934417 11.2411 0.888827 9.75829 1.22433C8.27547 1.55984 6.9018 2.26551 5.76547 3.27549C4.62913 4.28548 3.76717 5.56686 3.26 7.00008M0.75 18.0001V12.0001M0.75 12.0001H6.75M0.75 12.0001L5.39 16.3601C6.46475 17.4354 7.79437 18.2209 9.25481 18.6433C10.7152 19.0657 12.2589 19.1113 13.7417 18.7758C15.2245 18.4403 16.5982 17.7346 17.7345 16.7247C18.8709 15.7147 19.7328 14.4333 20.24 13.0001" stroke="#979C9E" stroke-width="1.5" stroke-linecap="round" stroke-linejoin="round"/>
</svg>
