<svg width="22" height="22" viewBox="0 0 22 22" fill="none" xmlns="http://www.w3.org/2000/svg">
<path d="M10 3.00001H3C2.46957 3.00001 1.96086 3.21073 1.58579 3.5858C1.21071 3.96087 1 4.46958 1 5.00001V19C1 19.5304 1.21071 20.0392 1.58579 20.4142C1.96086 20.7893 2.46957 21 3 21H17C17.5304 21 18.0391 20.7893 18.4142 20.4142C18.7893 20.0392 19 19.5304 19 19V12M17.5 1.50001C17.8978 1.10219 18.4374 0.878693 19 0.878693C19.5626 0.878693 20.1022 1.10219 20.5 1.50001C20.8978 1.89784 21.1213 2.4374 21.1213 3.00001C21.1213 3.56262 20.8978 4.10219 20.5 4.50001L11 14L7 15L8 11L17.5 1.50001Z" stroke="#090A0A" stroke-width="1.5" stroke-linecap="round" stroke-linejoin="round"/>
</svg>
