<svg width="24" height="24" viewBox="0 0 24 24" fill="none" xmlns="http://www.w3.org/2000/svg">
<path d="M22.1376 17.1701V20.1701C22.1388 20.4486 22.0817 20.7243 21.9701 20.9794C21.8586 21.2346 21.6949 21.4637 21.4897 21.652C21.2845 21.8402 21.0422 21.9836 20.7784 22.0728C20.5146 22.162 20.235 22.1952 19.9576 22.1701C16.8805 21.8357 13.9246 20.7842 11.3276 19.1001C8.91146 17.5648 6.86296 15.5163 5.32763 13.1001C3.63761 10.4913 2.58587 7.52109 2.25763 4.4301C2.23264 4.15356 2.2655 3.87486 2.35413 3.61172C2.44275 3.34859 2.5852 3.10679 2.77239 2.90172C2.95959 2.69665 3.18743 2.53281 3.44142 2.42062C3.69541 2.30843 3.96997 2.25036 4.24763 2.2501H7.24763C7.73293 2.24532 8.20342 2.41718 8.57139 2.73363C8.93936 3.05008 9.17971 3.48954 9.24763 3.9701C9.37425 4.93016 9.60908 5.87282 9.94763 6.7801C10.0822 7.13802 10.1113 7.52701 10.0315 7.90098C9.95178 8.27494 9.76649 8.61821 9.49763 8.8901L8.22763 10.1601C9.65118 12.6636 11.7241 14.7365 14.2276 16.1601L15.4976 14.8901C15.7695 14.6212 16.1128 14.4359 16.4867 14.3562C16.8607 14.2764 17.2497 14.3056 17.6076 14.4401C18.5149 14.7786 19.4576 15.0135 20.4176 15.1401C20.9034 15.2086 21.347 15.4533 21.6642 15.8276C21.9813 16.2019 22.1498 16.6797 22.1376 17.1701Z" stroke="#090A0A" stroke-width="1.5" stroke-linecap="round" stroke-linejoin="round"/>
</svg>
