<svg width="32" height="32" viewBox="0 0 32 32" fill="none" xmlns="http://www.w3.org/2000/svg">
<path d="M0 16C0 7.16344 7.16344 0 16 0C24.8366 0 32 7.16344 32 16C32 24.8366 24.8366 32 16 32C7.16344 32 0 24.8366 0 16Z" fill="#F27D2F"/>
<path d="M22.7585 19.4467V21.4467C22.7593 21.6324 22.7212 21.8162 22.6468 21.9863C22.5725 22.1564 22.4634 22.3091 22.3266 22.4346C22.1897 22.5602 22.0282 22.6557 21.8523 22.7152C21.6764 22.7747 21.4901 22.7968 21.3052 22.7801C19.2537 22.5572 17.2832 21.8562 15.5518 20.7334C13.9411 19.7098 12.5754 18.3442 11.5518 16.7334C10.4252 14.9942 9.724 13.0141 9.50517 10.9534C9.48851 10.769 9.51042 10.5832 9.5695 10.4078C9.62858 10.2324 9.72355 10.0712 9.84834 9.93448C9.97314 9.79777 10.125 9.68854 10.2944 9.61375C10.4637 9.53895 10.6467 9.50024 10.8318 9.50006H12.8318C13.1554 9.49688 13.469 9.61145 13.7143 9.82242C13.9597 10.0334 14.1199 10.3264 14.1652 10.6467C14.2496 11.2868 14.4061 11.9152 14.6318 12.5201C14.7215 12.7587 14.7409 13.018 14.6878 13.2673C14.6346 13.5166 14.5111 13.7455 14.3318 13.9267L13.4852 14.7734C14.4342 16.4424 15.8161 17.8244 17.4852 18.7734L18.3318 17.9267C18.5131 17.7475 18.7419 17.624 18.9912 17.5708C19.2406 17.5176 19.4999 17.537 19.7385 17.6267C20.3433 17.8524 20.9718 18.009 21.6118 18.0934C21.9357 18.1391 22.2314 18.3022 22.4429 18.5517C22.6543 18.8013 22.7666 19.1198 22.7585 19.4467Z" stroke="white" stroke-width="1.5" stroke-linecap="round" stroke-linejoin="round"/>
</svg>
