<svg width="20" height="18" viewBox="0 0 20 18" fill="none" xmlns="http://www.w3.org/2000/svg">
<path d="M18.5099 6.58629L13.055 5.79351L10.6165 0.849959C10.5499 0.714608 10.4403 0.605037 10.305 0.538436C9.96553 0.370858 9.55303 0.510506 9.3833 0.849959L6.94482 5.79351L1.48994 6.58629C1.33955 6.60777 1.20205 6.67867 1.09678 6.78609C0.969508 6.9169 0.899377 7.09289 0.901794 7.27538C0.904211 7.45787 0.978979 7.63194 1.10967 7.75933L5.05635 11.6072L4.12393 17.0406C4.10206 17.167 4.11605 17.297 4.1643 17.4158C4.21255 17.5347 4.29314 17.6376 4.39692 17.713C4.50071 17.7884 4.62354 17.8332 4.75148 17.8423C4.87943 17.8514 5.00737 17.8245 5.1208 17.7646L9.9999 15.1994L14.879 17.7646C15.0122 17.8355 15.1669 17.8591 15.3151 17.8334C15.689 17.7689 15.9403 17.4144 15.8759 17.0406L14.9435 11.6072L18.8901 7.75933C18.9976 7.65406 19.0685 7.51656 19.0899 7.36617C19.1479 6.99019 18.8858 6.64215 18.5099 6.58629Z" fill="#FFB323"/>
</svg>
